<svg width="648.56" height="339.61" version="1.1" viewBox="0 0 648.56 339.61" xmlns="http://www.w3.org/2000/svg">
 <g transform="translate(-50.72,-65.96)">
  <g fill="#ebebeb">
   <path d="m674.73 130.88 7.16-11.54-3.53-2.18a3.23 3.23 0 0 1-1.5-3 17.14 17.14 0 0 0 0.06-2 3.24 3.24 0 0 1 1.69-2.93l3.66-2-6.42-12-3.66 2a3.23 3.23 0 0 1-3.37-0.21 18.33 18.33 0 0 0-1.73-1.07 3.24 3.24 0 0 1-1.7-2.93l0.13-4.15-13.52-0.47-0.12 4.17a3.24 3.24 0 0 1-1.89 2.81q-0.45 0.21-0.9 0.45c-0.29 0.16-0.58 0.32-0.87 0.5a3.22 3.22 0 0 1-3.37 0l-3.55-2.2-7.16 11.53 3.54 2.2a3.21 3.21 0 0 1 1.49 3 19.39 19.39 0 0 0-0.06 2 3.24 3.24 0 0 1-1.69 2.93l-3.66 2 6.42 12 3.66-2a3.23 3.23 0 0 1 3.37 0.22c0.56 0.38 1.13 0.74 1.72 1.06a3.26 3.26 0 0 1 1.71 2.93l-0.13 4.16 13.57 0.42 0.12-4.16a3.23 3.23 0 0 1 1.89-2.8q0.45-0.21 0.9-0.45c0.3-0.16 0.59-0.33 0.87-0.5a3.23 3.23 0 0 1 3.39 0zm-11.49-8.57a11.12 11.12 0 1 1 4.56-15 11.1 11.1 0 0 1-4.56 15z"/>
   <path d="m627 141.66-4.75-8.23-2.52 1.45a2.25 2.25 0 0 1-2.37-0.08 13.72 13.72 0 0 0-1.24-0.71 2.27 2.27 0 0 1-1.25-2v-2.91h-9.51v2.91a2.27 2.27 0 0 1-1.25 2c-0.42 0.22-0.83 0.45-1.23 0.71a2.25 2.25 0 0 1-2.37 0.08l-2.51-1.45-4.76 8.23 2.54 1.46a2.25 2.25 0 0 1 1.1 2.1v0.7 0.7a2.25 2.25 0 0 1-1.1 2.09l-2.54 1.47 4.76 8.23 2.53-1.46a2.27 2.27 0 0 1 2.37 0.09 13.38 13.38 0 0 0 1.22 0.71 2.26 2.26 0 0 1 1.25 2v2.91h9.51v-2.91a2.26 2.26 0 0 1 1.25-2 13.55 13.55 0 0 0 1.23-0.71 2.27 2.27 0 0 1 2.37-0.09l2.53 1.46 4.75-8.23-2.53-1.46a2.27 2.27 0 0 1-1.1-2.1v-0.7-0.7a2.26 2.26 0 0 1 1.11-2.1zm-9.09 4.26a7.79 7.79 0 1 1-7.79-7.8 7.79 7.79 0 0 1 7.79 7.8z"/>
   <path d="m101.5 238.06-4.76-8.24-2.52 1.46a2.27 2.27 0 0 1-2.37-0.08 10.63 10.63 0 0 0-1.23-0.71 2.27 2.27 0 0 1-1.25-2v-2.91h-9.51v2.91a2.27 2.27 0 0 1-1.25 2 10.63 10.63 0 0 0-1.23 0.71 2.27 2.27 0 0 1-2.37 0.08l-2.53-1.46-4.75 8.24 2.53 1.46a2.23 2.23 0 0 1 1.11 2.09v0.7 0.7a2.24 2.24 0 0 1-1.1 2.09l-2.54 1.47 4.75 8.24 2.52-1.46a2.25 2.25 0 0 1 2.37 0.08 12.62 12.62 0 0 0 1.23 0.71 2.27 2.27 0 0 1 1.25 2v2.91h9.51v-2.91a2.27 2.27 0 0 1 1.25-2 12.62 12.62 0 0 0 1.23-0.71 2.25 2.25 0 0 1 2.37-0.08l2.52 1.46 4.76-8.24-2.49-1.46a2.25 2.25 0 0 1-1.1-2.09v-0.71-0.7a2.24 2.24 0 0 1 1.1-2.09zm-9.1 4.25a7.79 7.79 0 1 1-7.78-7.79 7.78 7.78 0 0 1 7.78 7.79z"/>
  </g>
  <g fill="#ebebeb">
   <path d="m516 221.35a38.78 38.78 0 0 0-2.63 12.06h-10.73v-0.3l0.09-0.82a30.06 30.06 0 0 1 0.7-4.21 32.63 32.63 0 0 1 2.37-6.57 0.25 0.25 0 0 1 0.26-0.16z"/>
   <path d="m515.63 248.28h-9.81a0.24 0.24 0 0 1-0.24-0.15 30.29 30.29 0 0 1-2.43-7.42 29.58 29.58 0 0 1-0.48-3.75v-0.42h10.49c0.19 0 0.18 0 0.2 0.2 0.06 0.85 0.12 1.71 0.2 2.57a32.7 32.7 0 0 0 0.66 4 36.55 36.55 0 0 0 1.39 4.8 1.31 1.31 0 0 1 0.02 0.17z"/>
   <path d="m556.88 251.39a0.87 0.87 0 0 1-0.08 0.14 29.6 29.6 0 0 1-2.78 3.61 27.81 27.81 0 0 1-4.07 3.75 29.12 29.12 0 0 1-9.55 4.79 31.5 31.5 0 0 1-4.08 0.87l-0.41 0.06h-0.23l-0.23-0.14 0.26-0.19a31.34 31.34 0 0 0 7.74-7.5 36.09 36.09 0 0 0 3.16-5.24 0.2 0.2 0 0 1 0.24-0.15h10z"/>
   <path d="m547.07 233.4h-13.78v-12h10.76a0.21 0.21 0 0 1 0.22 0.14 33.58 33.58 0 0 1 2.19 7.06 37.72 37.72 0 0 1 0.53 3.82c0.01 0.29 0.01 0.63 0.08 0.98z"/>
   <path d="m547 236.61v0.85c-0.06 0.67-0.11 1.34-0.2 2-0.13 0.92-0.27 1.85-0.46 2.76a32.67 32.67 0 0 1-1.78 5.88c-0.06 0.12-0.11 0.18-0.26 0.18h-11v-11.67z"/>
   <path d="m530.19 221.43v12.06h-13.46c0-0.31 0-0.61 0.06-0.9 0.07-0.68 0.12-1.36 0.23-2 0.17-1 0.34-2 0.56-3.06a31.64 31.64 0 0 1 1.94-5.93 0.21 0.21 0 0 1 0.23-0.15h10.44z"/>
   <path d="m530.2 236.77v11.51h-10.75a0.22 0.22 0 0 1-0.24-0.15 30.85 30.85 0 0 1-1.83-6.08c-0.2-1.07-0.36-2.15-0.49-3.23-0.09-0.71-0.11-1.42-0.16-2.14a0.26 0.26 0 0 1 0-0.07h13.27c0.17-0.01 0.2 0.03 0.2 0.16z"/>
   <path d="m561.68 233.49h-11.29a39 39 0 0 0-2.63-12.14h10.52a0.24 0.24 0 0 1 0.25 0.15 29.61 29.61 0 0 1 2.6 7.55 31.79 31.79 0 0 1 0.55 4.23z"/>
   <path d="m561.69 236.52v0.79a28 28 0 0 1-0.37 3 29.7 29.7 0 0 1-2.07 6.78l-0.48 1.05a0.17 0.17 0 0 1-0.17 0.1h-10.52c0.12-0.36 0.25-0.71 0.37-1.06a36 36 0 0 0 1.39-5.5 35.28 35.28 0 0 0 0.49-4.1v-1c0-0.08 0-0.13 0.12-0.12h11.19z"/>
   <path d="m556.57 218.28v0.05h-10a0.22 0.22 0 0 1-0.23-0.14 33.71 33.71 0 0 0-4.91-7.26 26.32 26.32 0 0 0-3.76-3.47c-0.67-0.52-1.37-1-2.06-1.5l-0.11-0.09 0.14-0.09-0.07-0.22a29.55 29.55 0 0 1 21 12.72z"/>
   <path d="m528.27 264.48a1.1 1.1 0 0 1-0.28 0 26.91 26.91 0 0 1-3.22-0.62 28.39 28.39 0 0 1-5.73-2.13 29 29 0 0 1-5.84-3.83 28.46 28.46 0 0 1-3.52-3.51 31.09 31.09 0 0 1-2.19-3v-0.1h9.35a0.23 0.23 0 0 1 0.24 0.15 33.39 33.39 0 0 0 7.34 9.89 30.46 30.46 0 0 0 3.81 3.07z"/>
   <path d="m528.15 205.86c-0.42 0.3-0.91 0.65-1.39 1a34.32 34.32 0 0 0-4.46 4.14 31.25 31.25 0 0 0-4.67 6.67c-0.08 0.15-0.15 0.31-0.24 0.45a0.18 0.18 0 0 1-0.14 0.09h-9.49a29.31 29.31 0 0 1 20.29-12.62l-0.06 0.11z"/>
   <path d="m543 251.4a32 32 0 0 1-4.55 6.15 28.57 28.57 0 0 1-5.2 4.41v-10.56z"/>
   <path d="m530.18 251.4v10.36a29.88 29.88 0 0 1-9.35-10.36z"/>
   <path d="m542.65 218.24h-9.36v-9.88a28.12 28.12 0 0 1 5.25 4.4 32 32 0 0 1 4.11 5.48z"/>
   <path d="m530.19 208.67v9.65h-9a28.35 28.35 0 0 1 9-9.65z"/>
  </g>
  <path d="m378 200.27a25.55 25.55 0 1 1-25.24-29.27v25.54z" fill="#dbdbdb"/>
  <path d="m383.5 191.32a25.63 25.63 0 0 1-0.27 3.74l-25.23-3.74v-25.54a25.51 25.51 0 0 1 25.54 25.54z" fill="#ebebeb"/>
  <g fill="#c7c7c7">
   <rect x="365.72" y="210.17" width="27.16" height="1"/>
   <path d="m394.79 213.07a2.41 2.41 0 1 1 2.4-2.4 2.41 2.41 0 0 1-2.4 2.4zm0-3.81a1.41 1.41 0 1 0 1.4 1.41 1.41 1.41 0 0 0-1.4-1.41z"/>
   <rect x="401.69" y="209.24" width="21.1" height=".95"/>
   <rect x="401.69" y="211.14" width="11.94" height=".95"/>
  </g>
  <g fill="#ebebeb">
   <rect x="154.39" y="73.91" width="6.87" height="48.87"/>
   <rect x="166.19" y="85.74" width="6.87" height="37.04"/>
   <rect x="178" y="104.26" width="6.87" height="18.52"/>
   <rect x="189.8" y="93.68" width="6.87" height="29.1"/>
   <rect x="201.6" y="82.57" width="6.87" height="40.2"/>
   <rect x="213.4" y="76.04" width="6.87" height="46.74"/>
   <path d="m150.41 67.7 0.08 13.77v13.77l0.05 27.54-0.17-0.18q9.47 0 18.93 0h37.87l18.93 0.1-18.93 0.1h-37.87q-9.47 0-18.93 0h-0.18v-0.17l0.06-27.54v-13.77z"/>
   <path d="m148.89 70.46a5.67 5.67 0 0 1 1.52-0.2 5.23 5.23 0 0 1 1.51 0.2 5.22 5.22 0 0 1-1.51 0.19 5.28 5.28 0 0 1-1.52-0.19z"/>
   <path d="m148.89 74.64a5.66 5.66 0 0 1 1.52-0.19 5.58 5.58 0 0 1 1.51 0.19 5.23 5.23 0 0 1-1.51 0.2 5.3 5.3 0 0 1-1.52-0.2z"/>
   <path d="m148.89 78.83a5.28 5.28 0 0 1 1.52-0.19 5.22 5.22 0 0 1 1.51 0.19 5.22 5.22 0 0 1-1.51 0.19 5.28 5.28 0 0 1-1.52-0.19z"/>
   <path d="m148.89 83a5.3 5.3 0 0 1 1.52-0.2 5.23 5.23 0 0 1 1.51 0.2 5.22 5.22 0 0 1-1.51 0.19 5.66 5.66 0 0 1-1.52-0.19z"/>
   <path d="m148.89 87.2a5.28 5.28 0 0 1 1.52-0.19 5.22 5.22 0 0 1 1.51 0.19 5.23 5.23 0 0 1-1.51 0.2 5.3 5.3 0 0 1-1.52-0.2z"/>
   <path d="m148.89 91.39a5.67 5.67 0 0 1 1.52-0.2 5.23 5.23 0 0 1 1.51 0.2 5.22 5.22 0 0 1-1.51 0.19 5.28 5.28 0 0 1-1.52-0.19z"/>
   <path d="m148.89 95.57a5.66 5.66 0 0 1 1.52-0.19 5.58 5.58 0 0 1 1.51 0.19 5.23 5.23 0 0 1-1.51 0.2 5.3 5.3 0 0 1-1.52-0.2z"/>
   <path d="m148.89 99.76a5.28 5.28 0 0 1 1.52-0.19 5.22 5.22 0 0 1 1.51 0.19 5.6 5.6 0 0 1-1.51 0.2 5.67 5.67 0 0 1-1.52-0.2z"/>
   <path d="m148.89 104a5.3 5.3 0 0 1 1.52-0.2 5.23 5.23 0 0 1 1.51 0.2 5.22 5.22 0 0 1-1.51 0.19 5.28 5.28 0 0 1-1.52-0.19z"/>
   <path d="m148.89 108.13a5.28 5.28 0 0 1 1.52-0.19 5.22 5.22 0 0 1 1.51 0.19 5.23 5.23 0 0 1-1.51 0.2 5.3 5.3 0 0 1-1.52-0.2z"/>
   <path d="m148.89 112.32a5.67 5.67 0 0 1 1.52-0.2 5.6 5.6 0 0 1 1.51 0.2 5.22 5.22 0 0 1-1.51 0.19 5.28 5.28 0 0 1-1.52-0.19z"/>
   <path d="m148.89 116.51a5.3 5.3 0 0 1 1.52-0.2 5.23 5.23 0 0 1 1.51 0.2 5.58 5.58 0 0 1-1.51 0.19 5.66 5.66 0 0 1-1.52-0.19z"/>
   <path d="m103.67 341.59c0-1.91-0.12-3.81-0.13-5.69l0.28 0.28c-4.55 0.05-9.09 0.16-13.63 0.17l-13.63 0.06 0.51-0.51-0.07 11.52-0.45-0.46c2.24 0 4.48 0 6.73 0.05l6.78 0.12 13.75 0.29zm-13.37 6.11-6.85 0.12c-2.29 0.05-4.6 0-6.89 0.05h-0.46v-0.46l-0.1-11.51v-0.52h0.52l13.63 0.07c4.54 0 9.08 0.11 13.63 0.16h0.28v0.28c0 2-0.09 3.89-0.14 5.82l-0.14 5.7z"/>
   <path d="m88.46 356.12c0-1.92-0.11-3.81-0.13-5.7l0.28 0.28c-4.54 0.05-9.09 0.17-13.63 0.17l-13.63 0.07 0.51-0.52v11.52l-0.46-0.46c2.25 0 4.49 0 6.74 0.06l6.77 0.11 13.75 0.29zm-13.36 6.11-6.86 0.11c-2.29 0.05-4.59 0-6.89 0.06h-0.46v-0.46l-0.06-11.52v-0.52h0.52l13.65 0.1c4.54 0 9.09 0.12 13.63 0.17h0.28v0.28c0 2-0.09 3.9-0.13 5.82l-0.15 5.7z"/>
   <path d="m118.88 356.12c0-1.92-0.12-3.81-0.14-5.7l0.28 0.28c-4.54 0.05-9.08 0.17-13.63 0.17l-13.63 0.07 0.52-0.52-0.06 11.52-0.46-0.46c2.25 0 4.49 0 6.74 0.06l6.77 0.11 13.75 0.29zm-13.37 6.11-6.86 0.11c-2.29 0.05-4.59 0-6.89 0.06h-0.45v-12.5h0.51l13.63 0.06c4.55 0 9.09 0.12 13.63 0.17h0.29v0.28c0 2-0.08 3.9-0.13 5.82l-0.15 5.7z"/>
   <path d="m673.53 356.12c0-1.92-0.11-3.81-0.13-5.7l0.28 0.28c-4.55 0.05-9.09 0.17-13.63 0.17l-13.63 0.07 0.51-0.52v11.52l-0.46-0.46c2.24 0 4.48 0 6.74 0.06l6.77 0.11 13.75 0.29zm-13.36 6.11-6.86 0.11c-2.29 0.05-4.6 0-6.89 0.06h-0.42v-0.46l-0.06-11.52v-0.52h0.52l13.63 0.06c4.54 0 9.08 0.12 13.63 0.17h0.28v0.28c0 2-0.09 3.9-0.14 5.82l-0.14 5.7z"/>
   <path d="m673.53 72.13c0-1.92-0.11-3.82-0.13-5.7l0.28 0.28c-4.55 0.05-9.09 0.16-13.63 0.17l-13.63 0.06 0.51-0.51v11.52l-0.46-0.46c2.24 0 4.48 0 6.74 0.05l6.77 0.12 13.75 0.29zm-13.36 6.1-6.86 0.12c-2.29 0.05-4.6 0-6.89 0.06h-0.42v-0.41l-0.06-11.52v-0.52h0.52l13.63 0.07c4.54 0 9.08 0.11 13.63 0.17h0.28v0.28c0 1.95-0.09 3.9-0.14 5.82l-0.14 5.7z"/>
   <path d="m688.74 86.65c0-1.92-0.12-3.81-0.14-5.7l0.28 0.28c-4.54 0.06-9.08 0.17-13.63 0.17l-13.63 0.07 0.52-0.52-0.06 11.52-0.46-0.46c2.25 0 4.49 0 6.74 0.06l6.78 0.12 13.74 0.28zm-13.37 6.11-6.85 0.11c-2.3 0-4.6 0-6.9 0.06h-0.45v-12.49h0.51l13.63 0.06c4.55 0 9.09 0.12 13.63 0.17h0.29v0.33c0 2-0.09 3.9-0.14 5.82l-0.15 5.7z"/>
   <path d="m88.46 72.14c0-1.92-0.11-3.81-0.13-5.7l0.28 0.28c-4.54 0-9.09 0.16-13.63 0.17l-13.63 0.11 0.51-0.51v11.52l-0.46-0.46c2.25 0 4.49 0 6.74 0.06l6.77 0.11 13.7 0.28zm-13.36 6.11-6.86 0.11c-2.29 0-4.59 0-6.89 0.06h-0.46v-0.42l-0.06-11.52v-0.52h0.52l13.65 0.04c4.54 0 9.09 0.12 13.63 0.17h0.28v0.28c0 2-0.09 3.9-0.13 5.82l-0.17 5.73z"/>
   <path d="m433.42 166.26c0 1.92 0.11 3.82 0.13 5.7l-0.28-0.28c4.54-0.05 9.09-0.16 13.63-0.17l13.63-0.06-0.53 0.55 0.05-11.52 0.46 0.46c-2.25 0-4.49 0-6.74-0.05l-6.77-0.12-13.75-0.29zm13.36-6.1 6.86-0.12h6.89 0.47v12.48h-0.52l-13.63-0.07c-4.54 0-9.09-0.11-13.63-0.17h-0.22v-0.28c0-2 0.09-3.89 0.13-5.82l0.15-5.7z"/>
   <path d="m448.62 151.74c0.05 1.92 0.12 3.81 0.14 5.7l-0.28-0.28c4.54-0.06 9.08-0.17 13.63-0.17l13.63-0.07-0.52 0.52 0.06-11.52 0.46 0.46c-2.25 0-4.49 0-6.74-0.06l-6.77-0.11-13.75-0.29zm13.38-6.11 6.85-0.11c2.3-0.05 4.6 0 6.9-0.06h0.45v0.46l0.05 11.52v0.56h-0.51l-13.63-0.06c-4.55 0-9.09-0.12-13.63-0.17h-0.29v-0.28c0-2 0.08-3.9 0.13-5.82l0.15-5.7z"/>
  </g>
  <path d="m616.3 334.46s-1.27 14.28-3.14 35c-0.06 0.6-0.11 1.2-0.17 1.81-0.92 10.15-2 21.71-3.07 33.82h-64.92c4.66-36.39 8.68-67.73 9-70.4v-0.19z" fill="#37474f"/>
  <path d="m607.2 342.64q-0.62 7.5-1.26 15c-0.12 1.45-0.26 2.89-0.39 4.34q-1.87 21.53-4 43h-0.94c1.59-14.75 3.06-29.51 4.56-44.27l0.48-4.81 1.35-13.26c0-0.15 0.22-0.15 0.2 0z" fill="#263238"/>
  <path d="m631.46 334.46s-3 16.75-7.12 40.22c-0.07 0.38-0.14 0.75-0.21 1.15-1.59 9-3.35 18.9-5.17 29.21h-45.23l-1-6.8-0.2-1.34v-0.35l-0.75-5-0.3-1.88-8.48-55.21z" fill="#263238"/>
  <path d="m655.85 405.05h-68.43v-0.65-0.41c-0.34-0.19-0.68-0.38-1-0.56-3.61-2-6.78-3.5-9.39-4.66l-1.29-0.58c-1.18-0.51-2.24-0.95-3.12-1.29-2.26-0.9-3.52-1.29-3.52-1.29l-0.21-0.56c-8.9-22.66-14.26-57.19-14.76-60.4v-0.25h90.75s18.68 34.06 10.37 63c-0.85 2.46 0.35 5.08 0.6 7.65z" fill="#37474f"/>
  <g fill="#263238">
   <path d="m565.85 394a136.63 136.63 0 0 1 21.49 10 0.24166 0.24166 0 0 1-0.2 0.44c-7.24-3.1-14.62-6.08-21.68-9.58a0.48 0.48 0 0 1 0.39-0.86z"/>
   <path d="m563.55 344.31c0-0.25 0.46-0.3 0.45 0 0 8.59 0.49 16.15 1.22 24.18 0.34 3.73 3.33 24.34 9.8 22.84 1.08-0.26 1.64-1.32 1.81-2.95 0.2-2-0.54-4.37-0.86-6.32-0.72-4.32-1.3-8.64-1.67-13a118.25 118.25 0 0 1 0.27-24.38 0.21 0.21 0 0 1 0.41 0c0 11.26 0.29 22.5 2 33.66 0.81 5.36 3.51 13.43-2.1 14.25s-9.4-12.68-10.1-16.37c-1.97-10.33-2.05-21.47-1.23-31.91z"/>
   <path d="m574.85 391.85a35.17 35.17 0 0 1 1.45 4.27 9.69 9.69 0 0 1 0.61 3.51 0.25 0.25 0 0 1-0.45 0.1 12.19 12.19 0 0 1-1.5-3.42c-0.49-1.32-1-2.63-1.47-4a0.72 0.72 0 0 1 1.36-0.46z"/>
   <path d="m604.11 351.05a11.37 11.37 0 0 1 0.27-2.67 0.14 0.14 0 0 1 0.26 0 10.62 10.62 0 0 1 0.31 2.32c0.09 0.88 0.2 1.77 0.3 2.65a38 38 0 0 0 1 5.39 19.09 19.09 0 0 0 4.93 8.87 25.92 25.92 0 0 0 8.35 5.5c3.47 1.47 7.13 2 10.72 3.07a0.14 0.14 0 0 1-0.05 0.27 30.87 30.87 0 0 1-11.6-2.29 24.83 24.83 0 0 1-8.71-5.55 19.48 19.48 0 0 1-5.08-9.13 27.25 27.25 0 0 1-0.69-5.4 25.53 25.53 0 0 1-0.01-3.03z"/>
   <path d="m655.53 365.07-42.06 0.84-53.12 1.09-10.51 0.21c2.33-18.13 4-30.87 4.17-32.53v-0.25h90.75a119.19 119.19 0 0 1 10.77 30.64z"/>
   <path d="m556.05 225.81c-2.85 19.29-5.45 39.19-5.3 58.71 0.11 15.21 5.31 28.2 20.64 33.33 14.22 4.75 34.94 6.38 48.11-2.13 6.14-4 8.71-10.13 9-17.26 0.37-9.92-2.52-64.71-3.31-81.79-0.47-10.4-0.9-20.94-3.21-31.16-4.86-21.44-15.18-22.21-16.57-22.76-1.16-0.9-8.75-5.15-20.33-2.59a22.06 22.06 0 0 0-14.46 10.68c-9.62 15.98-11.89 36.9-14.57 54.97z"/>
   <path d="m608.34 165.93c11.86 6.93 13.58 20.73 15.47 33.13 2.64 17.26 5 34.58 6.48 52 0.72 8.37 1.26 16.75 1.54 25.14 0.27 8 1 16.65-0.22 24.63-2.1 13.19-14.78 18.11-26.72 18.93a0.45224 0.45224 0 0 1-0.09-0.9c6.82-0.72 13.83-1.95 19.27-6.47 7-5.79 7-14.17 7-22.52 0-14.22-0.81-28.42-2.12-42.58s-3.15-28.28-5.19-42.36c-2-13.4-2.66-30.88-15.51-38.78-0.13-0.09-0.04-0.29 0.09-0.22z"/>
   <path d="m563.61 184.49c3.28-9.93 9.45-19.33 20.39-21.3-14.2 3.14-18.94 17.91-21.93 30.34q-4.71 19.62-8 39.54c-2.09 12.77-3.93 25.67-4.86 38.58-1 13.93 0.33 27.19 7.5 39.4a0.23308 0.23308 0 0 1-0.38 0.27c-7.24-10-8.75-23-8.31-35.05 0.58-15.83 3.07-31.76 5.74-47.35 2.57-14.78 5.12-30.14 9.85-44.43z"/>
  </g>
  <path d="m582.81 242.75c-2.78 11.39-33 73.05-32.74 76.91 0.06 0.9 18.26 13.13 18.71 14.57 1.82 5.86-28.15 30.69-34.7 32.17-19.28 4.34-36.08 3.44-35.77-12.4 0.54-24.82 44.17-86.28 66.52-108 14.72-14.29 20.73-14.49 17.98-3.25z" fill="#ffc4c0"/>
  <path d="m526.74 369.34 35.46-44.47s-10.59-3.82-10.82-6.3 25.4-55.22 31-70.72 1.25-18.73-15.37-5.42-78.3 99.49-69.16 118.68c6.25 13.23 28.89 8.23 28.89 8.23z" fill="#37474f"/>
  <path d="m551.36 318.86a24.91 24.91 0 0 0-4.55 1.69c-1.49 0.65-3 1.32-4.43 2-2.89 1.34-5.78 2.73-8.57 4.27s-5.52 3.18-8.21 4.86l-1.89 1.19-0.76 0.25c-1.07 0.38-2.12 0.78-3.15 1.26a48.52 48.52 0 0 0-5.74 3.16c-0.13 0.08 0 0.28 0.13 0.21a43.39 43.39 0 0 1 6-2.81c0.27-0.1 0.55-0.19 0.82-0.3-1.08 0.73-2.14 1.47-3.14 2.28a81.14 81.14 0 0 0-7.68 6.8c-0.11 0.11 0.07 0.28 0.18 0.17 4.39-4.26 9.93-7.33 15.22-10.32 5.49-3.1 10.82-6.45 16.32-9.52 1.57-0.88 3.17-1.72 4.78-2.52a50.46 50.46 0 0 0 4.83-2.4c0.14-0.13 0.01-0.31-0.16-0.27z" fill="#263238"/>
  <path d="m556.14 311-5.32 39.75 98.88 0.69s-15-81.25-35.83-108.1c-10.43-13.42-24.39-13.07-34.27-2.81-2.15 2.24-24 33.38-27.79 46.24-3.36 11.34 4.33 24.23 4.33 24.23z" fill="#ebebeb"/>
  <g fill="#263238">
   <path d="m584.54 245.18q-3.22 8.22-6.35 16.46c-2.08 5.5-4.09 11-6 16.58s-3.88 11.2-3.05 17a36.9 36.9 0 0 0 2 8.46 46.48 46.48 0 0 0 3.65 7.91l0.07 0.14v0.14l-2.65 22.22q-1.35 11.1-2.79 22.2 1.07-11.15 2.22-22.27l2.36-22.25 0.07 0.28a47.74 47.74 0 0 1-3.79-8.06 38.82 38.82 0 0 1-2.09-8.66 24.16 24.16 0 0 1 0.63-8.92c0.73-2.87 1.63-5.68 2.57-8.47 1.88-5.59 4.06-11.06 6.25-16.52s4.51-10.86 6.9-16.24z"/>
   <path d="m570.93 266.72a1.45 1.45 0 0 0 1.07 1.68 1.33 1.33 0 0 0 1.52-1.18 1.46 1.46 0 0 0-1.07-1.68 1.33 1.33 0 0 0-1.52 1.18z"/>
   <path d="m565 282.82a1.44 1.44 0 0 0 1.07 1.68 1.33 1.33 0 0 0 1.52-1.18 1.45 1.45 0 0 0-1.08-1.68 1.32 1.32 0 0 0-1.51 1.18z"/>
   <path d="m564.27 299.24a1.46 1.46 0 0 0 1.07 1.68 1.33 1.33 0 0 0 1.52-1.18 1.45 1.45 0 0 0-1.07-1.68 1.33 1.33 0 0 0-1.52 1.18z"/>
   <path d="m568.83 312.83a1.45 1.45 0 0 0 1.08 1.68 1.32 1.32 0 0 0 1.51-1.18 1.44 1.44 0 0 0-1.07-1.68 1.33 1.33 0 0 0-1.52 1.18z"/>
   <path d="m567.06 327.66a1.45 1.45 0 0 0 1.07 1.69 1.33 1.33 0 0 0 1.52-1.18 1.46 1.46 0 0 0-1.07-1.69 1.33 1.33 0 0 0-1.52 1.18z"/>
   <path d="m565.44 342.31a1.45 1.45 0 0 0 1.07 1.68 1.33 1.33 0 0 0 1.52-1.18 1.44 1.44 0 0 0-1.07-1.68 1.33 1.33 0 0 0-1.52 1.18z"/>
  </g>
  <path d="m547.33 352.65s73.48 3.18 104.58-0.5c0 0-21.28-89.79-43.93-114-10.31-11-20.39-9.34-28.92-2.25-2.13 1.77-28.55 35.29-30.78 47-2 10.32 6.41 21.78 6.41 21.78z" fill="#ebebeb"/>
  <polygon points="587.53 257.16 583.91 248.64 577.03 255.24 578.18 261.26 584.56 261.96" fill="#ffc727"/>
  <polygon points="584.56 261.96 582.95 322.99 569.22 349.99 560.24 323.01 578.18 261.26" fill="#ffc727"/>
  <path d="m579.89 234.84s-11.31 30.42-12 38.24 2.82 37.15 2.82 37.15 17.21-31 21.38-41c6.49-15.55 7.91-37.23 7.91-37.23s6.47 3 15 14.58c11.34 15.53 31.8 73.93 38.51 106.46l-77.39 11.11-7.68-12.72-5.28 12.72-18.35-10.22 9.93-49.26s-9.6-10.45-5.57-24.57c4.33-15.37 30.72-45.26 30.72-45.26z" fill="#37474f"/>
  <g fill="#263238">
   <path d="m570.7 310.17-11.29-35.17 7.75-9.32-6.73-1.32s17.61-27.32 19.44-29.5c-0.43 1.16-11.3 30.54-12 38.21s2.65 35.51 2.83 37.1z"/>
   <path d="m595.25 268 3.34 11.79-27.86 30.41c0.52-0.94 17.27-31.12 21.37-41 6.49-15.51 7.9-37.2 7.9-37.2l3 33.8z"/>
   <path d="m554.07 268.78c1.59-2.39 3.21-4.78 4.89-7.09 0.28-0.82 0.61-1.62 0.93-2.43a25.8 25.8 0 0 1 1.72-3.4 28.74 28.74 0 0 1-1.27 3.58c-0.16 0.33-0.3 0.64-0.43 1 1.68-2.29 3.42-4.55 5.22-6.74-3.31 5.29-6.91 10.38-10.24 15.63a73 73 0 0 0-4.64 8 24.58 24.58 0 0 0-1.13 2.76c-0.66 2.33-1.92 7.17 0.67 14.56a48.14 48.14 0 0 0 2.8 7.31 0.15008 0.15008 0 0 1-0.26 0.15 67.58 67.58 0 0 1-3.36-7.4 24.72 24.72 0 0 1-1.6-7.7c-0.45-7.48 3.35-12.46 6.7-18.23z"/>
   <path d="m570.72 310.23c0 3.44-0.16 6.88-0.29 10.32s-0.34 6.87-0.5 10.3-0.42 6.87-0.67 10.3-0.52 6.86-0.87 10.28c0-3.44 0.16-6.88 0.29-10.32s0.34-6.86 0.5-10.3 0.42-6.86 0.67-10.29 0.52-6.86 0.87-10.29z"/>
   <path d="m577.6 319.16a2.23 2.23 0 1 1-2-2.22 2.24 2.24 0 0 1 2 2.22zm0 0a1.9 1.9 0 0 0-0.64-1.4 1.92 1.92 0 0 0-1.4-0.45 1.87 1.87 0 0 0 0 3.71 1.86 1.86 0 0 0 2-1.86z"/>
   <path d="m577 331.9a2.23 2.23 0 1 1-2-2.22 2.24 2.24 0 0 1 2 2.22zm0 0a1.9 1.9 0 0 0-0.64-1.4 1.92 1.92 0 0 0-1.4-0.45 1.87 1.87 0 0 0 0 3.71 1.86 1.86 0 0 0 2-1.86z"/>
   <path d="m576.32 344.65a2.23 2.23 0 0 1-3.71 1.67 2.29 2.29 0 0 1-0.74-1.67 2.23 2.23 0 1 1 4.45 0zm0 0a1.87 1.87 0 0 0-0.64-1.41 1.92 1.92 0 0 0-1.4-0.45 1.87 1.87 0 0 0 0 3.71 1.92 1.92 0 0 0 1.41-0.45 1.89 1.89 0 0 0 0.63-1.4z"/>
   <polygon points="602.99 325.45 602.35 321.89 629.61 316.95 630.48 320.47"/>
  </g>
  <path d="m599.8 235.16c-0.44 1.75-9 13-17 12.48-2.61-0.17-2.31-14.46-2.31-14.46l-0.21-1.06-3-14.85 17.56-10.84 2.54-1.43s0.57 4.12 1.22 9.25c0 0.24 0.06 0.47 0.09 0.73s0.09 0.56 0.12 0.83c0.11 0.77 0.22 1.55 0.31 2.33 0.07 0.6 0.14 1.17 0.19 1.8s0.12 1.24 0.19 1.87a99.76 99.76 0 0 1 0.3 13.35z" fill="#ffc4c0"/>
  <path d="m598.51 214.25a30.42 30.42 0 0 1-18.27 17.87l-3-14.85 17.56-10.84 2.54-1.43s0.52 4.12 1.17 9.25z" fill="#263238"/>
  <path d="m557.54 191.63c-4.47 26.22 10.72 31.86 16.38 32.82 5.13 0.87 22.72 3.18 29.88-22.43s-3.62-36-15.25-38.6-26.55 2-31.01 28.21z" fill="#ffc4c0"/>
  <g fill="#263238">
   <path d="m566.1 185.19a16.28 16.28 0 0 0 1.84-0.14 2.92 2.92 0 0 0 1.84-0.5 1 1 0 0 0 0.15-1.14 2.34 2.34 0 0 0-2.22-0.85 3.43 3.43 0 0 0-2.31 0.93 1 1 0 0 0 0.7 1.7z"/>
   <path d="m584.14 188.54a17.75 17.75 0 0 1-1.73-0.61 3 3 0 0 1-1.65-1 1 1 0 0 1 0.16-1.15 2.34 2.34 0 0 1 2.36-0.24 3.49 3.49 0 0 1 2 1.5 1 1 0 0 1-1.14 1.5z"/>
   <path d="m579.73 194.34c0-0.07 0.13 0.11 0.12 0.18-0.34 1.78-0.43 3.88 1.1 4.72v0.1c-1.95-0.59-1.82-3.34-1.22-5z"/>
   <path d="m581.62 192.72c2.92 0.23 2.24 6-0.46 5.82s-1.98-6.01 0.46-5.82z"/>
   <path d="m582.73 193.16c0.47 0.39 0.9 1 1.5 1.16s1.31-0.39 1.84-0.93c0 0 0.1 0 0.09 0.08-0.12 1.12-0.68 2.21-1.89 2.24s-1.77-1.06-1.92-2.21c-0.03-0.21 0.19-0.5 0.38-0.34z"/>
   <path d="m568.71 192.23c0-0.07-0.15 0.07-0.16 0.14-0.13 1.81-0.6 3.85-2.29 4.27 0 0-0.06 0.11 0 0.11 2.02-0.07 2.61-2.75 2.45-4.52z"/>
   <path d="m567.31 190.17c-2.87-0.53-3.73 5.25-1.07 5.74s3.47-5.29 1.07-5.74z"/>
   <path d="m566 190.37c-0.5 0.24-1 0.73-1.58 0.69s-1-0.75-1.33-1.41c0-0.07-0.09 0-0.1 0-0.2 1.1 0 2.3 1 2.67s1.79-0.5 2.22-1.56c0.15-0.15 0.04-0.48-0.21-0.39z"/>
   <path d="m576.16 208.11c-0.47 0.39-0.94 0.95-1.6 0.95a4.68 4.68 0 0 1-1.91-0.59s-0.12 0-0.08 0.09a2.42 2.42 0 0 0 2.22 1.14 1.91 1.91 0 0 0 1.53-1.49c0.04-0.11-0.1-0.16-0.16-0.1z"/>
   <path d="m569.48 200.65s-0.71 2.64-0.88 3.9c0 0.12 0.29 0.22 0.71 0.3h0.05a6.07 6.07 0 0 0 6.13-1.5c0.11-0.11 0-0.26-0.16-0.2a9.17 9.17 0 0 1-5.7 0.87c0-0.36 1.38-4.47 1.18-4.51a10.83 10.83 0 0 0-3 0.28c1.33-5.54 3.54-10.81 4.79-16.34a0.17088 0.17088 0 0 0-0.32-0.12c-2.71 5.36-4.38 11.69-5.9 17.37-0.16 0.72 2.62 0.1 3.1-0.05z"/>
   <path d="m569.76 204.52a7.23 7.23 0 0 0 2.46 2.69 3.18 3.18 0 0 0 1.91 0.46c1.47-0.12 1.73-1.4 1.66-2.55a7.79 7.79 0 0 0-0.33-1.79 9.32 9.32 0 0 1-5.7 1.19z"/>
  </g>
  <path d="m572.22 207.21a3.18 3.18 0 0 0 1.91 0.46c1.47-0.12 1.73-1.4 1.66-2.55-1.53-0.12-3.19 0.66-3.57 2.09z" fill="#ff9cbd"/>
  <g fill="#263238">
   <path d="m576.51 167.15s-1.29 3.9-0.09 6.85c2.47 6.07 9.67 4.94 12 7.42 2.14 2.32 1.08 6.8 3 9.11 2.67 3.19 6.62 2.25 7 4.32s1.32 8.63 3.87 9.61 17-41.45-17-42.12c0 0-4.54-2.18-12 1-8.21 3.55-12.47 16.46-12.47 16.46s0.18-0.17 1.41-1.13c1.72-1.34 2.43-2.64 3.69-3.51 2-1.35 3-0.74 5-2.05a22.44 22.44 0 0 0 5.59-5.96z"/>
   <path d="m577.14 165.3a23 23 0 0 0-1.31 5.13 9.6 9.6 0 0 0 0.43 5.09 7.07 7.07 0 0 0 3.71 3.27c1.58 0.69 3.35 1 5 1.76a5.29 5.29 0 0 1 2.17 1.85 7 7 0 0 1 0.85 2.66 9.42 9.42 0 0 0 1.6 4.82 5.9 5.9 0 0 0 4.44 2.18c1.71 0.1 3.63-0.26 5.25 0.59-1.69-0.72-3.47-0.21-5.26-0.18a6.37 6.37 0 0 1-4.92-2.18c-1.31-1.42-1.58-3.4-1.87-5.1a6.42 6.42 0 0 0-0.77-2.37 4.6 4.6 0 0 0-1.86-1.52c-1.52-0.75-3.31-1.06-5-1.81a9.32 9.32 0 0 1-2.34-1.47 5.59 5.59 0 0 1-1.67-2.25 9.94 9.94 0 0 1-0.23-5.4 22.43 22.43 0 0 1 1.78-5.07z"/>
   <path d="m576.39 166.81a18.54 18.54 0 0 1-1.92 4.58 8.73 8.73 0 0 1-3.63 3.54 12.57 12.57 0 0 1-2.4 0.77 4 4 0 0 0-1.91 1.12 12.19 12.19 0 0 1-1.6 1.91 5.37 5.37 0 0 1-2.23 1.13 6.06 6.06 0 0 0 1.95-1.42 13.08 13.08 0 0 0 1.36-2 4.32 4.32 0 0 1 2.19-1.44 13.42 13.42 0 0 0 2.27-0.77 9.26 9.26 0 0 0 3.43-3.23 34.52 34.52 0 0 0 2.49-4.19z"/>
  </g>
  <g fill="#ebebeb">
   <path d="m578.77 204.58a8.66 8.66 0 0 1-5.12-11.11 8.65 8.65 0 1 1 7.22 11.6 8.31 8.31 0 0 1-2.1-0.49zm-4-10.71a7.5 7.5 0 1 0 9.63-4.44 7.38 7.38 0 0 0-1.82-0.42 7.5 7.5 0 0 0-7.85 4.86z"/>
   <path d="m561 200.53c-3.46-0.78-5.43-5.2-4.39-9.85a10.3 10.3 0 0 1 3.11-5.5 5.39 5.39 0 0 1 9 2 10.36 10.36 0 0 1 0.46 6.3c-1 4.4-4.33 7.46-7.62 7.12a5.43 5.43 0 0 1-0.56-0.07zm-0.56-14.53a9.17 9.17 0 0 0-2.74 4.89c-0.9 4 0.67 7.83 3.51 8.47s5.89-2.12 6.8-6.16a9.14 9.14 0 0 0-0.39-5.59 4.6 4.6 0 0 0-3.12-2.87 2.24 2.24 0 0 0-0.44-0.07 4.76 4.76 0 0 0-3.62 1.33z"/>
   <path d="m573.71 194.51 0.92-0.7c-1-1.36-3.67-3.47-6.23-1.73l0.65 1c2.29-1.61 4.56 1.31 4.66 1.43z"/>
   <path d="m610.83 205.13 1.12-0.3c-0.14-0.52-1.41-5.12-3.83-6.1s-17.72-2.88-18.38-3l-0.14 1.14c4.43 0.57 16.33 2.19 18.08 2.9s2.82 4.09 3.15 5.36z"/>
  </g>
  <path d="m596.78 200.93s6.72-7.58 10.23-5.09-2.22 13.94-6.8 15.07a4.51 4.51 0 0 1-5.71-3.1z" fill="#ffc4c0"/>
  <path d="m605.29 199.08c0.07 0 0.07 0.1 0 0.12-3.23 0.89-5.18 3.56-6.66 6.39 1.05-1 2.37-1.52 3.77-0.25a0.1 0.1 0 0 1-0.1 0.16 2.75 2.75 0 0 0-3.14 0.61 13.22 13.22 0 0 0-1.73 2.27c-0.18 0.26-0.66 0.06-0.51-0.25v-0.06c0.42-3.94 4.08-9.07 8.37-8.99z" fill="#263238"/>
  <path d="m580.3 234.35 4.19 12 15.3-14.23 3.93 5s-15.38 23-15.42 21.94l-4.39-10.37-7.32 6.74 1.41-17.74z" fill="#ebebeb"/>
  <path d="m576.77 246.6c0.32-2.91 0.57-5.86 1-8.75 0-0.11 0.18-0.14 0.2 0 0.46 2.85-0.84 14-1 16.66 0.31-0.29 6.77-5.91 6.83-5.82 1 1.66 4.2 9.21 4.42 9.89 2.43-3.65 11.72-16.92 14.56-20.35a0.1 0.1 0 0 1 0.17 0.1c-2.18 3.88-14.49 21.76-14.66 21.7a112.55 112.55 0 0 1-4.59-11c-1.11 1.24-7.66 7.62-7.66 7.18a90.83 90.83 0 0 1 0.73-9.61z" fill="#263238"/>
  <rect x="550.82" y="346.89" width="65.98" height="3.85" fill="#c7c7c7"/>
  <rect x="550.82" y="346.89" width="40.1" height="3.85" fill="#a6a6a6"/>
  <polygon points="572.06 293.81 584 350.8 500.5 350.81 488.56 293.81" fill="#c7c7c7"/>
  <path d="m541.36 322.31a4.5 4.5 0 0 1-4.55 5.11 5.81 5.81 0 0 1-5.62-5.11 4.51 4.51 0 0 1 4.55-5.11 5.8 5.8 0 0 1 5.62 5.11z" fill="#fff"/>
  <path d="m516.09 354.69c5.91 3.2 13.06 10.85 18 11.71a5.74 5.74 0 0 0 6.21-2.86s2.21 5.07 6.8 5.11c2.37 0 4.48-3.74 4.48-3.74s1.95 4 6 3.78c3.25-0.18 4.88-3.92 4.88-3.92s3.65 3 6.91 1.72c6.62-2.52 8.1-30.49-2-35.35-4.7-2.27-4.68 4.58-4.68 4.58s-2.4-9.85-8.16-10.3-5.21 8.45-5.21 8.45-2.4-9.53-8.42-9.39c-6.26 0.14-4.19 8.95-4.19 8.95s-3.89-6.44-8.47-5.29c-7.57 1.92 1 16.52-0.76 22.59h-10z" fill="#ffc4c0"/>
  <path d="m524.6 360.16c-5.86-2.54-8.67 1.65-14.79 0.85-6.8-0.88-4.59-8.87 7.36-10.28h10.36z" fill="#ffc4c0"/>
  <g fill="#263238">
   <path d="m562.84 364.22a0.07 0.07 0 0 0 0.14 0c2.73-9.08 2.94-19.9-0.2-28.9-0.1-0.3-0.63-0.26-0.58 0.09 1.46 9.93 1.97 18.84 0.64 28.81z"/>
   <path d="m551.62 365.05c0 0.11 0.17 0.14 0.2 0 2.76-9.37 2.66-21.56-2.18-31.52-0.16-0.34-0.65-0.48-0.49-0.07 2.71 6.88 3.72 22.62 2.47 31.59z"/>
   <path d="m536.18 332.81c4.27 9.73 5 19.85 4.25 30.35 0 0.14 0.18 0.14 0.22 0 1.77-5 1.55-11.78 0.93-17a28 28 0 0 0-5.06-13.51c-0.11-0.15-0.43-0.05-0.34 0.16z"/>
  </g>
  <path d="m604.3 258.07c7.64 26.65 24 59.07 35.66 68.41 7.11 5.69 29.88 7.27 31-7.52s-46.59-67.1-55.78-75.24c-8.37-7.42-18.07-10.72-10.88 14.35z" fill="#ffc4c0"/>
  <path d="m603.48 258.65c7.72 25.12 25.13 59 36.8 68.36 7.11 5.68 29.56 6.74 30.69-8.05s-48.48-70.91-56.47-77.12c-8.83-6.84-18.69-8.15-11.02 16.81z" fill="#37474f"/>
  <path d="m659.63 330.15a30 30 0 0 1-9.31 0 25 25 0 0 1-8.56-3.13c-5.58-3.25-9.3-8.73-12.6-14.12q-5.42-8.9-10.16-18.13c-3.16-6.18-6-12.49-8.84-18.84-1.41-3.2-2.7-6.44-4-9.67s-2.62-6.42-3.78-9.69c-0.29-0.82-0.57-1.65-0.84-2.47 0-0.08-0.15 0-0.13 0 1 3.38 2 6.78 3.15 10.13 0.14 0.44 0.3 0.87 0.45 1.3-1.17-2.52-2.37-5-3.61-7.52-0.08-0.15-0.28 0-0.22 0.12 1.11 2.58 2.27 5.14 3.46 7.68l1.78 3.75q0.86 2.32 1.75 4.64 3.89 9.9 8.65 19.4t10.25 18.6c3.37 5.59 7 11.34 12.47 15.08a24 24 0 0 0 18 3.74 15.68 15.68 0 0 0 2.23-0.62 0.15 0.15 0 0 0-0.14-0.25z" fill="#263238"/>
  <path d="m654.56 221.83c-3.61-11.75-9.72-28-14.58-30.77-5.1-3-23.46-12.62-28.45-13.49s-23.31 2.7-26.82 5.56c-2.81 2.3 1.09 8.74 11.34 8.81 9.58 0.07 11.88-0.38 14.57 0.3s10.28 8 9.19 12c-0.64 2.33-6.55 5.9-10.76 4.76s-6.42-5.58-11.5-8.52-12.92-1.21-13 1 2.66 2.79 7.88 9.39c3.36 4.25 5.33 12.25 12.54 19.33 3.62 3.56 10.53 13.47 10.53 13.47z" fill="#ffc4c0"/>
  <path d="m640 191.06c-4.78-5.38-16.3-14.61-26.58-16.76-6.95-1.46-27.69 13.14-26.34 17.33s5.2 3.6 10.78 2c2-0.58 12.37-6.29 14.61-4.29 3.23 2.87 8.46 13.63 8.46 13.63z" fill="#ffc4c0"/>
  <path d="m587.34 189.86c2-5.05 7.76-8.5 13.53-11.42 0.09 0 0.17 0.09 0.08 0.14-1.47 0.74-10.65 6.9-13.53 11.35-0.03 0.07-0.1-0.01-0.08-0.07z" fill="#263238"/>
  <path d="m640 191.06c-4.78-5.38-16.3-14.61-26.58-16.76-6.95-1.46-22.5 15.44-21.14 19.64s6.93 3.65 12.69 0.54c1.86-1 7.73-6.73 10-4.73 3.22 2.87 11.1 10 11.1 10z" fill="#ffc4c0"/>
  <path d="m621.42 195.3c-0.76-0.85-1-1.14-1.81-2s-1.57-1.65-2.41-2.42a8.8 8.8 0 0 0-2.36-1.8 4.41 4.41 0 0 0-2.78-0.1c-2.09 0.54-3.79 2.2-5.42 3.52-1.82 1.47-5.67 4-8.92 4.18a6.27 6.27 0 0 1-2.62-0.27 4.07 4.07 0 0 1-1.7-1c-1.76-2.12-0.46-5.08 1-7.25 2.72-4.07 6.73-7.34 10.69-10.14q1.45-1 2.94-2a9.86 9.86 0 0 1 3.69-1.73c2.21-0.37 6.2 1.3 7.44 1.79 0.09 0 0.13-0.11 0-0.15-1.5-0.63-5.32-2.84-8.86-2.08a11 11 0 0 0-3.51 1.85c-1.16 0.73-2.3 1.51-3.41 2.31a50.32 50.32 0 0 0-6.16 5.13 21.27 21.27 0 0 0-4.72 6.16 6.28 6.28 0 0 0 0.64 6.43c1.24 1.47 3.38 1.52 4.36 1.49a10.35 10.35 0 0 0 2.81-0.48 43.8 43.8 0 0 0 5.84-2.78c1.81-1.08 3.34-2.67 5.24-3.59a3.81 3.81 0 0 1 2.92-0.28 10 10 0 0 1 2.47 1.62 30.4 30.4 0 0 1 4.3 3.7c0.39 0.43 0.66 0.25 0.34-0.11z" fill="#263238"/>
  <path d="m643.66 195.83c-1.86-2.62-6.13-14-9-17.24s-15.23-14-20-12.71c-6 1.66 2.13 11.59 6 15.59s4.62 11.76 4.62 11.76z" fill="#ffc4c0"/>
  <g fill="#263238">
   <path d="m615.11 174.7c1.36 1.25 2.62 2.67 3.85 4.05a35.55 35.55 0 0 1 3.44 4 15.8 15.8 0 0 1 2 4.82c0.22 0.83 0.38 1.67 0.52 2.52s0.23 1.87 0.4 2.79c0 0.1-0.13 0.14-0.15 0a38.79 38.79 0 0 0-1.48-4.93 21.37 21.37 0 0 0-2.33-4.78c-1.93-3-4.47-5.46-6.43-8.39-0.09-0.05 0.07-0.17 0.18-0.08z"/>
   <path d="m611.2 209.13a7.67 7.67 0 0 1-5.2-2.33c-1.31-1.18-2.54-2.45-3.86-3.62a18.36 18.36 0 0 0-4.26-3.08 21.16 21.16 0 0 0-5.69-1.5 11.34 11.34 0 0 0-5.64 0.3c-1.49 0.54-3.11 1.88-2.51 3.68a7.1 7.1 0 0 0 1.41 2.18 17.19 17.19 0 0 0 1.83 1.79c1.3 1.14 2.71 2.17 3.9 3.43a26.87 26.87 0 0 1 3.7 5.9c0.41 0.75 3 5.85 4 7.58a29.58 29.58 0 0 0 2.9 4.2 41 41 0 0 0 3.46 3.39 23.73 23.73 0 0 1 3.58 3.85c0.05 0.07 0.14 0 0.11-0.07-1.24-2.84-3.73-4.89-6-6.9-2.91-2.61-8.75-15.2-9.86-16.93-1.84-2.9-4.9-4.49-7.07-7.06-0.5-0.59-1.27-1.44-1.17-2.28a2.38 2.38 0 0 1 1.59-1.69 9.74 9.74 0 0 1 5.51-0.14 24.48 24.48 0 0 1 5.47 1.43 18.48 18.48 0 0 1 4.22 2.73c1.46 1.22 2.87 2.49 4.42 3.61a7.66 7.66 0 0 0 5.19 1.67c0.09-0.01 0.06-0.14-0.03-0.14z"/>
   <path d="m587.82 181.93c1.32-0.5 2.62-1.05 3.94-1.52v0c-1.56 0.46-3.16 0.81-4.73 1.25a4.82 4.82 0 0 0-3.17 2.13 3.54 3.54 0 0 0 0.39 3.52 9.58 9.58 0 0 0 3.1 2.55c0.06 0 0.12-0.06 0.06-0.1-1.72-1.22-4.36-3.61-2.65-5.89a6.5 6.5 0 0 1 3.06-1.94z"/>
   <path d="m592.8 194.64a8 8 0 0 1-4.21-1.14 3.3 3.3 0 0 1-1.15-1.46 3.41 3.41 0 0 1-0.19-1 1.49 1.49 0 0 1 0.23-1c0.07-0.07-0.06-0.15-0.09-0.06a4 4 0 0 1-0.29 0.54 2.54 2.54 0 0 0-0.15 0.49 2.59 2.59 0 0 0 0 1 3.28 3.28 0 0 0 1.11 1.87 5.42 5.42 0 0 0 4.76 0.9 0.070711 0.070711 0 0 0-0.02-0.14z"/>
   <path d="m626.74 196.83a76.27 76.27 0 0 1-1.34 8.89c-0.29 1.47-0.66 2.93-1.08 4.38s-1 2.85-1.48 4.25a29.76 29.76 0 0 0-1.84 8.65 18.81 18.81 0 0 0 1.73 8.6 16.25 16.25 0 0 1-2.5-8.61 26.06 26.06 0 0 1 1.67-8.99c0.5-1.43 1.08-2.8 1.51-4.2s0.85-2.84 1.25-4.27 0.73-2.89 1.07-4.35 0.67-2.89 1.01-4.35z"/>
  </g>
  <path d="m615.47 243.64c2.08 11.54 22.17 69.69 28 78.76s21.64 12.39 27.52-2.51-12.58-86.16-16.44-98.06c-2.15-6.63-39.83 17.63-39.08 21.81z" fill="#ffc4c0"/>
  <path d="m609.59 250.75 49-22.69s15.51 66 13.93 87.11c-1.14 15.14-20.28 24.75-32.71 3s-30.22-67.42-30.22-67.42z" fill="#37474f"/>
  <path d="m615.18 259.61c7.4-3.13 37.19-17 43.43-20.48 0.43-0.24 0.39-0.57-0.1-0.38-22.39 8.84-36.35 17.13-43.44 20.57-0.18 0.08-0.07 0.37 0.11 0.29z" fill="#263238"/>
  <path d="m626.74 297.19c-4.06-9.68-7.91-19.44-11.27-29.38-0.94-2.79-1.86-5.58-2.74-8.38s-1.73-5.39-2.46-8.12c1-0.59 5.57-3 6.07-3.38a0.19 0.19 0 0 0-0.16-0.32c-0.59 0.16-5.82 2.58-6.94 3.26-0.16 0.1 1.48 5.43 2.22 8s1.5 5.08 2.29 7.61q2.38 7.5 5.13 14.88 2.94 8 6.3 15.73c1.92 4.42 6.82 12.56 1.56 0.1z" fill="#263238"/>
  <path d="m498.34 405.05h-68.56q-0.34-1.85-0.66-3.66c-0.24-1.33-0.49-2.64-0.73-3.94-0.18-1.05-0.37-2.08-0.56-3.11-0.09-0.52-0.19-1-0.28-1.54-0.37-2-0.73-4-1.09-6-0.09-0.5-0.17-1-0.26-1.46a0.69 0.69 0 0 0-0.05-0.24c-0.17-1-0.36-2-0.54-3l-0.12-0.64q-0.57-3.17-1.11-6.1c0-0.32-0.1-0.63-0.17-0.94-0.24-1.35-0.47-2.66-0.71-3.93-0.13-0.66-0.23-1.3-0.35-1.94q-0.52-2.85-1-5.4c-0.05-0.22-0.07-0.43-0.13-0.64-0.05-0.33-0.11-0.67-0.18-1s-0.13-0.63-0.18-0.94c-0.23-1.23-0.43-2.39-0.62-3.48v-0.07c-0.09-0.49-0.17-0.95-0.26-1.41s-0.16-0.9-0.24-1.32-0.1-0.57-0.15-0.84c-0.08-0.38-0.14-0.76-0.21-1.11s-0.11-0.66-0.17-1-0.08-0.46-0.12-0.66q-0.19-1.1-0.36-1.95c-0.06-0.38-0.12-0.72-0.19-1s-0.06-0.36-0.08-0.52 0-0.15-0.05-0.23 0-0.22 0-0.31v-0.14-0.22a0.22 0.22 0 0 0 0-0.08v-0.1h64.79s6.37 25.87 14.34 58.92z" fill="#37474f"/>
  <path d="m439.94 405.05h-0.94q-4.81-25.5-9.55-51c0-0.16 0.2-0.23 0.24-0.07q5.17 25.52 10.25 51.07z" fill="#37474f"/>
  <path d="m471.42 346.09-2.24 23v0.06l-0.47 4.8-0.55 5.54-0.11 1.09-0.09 1-2.3 23.5h-35.88q-0.34-1.85-0.66-3.66c-0.24-1.33-0.49-2.64-0.73-3.94-0.18-1.05-0.37-2.08-0.56-3.11-0.09-0.52-0.19-1-0.28-1.54-0.37-2-0.73-4-1.09-6-0.09-0.5-0.17-1-0.26-1.46a0.69 0.69 0 0 0-0.05-0.24c-0.17-1-0.36-2-0.54-3l-0.12-0.64c-0.38-2.1-0.74-4.13-1.11-6.1 0-0.32-0.1-0.63-0.17-0.94-0.24-1.35-0.47-2.66-0.71-3.93-0.13-0.66-0.23-1.3-0.35-1.94q-0.52-2.85-1-5.4c-0.05-0.22-0.07-0.43-0.13-0.64-0.05-0.33-0.11-0.67-0.18-1s-0.11-0.64-0.18-1c-0.22-1.22-0.42-2.37-0.62-3.46v-0.07c-0.09-0.49-0.17-0.95-0.26-1.41s-0.16-0.9-0.24-1.32-0.1-0.57-0.15-0.84c-0.08-0.38-0.14-0.76-0.21-1.11s-0.11-0.66-0.17-1-0.08-0.46-0.12-0.66q-0.19-1.1-0.36-1.95c-0.06-0.38-0.12-0.72-0.19-1s-0.06-0.36-0.08-0.52 0-0.15-0.05-0.23 0-0.22 0-0.31v-0.14-0.22a0.22 0.22 0 0 0 0-0.08 0.65 0.65 0 0 0 0-0.1z" fill="#263238"/>
  <path d="m482.44 346.09c-6.21 13.79-9.21 28.45-12.2 32.26a17.29 17.29 0 0 1-2.19 2.17c-4.67 4-13.35 9.16-13.35 9.16v0.46c-0.12 4.76-0.24 9.73-0.34 14.87h-75.15c-1.29-12.61-0.11-32.53 8.26-59z" fill="#37474f"/>
  <g fill="#263238">
   <path d="m472.38 377.39c-4.43 1.81-8.4 4.6-12.33 7.28s-7.82 6-11.75 9c-0.15 0.11 0 0.36 0.16 0.25 4.14-2.64 8.47-5 12.56-7.68s8.11-5.21 11.56-8.53c0.13-0.13-0.02-0.39-0.2-0.32z"/>
   <path d="m472.94 351.81c-0.53 2.84-1.22 5.64-1.83 8.45-0.57 2.64-1 5.34-1.69 7.95a13.61 13.61 0 0 1-3.7 6.66c-1 1-2.18 1.81-3.28 2.7-0.6 0.47-1.24 0.93-1.86 1.41 0.08-0.37 0.14-0.76 0.21-1.14 0.19-1.07 0.37-2.15 0.55-3.22q0.6-3.58 1.15-7.17c0.72-4.7 1.38-9.44 2.36-14.1 0-0.18-0.25-0.26-0.29-0.07-1.17 4.61-2.47 9.17-3.49 13.82-0.5 2.28-2.28 13.54-2.36 14.33s-0.15 1.65-0.18 2.48a9.66 9.66 0 0 0 0 2.52 0.2 0.2 0 0 0 0.38 0 9.87 9.87 0 0 0 0.72-2.45c0.21-0.8 0.39-1.62 0.53-2.44 0.06-0.29 0.1-0.59 0.14-0.89 1.11-0.68 2.14-1.57 3.18-2.32s2.25-1.6 3.31-2.49a12.66 12.66 0 0 0 4-6.31 47.09 47.09 0 0 0 1.33-8.09c0.35-3.2 0.61-6.42 1.06-9.6 0.08-0.14-0.18-0.22-0.24-0.03z"/>
   <path d="m397.27 371.53c1.19-0.62 5.79 0.48 14.16-0.95a9.63 9.63 0 0 0 4.51-1.83c2.19-1.79 3.84-4.64 5.16-7.09a36.92 36.92 0 0 0 3.6-8.76c0-0.18 0.31-0.1 0.28 0.08-0.31 1.74-0.49 3.47-0.94 5.18a32.67 32.67 0 0 1-1.73 4.7c-1.27 2.84-2.75 5.89-5.29 7.81s-6.4 2.39-9.64 2.61c-1.87 0.13-9.22-0.06-10.2-1.11a0.41 0.41 0 0 1 0.09-0.64z"/>
  </g>
  <path d="m383.15 353.39h101.47c0.46-4.17-13-93-32.68-121.54-2.23-3.24-20.25-5.6-27.27 2.46-37.16 42.69-42.42 118.06-41.52 119.08z" fill="#ebebeb"/>
  <path d="m454.53 239.22c3.11 8 14.81 36.21 21.17 56.43 4.27 13.57 2.62 22.78 3.55 25.77 0 0-29-8.18-36.26-8.2-11.19 0-29.14 23.35-24.74 26.28 6.92 4.6 39.92 20.26 66.27 25.18 14.33 2.67 41.31-15.53 39.18-30-3-20.31-39.7-73.86-53.67-89-7.25-7.94-19.28-16.26-15.5-6.46z" fill="#d3766a"/>
  <path d="m527.45 338.06c-0.67 14.63-12.84 31.22-30.16 31.84-18.33 0.66-74.45-18.22-74.45-18.22l21.35-41.13s34.1 10.5 35.05 10.86c-0.33-1.09-6.27-33.51-10.38-45-0.22-0.63-0.48-1.28-0.72-2-1.18-3.18-2.81-7.37-4.6-11.9l-3.08-7.72c-4.52-11.21-8.92-21.89-8.92-21.89 6.3 1 12.51 4.34 22.71 15.05s54.32 65.97 53.2 90.11z" fill="#ebebeb"/>
  <g fill="#263238">
   <path d="m437.07 342.78 4.6-8.72c1.5-2.85 3-5.68 4.55-8.52a97.13 97.13 0 0 0 4.53-8.93c0-0.05-0.06-0.1-0.1-0.05a74.09 74.09 0 0 0-5.08 8.08c-1.64 2.85-3.23 5.73-4.81 8.61s-3 5.69-4.51 8.55a73.48 73.48 0 0 0-4.13 9.14c0 0.13 0.13 0.25 0.22 0.13a86.88 86.88 0 0 0 4.73-8.29z"/>
   <path d="m490.67 327.48-11.42-6.06c-0.33-1.09-6.27-33.51-10.38-45-0.22-0.63-0.48-1.28-0.72-2-1.15-3.15 22.52 53.06 22.52 53.06z"/>
   <path d="m500.11 332.5a93.16 93.16 0 0 0-10-6.43q-2.58-1.47-5.28-2.68c-1.92-0.86-3.95-1.48-5.86-2.34-0.14-0.07-0.25 0.16-0.1 0.22 1.78 0.81 3.47 1.93 5.19 2.87s3.58 1.93 5.4 2.86c3.55 1.83 7.05 3.77 10.58 5.64a0.08 0.08 0 0 0 0.07-0.14z"/>
  </g>
  <path d="m494.51 328.69c-2.86 0-19.59-7.45-22.11-5.08-15.34 14.47-20.2 11.56-23.46 13.44-25.3 14.55-59.07 31.65-71.13 31.76-18.28 0.14-25.56-15.2-22.52-29.7 6-28.65 44.66-84.53 62.15-99.38 9.27-7.86 8.54 4 4.7 16.89-2.25 7.55-6.18 18.79-10.2 29.82-3.55 9.82-13 34.92-13.13 35.51v0.07c0 0.07 0.05 0.08 0.2 0 0.8-0.15 22.43-10.34 44.18-15.94 7.67-2 23.63-4.78 29.35-2.23 3.4 1.52 3.46 3.55 3.46 3.55a8.38 8.38 0 0 1 5.61 2.12 8.17 8.17 0 0 1 2.5 3.8 8.58 8.58 0 0 1 4.54 2.14 16.86 16.86 0 0 1 2.86 5.53c4 1.12 3 7.7 3 7.7z" fill="#d3766a"/>
  <g fill="#263238">
   <path d="m469.53 306.84a43.55 43.55 0 0 0-6.82 0.77c-0.15 0-0.15 0.26 0 0.25 2.22-0.25 4.47-0.3 6.71-0.37s4.48-0.12 6.7-0.08a36.49 36.49 0 0 0-6.59-0.57z"/>
   <path d="m484 313.23a27.66 27.66 0 0 0-12.09-1.07c-0.16 0-0.15 0.26 0 0.25a47 47 0 0 1 12.07 0.91c0.07 0 0.07-0.08 0.02-0.09z"/>
   <path d="m491.42 320.86a27.09 27.09 0 0 0-11.42-2.14c-0.15 0-0.2 0.22 0 0.24a66.11 66.11 0 0 1 11.37 2.04 0.09 0.09 0 0 0 0.05-0.14z"/>
   <path d="m442.1 306.38a54.82 54.82 0 0 0-5.65 1.26c-2 0.49-4 1-5.89 1.67a111.54 111.54 0 0 0-11.37 4.51c-0.15 0.07-0.07 0.29 0.08 0.23q5.69-2 11.44-3.77c1.88-0.59 3.75-1.22 5.63-1.84s3.92-1.1 5.82-1.82c0.12-0.05 0.08-0.26-0.06-0.24z"/>
  </g>
  <path d="m427 310.48a21.38 21.38 0 0 1 5.81-1.36l22.75 38.43s-62.69 22.56-75.56 23.88-27.51-8.81-27.76-25c-0.34-22.71 36.68-77.24 55.31-98.33 8.54-9.66 18.49-16.68 21-15.09 3 1.87-2.45 14-5.32 23.08-5.23 16.77-24.23 65.98-24.23 65.98s23.21-9.97 28-11.59z" fill="#ebebeb"/>
  <g fill="#263238">
   <path d="m432.58 309.09c-3.53 0.21-18.79 5.52-26.28 8.73a130.34 130.34 0 0 0-21.37 11.55c-3.81 2.57-7.42 5.37-11 8.26-0.13 0.1 0 0.3 0.14 0.2a226.93 226.93 0 0 1 42.53-23.13c4.28-1.66 11.62-4.16 15.8-5.25 1.18-0.31 0.29-0.37 0.18-0.36z"/>
   <path d="m417.56 275.49c-1 1.54-1.93 3.07-2.74 4.69a2.4 2.4 0 0 0-0.11 0.23q1.82-5.54 3.46-11.11c0.07-0.23-0.31-0.35-0.4-0.13-5.38 13.64-10.38 27.45-15.23 41.29-1.36 3.87-2.55 7.78-3.78 11.69 0 0.13 0.18 0.2 0.24 0.08 1.48-3.36 3-6.69 4.32-10.1s2.61-6.85 3.89-10.29q3.33-9 6.38-18.13c0.64-1.07 1.29-2.13 1.89-3.21 0.89-1.58 1.61-3.24 2.34-4.89 0.09-0.17-0.17-0.28-0.26-0.12z"/>
   <path d="m440.29 339.18-5-8.52q-2.43-4.16-4.83-8.36a97.77 97.77 0 0 0-5.19-8.55 0.06 0.06 0 0 0-0.1 0.05 75.52 75.52 0 0 0 4.18 8.58c1.56 2.9 3.16 5.77 4.77 8.64s3.22 5.58 4.88 8.34a74.2 74.2 0 0 0 5.58 8.33c0.08 0.1 0.28 0 0.22-0.11a83.94 83.94 0 0 0-4.51-8.4z"/>
   <path d="m456.45 347.63c-1.89-3.73-4.82-7.38-7-10.92-0.08-0.14-0.28 0-0.2 0.14 2 3.32 3.78 6.9 5.67 10.28-8.61 3.55-17.75 6.72-26.53 9.83-9 3.19-18.08 6.22-27.27 8.87-5.13 1.48-10.28 3.09-15.45 4.44-0.32 0.09-0.24 0.35 0.09 0.29a234.47 234.47 0 0 0 27.44-7.3c9.18-2.91 18.24-6.16 27.26-9.53 5.08-1.9 16.14-5.8 15.99-6.1z"/>
  </g>
  <path d="m436.62 284s7.53-5.71 3.22-10.53-10.83 2-10.83 2z" fill="#d3766a"/>
  <rect transform="rotate(228.17 408.32 301.66)" x="402.63" y="268.42" width="11.4" height="66.46" fill="#ffc727"/>
  <rect transform="rotate(228.17 432.37 280.15)" x="425.72" y="278.82" width="13.31" height="2.64" fill="#37474f"/>
  <rect transform="rotate(228.17 430.2 282.09)" x="423.54" y="280.76" width="13.31" height="2.64" fill="#37474f"/>
  <path d="m379.77 319.56-3.26 8.67-1.08 2.86 3-0.75 9-2.27 0.46-2-2 0.26 0.46-2-2 0.27 0.49-1.95-2 0.25 0.48-2s-2 0.25-2 0.24l0.48-1.94s-2 0.37-2.03 0.36z" fill="#fff"/>
  <polygon points="378.4 330.34 376.51 328.23 375.43 331.08" fill="#37474f"/>
  <path d="m441.52 306.41a307.81 307.81 0 0 0-31.52 10.4l-0.46 0.17c-5.37 2.11-8.7 3.68-9.5 3.81a1.26 1.26 0 0 1-0.17-0.11 7.08 7.08 0 0 0-1.66-0.92c-1.52-0.54-16.08-2.36-15.71-6.87s6.29-4.19 7.16-4.12c-0.95-0.21-8.85-2.06-6.27-6 1.81-2.8 9.64-2.39 10.43-2.35-0.8-0.27-8.06-2.63-5.56-6.66 1.79-2.89 10.53-2.51 11.53-2.34-0.81-0.31-7.29-1.39-4.26-4.87 2.09-2.42 18.55 0 25.86 3.69 10.85 5.41 20.13 16.17 20.13 16.17z" fill="#d3766a"/>
  <g fill="#263238">
   <path d="m410 316.81-0.46 0.17c-2.52-2-12.08-7-19.59-8-0.46-0.06-0.49-0.33 0-0.31 9.24 0.44 17.58 5.9 20.05 8.14z"/>
   <path d="m394.15 300.69c10.36 2.06 15.05 4.35 24 10 0.12 0.08 0.26-0.11 0.14-0.2-8.3-6.21-13.47-9.29-24-10.07-0.53-0.03-0.62 0.18-0.14 0.27z"/>
   <path d="m400.08 291.61c9.95 2.65 15.19 4.94 23.19 11.42 0.19 0.15 0.43-0.08 0.25-0.25-7.55-7.32-14.07-10.22-23.34-11.44-0.64-0.08-0.72 0.11-0.1 0.27z"/>
  </g>
  <path d="m450.57 249.7c-5.89 2.12-17.33-5.95-22.28-13-0.34-0.48-0.17-6-0.27-12.69-0.08-4.06-0.27-8.59-0.73-12.7l26.53 3.34s-1.56 8.92-0.7 16.09a9.29 9.29 0 0 0 0.36 1.67c0 0.08 0 0.17 0.07 0.27 0.89 3.17 2.71 14.97-2.98 17.02z" fill="#d3766a"/>
  <path d="m453.56 232.7a5.52 5.52 0 0 1 0.14 0.58c-15.89-0.67-21.93-7.66-25.84-14.36-0.12-2.55-0.29-5.14-0.58-7.59l26.54 3.34s-1.57 8.92-0.7 16.09a8.67 8.67 0 0 0 0.37 1.67c0.02 0.07 0.04 0.17 0.07 0.27z" fill="#263238"/>
  <path d="m416.41 183.5c-1.41 9.5 7.25 35.15 14.59 40.06 10.65 7.13 26.16 5.68 31.73-6.69 5.4-12-6.52-45.17-14.55-49.44-11.82-6.28-29.64 2-31.77 16.07z" fill="#d3766a"/>
  <g fill="#263238">
   <path d="m440.94 195c0-0.06-0.11 0.12-0.08 0.19 0.63 1.71 1.07 3.78-0.31 4.88 0 0 0 0.11 0.05 0.09 1.82-0.88 1.21-3.61 0.34-5.16z"/>
   <path d="m438.79 193.74c-2.85 0.71-1.2 6.36 1.44 5.7s0.95-6.3-1.44-5.7z"/>
   <path d="m451.59 191.82c0-0.07 0.16 0 0.18 0.12 0.45 1.76 1.27 3.71 3 3.83 0 0 0.07 0.09 0 0.1-1.98 0.29-3.04-2.3-3.18-4.05z"/>
   <path d="m452.62 189.54c2.75-1 4.61 4.55 2.06 5.5s-4.37-4.64-2.06-5.5z"/>
   <path d="m435.81 191.8a22.65 22.65 0 0 0 2-1.4c0.74-0.55 1.4-0.91 1.73-1.82a1.25 1.25 0 0 0-0.62-1.39 3.1 3.1 0 0 0-3.07 0.56 4.54 4.54 0 0 0-2 2.61 1.32 1.32 0 0 0 1.96 1.44z"/>
   <path d="m454 186.06c-0.82 0.1-1.59 0.05-2.41 0.07a3.86 3.86 0 0 1-2.48-0.4 1.24 1.24 0 0 1-0.35-1.47 3.08 3.08 0 0 1 2.78-1.42 4.54 4.54 0 0 1 3.15 0.89 1.33 1.33 0 0 1-0.69 2.33z"/>
   <path d="m445 211.25a2.77 2.77 0 0 0 1.77 0.6 4.76 4.76 0 0 0 1.75-1 0.07 0.07 0 0 1 0.11 0.07 2.46 2.46 0 0 1-1.95 1.59 1.91 1.91 0 0 1-1.82-1.14c-0.07-0.09 0.05-0.16 0.14-0.12z"/>
   <path d="m445.31 205.47a6.18 6.18 0 0 0 4.74 1.5 7.56 7.56 0 0 0 2.18-0.53 2.27 2.27 0 0 0 0.39-0.16c0.12-0.06 0.24-0.1 0.37-0.17a0.45 0.45 0 0 0 0.23-0.5 0.87 0.87 0 0 0-0.07-0.17v-0.15c-0.35-1.36-1.08-3.37-1.08-3.37 0.56 0.1 3.4 0.5 3.16-0.19-2.05-5.72-4.32-12.09-7.56-17.36a0.17007 0.17007 0 0 0-0.31 0.14c1.75 5.58 4.46 10.82 6.31 16.39a10.86 10.86 0 0 0-3.06 0c-0.18 0.11 1.47 3.86 1.58 4.48a0.24 0.24 0 0 1 0 0.07c-2.18 1-4.09 0.76-6.73-0.12-0.2-0.12-0.3 0.04-0.15 0.14z"/>
   <path d="m452.8 172.29c-0.52-0.69-1.95-2.66-3-2.41-1.32 0.28-1.64 2.65-3.91 3.94-3.19 1.85-10.11-0.25-14.61 2.12-5.82 3.07-6.67 10.61-4.64 19.07s-3.88 14.52-7.18 9.45c-0.11-0.19-0.31-0.51-0.62-1-2.78-7.91-4.49-16.08-3.86-20.67 2-14.38 20.06-23.11 32.21-16.85 1.75 0.91 3.72 3.36 5.61 6.35z"/>
  </g>
  <g fill="#ffc727">
   <path d="m457.75 175.51s-10.68-24-32.16-14.65-11.18 33.53-11.18 33.53z"/>
   <rect transform="rotate(156.46 436.08 184.95)" x="410.69" y="183.09" width="50.79" height="3.72"/>
   <polygon points="423.11 160.47 435.68 183.09 445.38 178.87 432.81 156.25"/>
  </g>
  <polygon points="423.11 160.47 435.68 183.09 445.38 178.87 432.81 156.25" opacity=".1"/>
  <path d="m425.2 204.13s-7.36-7.49-10.86-4.73 3 14.32 7.84 15.25a4.67 4.67 0 0 0 5.75-3.51z" fill="#d3766a"/>
  <path d="m416.3 202.67c-0.08 0-0.07 0.11 0 0.12 3.39 0.76 5.55 3.42 7.23 6.27-1.14-1-2.53-1.44-3.91-0.06-0.07 0.07 0 0.19 0.11 0.16a2.86 2.86 0 0 1 3.28 0.46 13.49 13.49 0 0 1 1.92 2.27c0.19 0.26 0.68 0 0.51-0.29v-0.07c-0.64-4.05-4.73-9.18-9.14-8.86z" fill="#263238"/>
  <path d="m453.48 232.14-5.65 15.61-19.75-18.63-5.15 6.42s19.77 30 19.83 28.65l5.81-13.43 9.45 8.83-1.61-23z" fill="#ffc727"/>
  <path d="m457.86 248.17c-0.39-3.79-0.68-7.61-1.25-11.38 0-0.13-0.23-0.19-0.26 0-0.62 3.7 1 18.18 1.08 21.67-0.4-0.38-8.75-7.75-8.82-7.63-1.29 2.15-5.55 11.93-5.83 12.81-3.13-4.77-15.08-22.1-18.74-26.59a0.13038 0.13038 0 0 0-0.22 0.14c2.8 5.06 18.62 28.41 18.85 28.33a147.84 147.84 0 0 0 6.06-14.19c1.43 1.62 9.89 10 9.9 9.41a118.74 118.74 0 0 0-0.77-12.57z" fill="#263238"/>
  <path d="m143.53 331s1.33 15 3.3 36.68l0.18 1.89c1 10.65 2.06 22.78 3.22 35.49h68.13c-4.89-38.18-9.11-71.07-9.46-73.87v-0.2z" fill="#a6a6a6"/>
  <path d="m153.08 339.57c0.43 5.24 0.88 10.49 1.32 15.73 0.13 1.52 0.28 3 0.41 4.54 1.32 15.06 2.71 30.12 4.26 45.16h1c-1.67-15.48-3.22-31-4.78-46.46q-0.26-2.51-0.51-5-0.7-7-1.42-13.91c-0.05-0.22-0.3-0.22-0.28-0.06z" fill="#263238"/>
  <path d="m127.63 331s3.11 17.58 7.47 42.2c0.08 0.4 0.15 0.79 0.22 1.21 1.66 9.42 3.51 19.82 5.42 30.64h47.46l1.08-7.14 0.21-1.4 0.06-0.37 0.78-5.24 0.31-2 8.8-57.94z" fill="#263238"/>
  <path d="m109.38 405.05h64.46v-0.68-0.43c0.35-0.2 0.71-0.4 1.08-0.59 3.79-2.07 7.12-3.67 9.86-4.89l1.35-0.61c1.24-0.54 2.35-1 3.27-1.35 2.37-0.94 3.69-1.36 3.69-1.36 0.08-0.2 0.15-0.39 0.22-0.58 9.34-23.78 15-60 15.5-63.38v-0.26h-91.96s-3.5 34.08-7.47 74.13z" fill="#a6a6a6"/>
  <g fill="#263238">
   <path d="m118.4 405.05h0.86c1.68-21.34 3.25-42.69 4.89-64.05 0-0.34-0.52-0.34-0.54 0q-2.53 32-5.21 64.05z"/>
   <path d="m196.47 393.44a143.84 143.84 0 0 0-22.55 10.5 0.25283 0.25283 0 0 0 0.21 0.46c7.6-3.26 15.35-6.38 22.75-10.06a0.49449 0.49449 0 0 0-0.41-0.9z"/>
   <path d="m198.89 341.32c0-0.26-0.49-0.32-0.48 0a253.74 253.74 0 0 1-1.28 25.38c-0.35 3.91-3.5 25.53-10.28 24-1.14-0.27-1.72-1.38-1.9-3.1-0.21-2.06 0.57-4.58 0.91-6.63 0.75-4.52 1.35-9.06 1.74-13.64a124.26 124.26 0 0 0-0.27-25.58 0.22 0.22 0 0 0-0.44 0c0 11.81-0.3 23.61-2.07 35.31-0.85 5.62-3.68 14.09 2.2 15s9.87-13.31 10.6-17.18c2.04-10.88 2.12-22.61 1.27-33.56z"/>
   <path d="m187 391.2a36.94 36.94 0 0 0-1.53 4.48 10.2 10.2 0 0 0-0.63 3.69 0.27 0.27 0 0 0 0.47 0.1 13.3 13.3 0 0 0 1.58-3.59c0.51-1.38 1.06-2.76 1.53-4.16a0.76 0.76 0 0 0-1.42-0.52z"/>
   <path d="m156.33 348.39a11.94 11.94 0 0 0-0.29-2.8 0.14 0.14 0 0 0-0.27 0 10.94 10.94 0 0 0-0.32 2.43c-0.1 0.93-0.22 1.85-0.32 2.79a41.75 41.75 0 0 1-1 5.65 20.07 20.07 0 0 1-5.18 9.3 27 27 0 0 1-8.76 5.77c-3.65 1.55-7.48 2.12-11.25 3.23-0.15 0-0.11 0.27 0.05 0.28a32.43 32.43 0 0 0 12.17-2.4 26 26 0 0 0 9.14-5.83 20.35 20.35 0 0 0 5.33-9.58 28.4 28.4 0 0 0 0.73-5.66 28.09 28.09 0 0 0-0.03-3.18z"/>
  </g>
  <path d="m273.52 202.61c0-5.08-2-28.33-4-34.68s-9.1-24.19-14.12-23.14-3.36 6.43-3.36 6.43-4.19-7.06-9.14-5.55-2.09 9.81-2.09 9.81-4.84-6.93-9.67-5.07-0.56 9.72-0.56 9.72-4.12-6.55-7.46-3.34c-4 3.86 4.95 15.07 6.64 22.25 0.39 1.63 5.43 33.56 5.43 33.56z" fill="#ad6359"/>
  <g fill="#263238">
   <path d="m230.22 159.45c6.57 8.26 8 13 9.15 23.35 0 0.2 0.33 0.21 0.32 0-0.18-10.22-1.14-16.44-9.09-23.69-0.39-0.35-0.7-0.05-0.38 0.34z"/>
   <path d="m240.26 154.84c6.08 9.17 7.69 14.31 9.68 25 0 0.15 0.28 0.12 0.27 0-1.06-10.69-2.16-16.88-9.44-25.25-0.33-0.37-0.77-0.17-0.51 0.25z"/>
   <path d="m252.12 151.77c5.24 9.31 7.26 14.87 7.84 25.54a0.2 0.2 0 0 0 0.39 0c0.46-10.94-2-17.89-7.93-25.67-0.42-0.53-0.63-0.46-0.3 0.13z"/>
  </g>
  <path d="m235.78 219.22s-10-8.65-13.56-13.42-10.28-27.43-5.47-29.16c6.21-2.24 12.67 10.08 15 16.53 0 0 14.37-5.18 20.91 2.66s-16.88 23.39-16.88 23.39z" fill="#ad6359"/>
  <path d="m218.66 176.58c7.13 2 9.7 10.72 12.47 16.8a0.61 0.61 0 0 0 1 0.22c6.17-1.77 15.38-2.47 20.63 1.81 0.15 0.12 0.35-0.08 0.21-0.22-5-5.35-14.11-5.41-20.74-3-2.74-6.28-5.7-14.85-13.53-15.64-0.07-0.04-0.09 0.02-0.04 0.03z" fill="#263238"/>
  <path d="m178.3 251.55c6.8 10.69 44.81 42.91 77 47.41 4.36 0.61 20.69-3.57 23.67-14.65 5.31-19.73-1.3-59.71-5.46-83.76-0.81-4.69-44.27 6.87-42.82 14 1.59 7.93 7.54 37.09 6.83 37.45-2.58 1.32-31.12-9.59-49.7-12.78-13.2-2.22-14.75 4.1-9.52 12.33z" fill="#ad6359"/>
  <path d="m280.16 212.25-49.52 12.94s5.63 25.35 4.73 25.23-36.5-11.41-50.08-12.18-13.33 5.18-6 16 53.83 46.34 76 45.39c11.27-0.48 21.45-8.14 23.34-11.67 5.86-10.96 1.53-75.71 1.53-75.71z" fill="#455a64"/>
  <path d="m175.86 245.13c-0.45-0.18-0.92-0.34-1.4-0.48 0 0.26 0.13 0.55 0.21 0.84 0.29 0.15 0.59 0.27 0.89 0.4a11.23 11.23 0 0 0 3.06 0.81 11.16 11.16 0 0 0-2.76-1.57zm7.8 14.17a9.23 9.23 0 0 0-1.15-1.79c0 0.25 0.06 0.48 0.11 0.73 0.38 0.35 0.67 0.7 1.04 1.06zm32.22-14.3a2 2 0 0 0-0.1-0.21l-0.95-0.26c0.09 0.26 0.19 0.53 0.3 0.78a11 11 0 0 0 1.59 2.75 11.28 11.28 0 0 0-0.84-3.06zm9.87 9.57a11 11 0 0 0-0.81 3.07 11.16 11.16 0 0 0 1.57-2.76 11.28 11.28 0 0 0 0.81-3.08 11.59 11.59 0 0 0-1.57 2.75zm45.07 2a10.79 10.79 0 0 0-0.81 3.06 12.17 12.17 0 0 0 2.38-5.83 11.4 11.4 0 0 0-1.57 2.76zm-39.71-29.31c0 0.17 0.07 0.35 0.11 0.54s0.11 0.51 0.17 0.8a3.73 3.73 0 0 0 0.16-0.35 11.23 11.23 0 0 0 0.81-3.06 9.15 9.15 0 0 0-1.25 2.06zm15.64 4.21a11.3 11.3 0 0 0-0.81 3.07 11.16 11.16 0 0 0 1.57-2.76 10.93 10.93 0 0 0 0.81-3.08 11.74 11.74 0 0 0-1.57 2.76zm-44.88 21.23a10.94 10.94 0 0 0-0.82 3.08 11 11 0 0 0 1.57-2.76 10.69 10.69 0 0 0 0.81-3.08 11.12 11.12 0 0 0-1.56 2.75zm35.13 40.76a11.5 11.5 0 0 0-3.06-0.81 10.89 10.89 0 0 0 2.76 1.58 11.57 11.57 0 0 0 3.07 0.81 11.44 11.44 0 0 0-2.77-1.58zm-22.22-29.46a10.6 10.6 0 0 0-3.08-0.81 11.55 11.55 0 0 0 2.77 1.57 11.21 11.21 0 0 0 3.07 0.81 11.16 11.16 0 0 0-2.76-1.57zm28.69 3.05a11.21 11.21 0 0 0-3.07-0.81 11.2 11.2 0 0 0 2.76 1.57 11 11 0 0 0 3.07 0.81 11.16 11.16 0 0 0-2.76-1.56zm-7.15-24.49a12.29 12.29 0 0 0-2.16-0.67c0 0.19 0.08 0.38 0.11 0.58a14.45 14.45 0 0 0 1.72 0.85 11.28 11.28 0 0 0 3.08 0.81 11 11 0 0 0-2.75-1.56zm33.95-11.74a11.23 11.23 0 0 0-3.06-0.81 11.28 11.28 0 0 0 2.75 1.57 11.4 11.4 0 0 0 3.07 0.81 11.49 11.49 0 0 0-2.76-1.56zm4.26 46.55a10.6 10.6 0 0 0-3.08-0.81 12.37 12.37 0 0 0 5.84 2.38 11.16 11.16 0 0 0-2.76-1.56zm-14.8-9a11.54 11.54 0 0 0-1.6-2.75 12.19 12.19 0 0 0 2.44 5.81 11.18 11.18 0 0 0-0.84-3.04zm1.51-25.33a11.4 11.4 0 0 0-1.6-2.75 11.18 11.18 0 0 0 0.84 3.06 11.35 11.35 0 0 0 1.6 2.75 10.84 10.84 0 0 0-0.84-3.04zm16.53-23.84a11.66 11.66 0 0 0-1.6-2.76 11.15 11.15 0 0 0 0.84 3.07 10.91 10.91 0 0 0 1.6 2.75 11.18 11.18 0 0 0-0.84-3.04zm-29.12 64.86a11.54 11.54 0 0 0-1.6-2.74 11.18 11.18 0 0 0 0.84 3.06 10.74 10.74 0 0 0 1.6 2.75 11.25 11.25 0 0 0-0.84-3.05zm15.84 5.75a11.64 11.64 0 0 0-2.76 1.61 11.26 11.26 0 0 0 3.07-0.85 10.56 10.56 0 0 0 2.74-1.6 11.58 11.58 0 0 0-3.05 0.86zm15.74-22.81a7.67 7.67 0 0 0 1.3-0.25v-0.66a10 10 0 0 0-1.3 0.91zm-52 10.68a11.4 11.4 0 0 0-2.75 1.6 10.82 10.82 0 0 0 3.07-0.85 11.12 11.12 0 0 0 2.74-1.59 11 11 0 0 0-3.02 0.82zm19.57-26a11.74 11.74 0 0 0-2.75 1.6 11.36 11.36 0 0 0 3.07-0.85 10.81 10.81 0 0 0 2.74-1.59 10.93 10.93 0 0 0-3.02 0.79zm29.76-9.55a11.31 11.31 0 0 0-2.75 1.59 10.58 10.58 0 0 0 3.07-0.84 11.12 11.12 0 0 0 2.74-1.59 10.84 10.84 0 0 0-3.02 0.79zm-19.77-20.94a11.49 11.49 0 0 0-2.74 1.59 11.18 11.18 0 0 0 3.06-0.84 11 11 0 0 0 2.75-1.6 10.68 10.68 0 0 0-3.03 0.8zm-58.72 51.33c0.19 0.14 0.37 0.29 0.57 0.43a8.84 8.84 0 0 0 1.11-0.77 7.7 7.7 0 0 0-1.64 0.29zm-6.55-30.84a11.84 11.84 0 0 0-2.74 1.59 10.51 10.51 0 0 0 3.06-0.84 11 11 0 0 0 2.75-1.59 10.67 10.67 0 0 0-3.03 0.79z" fill="#37474f"/>
  <g fill="#263238">
   <path d="m235 250.66a78.1 78.1 0 0 0 2.47 11.23c1 3.74 2.34 7.35 3.61 11 0 0.09 0.16 0 0.13-0.05-1.12-3.67-2-7.43-3-11.14s-1.7-7.48-2.82-11.14c-0.04-0.24-0.39-0.14-0.39 0.1z"/>
   <path d="m234 234.49c5.73-1.69 11.54-3.06 17.36-4.43s11.64-2.73 17.49-3.95c3.31-0.69 6.62-1.4 9.95-2 0.09 0 0.13 0.13 0 0.15-5.71 1.69-11.52 3.09-17.32 4.49s-11.64 2.74-17.48 4c-3.3 0.72-6.62 1.39-10 2-0.09 0.06-0.18-0.21 0-0.26z"/>
   <path d="m218.82 285.9c-18.07-10.92-35.31-25.34-39.53-31.61-6.65-9.86-7.48-15.67 2.56-16.09z"/>
  </g>
  <path d="m213.52 354.67-105.43 4.47s13.26-83.4 52.17-120.91c4.81-4.63 16.13-4.11 23.64-0.76 2.68 1.19 12.66 14 15.88 26.33s14.02 90.48 13.74 90.87z" fill="#455a64"/>
  <path d="m167.79 259.54a11.3 11.3 0 0 1-0.81 3.07 11.16 11.16 0 0 1-1.57 2.76 10.62 10.62 0 0 1 0.81-3.07 11.16 11.16 0 0 1 1.57-2.76zm-12.51 42.59a11.3 11.3 0 0 0-0.81 3.07 10.85 10.85 0 0 0 1.57-2.76 11.3 11.3 0 0 0 0.81-3.07 11.34 11.34 0 0 0-1.57 2.76zm-33.61 16.48a11.28 11.28 0 0 0-0.81 3.08 11 11 0 0 0 1.57-2.76 11.28 11.28 0 0 0 0.81-3.08 11.34 11.34 0 0 0-1.57 2.76zm26.33 25.86a10.54 10.54 0 0 0-0.81 3.07 12.26 12.26 0 0 0 2.38-5.84 11.4 11.4 0 0 0-1.57 2.77zm41.75-53.88a11 11 0 0 0-0.81 3.07 11.16 11.16 0 0 0 1.57-2.76 11.3 11.3 0 0 0 0.81-3.07 11.16 11.16 0 0 0-1.58 2.76zm15.06 28a11 11 0 0 0-0.82 3.07 10.89 10.89 0 0 0 1.58-2.76 11.3 11.3 0 0 0 0.81-3.07 10.85 10.85 0 0 0-1.58 2.74zm-32.64 22a10.79 10.79 0 0 0-0.82 3.07 11.06 11.06 0 0 0 1.58-2.76 11.28 11.28 0 0 0 0.81-3.08 10.91 10.91 0 0 0-1.58 2.76zm-34.48-54.33a10.87 10.87 0 0 0-0.82 3.07 11.06 11.06 0 0 0 1.58-2.76 11.28 11.28 0 0 0 0.81-3.08 11.08 11.08 0 0 0-1.58 2.76zm39.46-11.09a11.28 11.28 0 0 0-3.08-0.81 12.37 12.37 0 0 0 5.84 2.38 11.34 11.34 0 0 0-2.77-1.58zm8.08 33.64a11.3 11.3 0 0 0-3.07-0.81 12.17 12.17 0 0 0 5.83 2.39 11.2 11.2 0 0 0-2.77-1.59zm-60.47 38.58a11 11 0 0 0-3.07-0.81 11.16 11.16 0 0 0 2.76 1.57 11.3 11.3 0 0 0 3.07 0.81 11.16 11.16 0 0 0-2.77-1.58zm63.38 4.2a11 11 0 0 0-3.08-0.82 11.34 11.34 0 0 0 2.76 1.57l0.66 0.26h1.69a11.51 11.51 0 0 0-2.04-1.02zm-40.84-32.67a11.28 11.28 0 0 0-3.08-0.81 12.37 12.37 0 0 0 5.84 2.38 11.34 11.34 0 0 0-2.77-1.58zm28.57-73.78a10.77 10.77 0 0 0-3.07-0.81 12.26 12.26 0 0 0 5.84 2.38 11.4 11.4 0 0 0-2.78-1.58zm7.5 15.45a10.85 10.85 0 0 0 1.6 2.74 11.18 11.18 0 0 0-0.84-3.06 11.74 11.74 0 0 0-1.6-2.75 11.35 11.35 0 0 0 0.83 3.06zm20.07 77.76a11.08 11.08 0 0 0 1.6 2.75 11.15 11.15 0 0 0-0.84-3.07 11.74 11.74 0 0 0-1.6-2.75 11.25 11.25 0 0 0 0.83 3.06zm-47.72-56.83a11.16 11.16 0 0 0 1.6 2.74 11.18 11.18 0 0 0-0.84-3.06 11.4 11.4 0 0 0-1.6-2.75 11.25 11.25 0 0 0 0.83 3.06zm14.49 34a10.85 10.85 0 0 0 1.6 2.74 10.85 10.85 0 0 0-0.85-3.06 11.36 11.36 0 0 0-1.59-2.75 10.9 10.9 0 0 0 0.83 3.05zm-58.71 43.06c0 0.14 0 0.29 0.06 0.43h0.27q-0.16-0.24-0.34-0.45zm29.68-1.4a11.4 11.4 0 0 0-1.6-2.75 10.9 10.9 0 0 0 0.84 3.07c0 0.09 0.08 0.19 0.12 0.28h0.85q-0.1-0.33-0.22-0.62zm-7.09-24.08a10.85 10.85 0 0 0 1.6 2.74 10.85 10.85 0 0 0-0.85-3.06 11.18 11.18 0 0 0-1.59-2.75 11.35 11.35 0 0 0 0.83 3.05zm22.08-82.37a11.4 11.4 0 0 0 1.6 2.75 10.9 10.9 0 0 0-0.84-3.07 11.16 11.16 0 0 0-1.6-2.74 11.18 11.18 0 0 0 0.83 3.04zm31.6 78.47a10.85 10.85 0 0 0 2.74-1.6 10.85 10.85 0 0 0-3.06 0.85 11 11 0 0 0-2.75 1.59 11.35 11.35 0 0 0 3.06-0.86zm-26.53 26.56a10.74 10.74 0 0 0 2.75-1.6 11.35 11.35 0 0 0-3.07 0.84 11.48 11.48 0 0 0-2.74 1.6 11.18 11.18 0 0 0 3.05-0.86zm-47.92-21c0 0.24-0.12 0.49-0.18 0.72a8 8 0 0 0 1.4-0.94 9.72 9.72 0 0 0-1.23 0.2zm22.83-30.26a11 11 0 0 0 2.75-1.6 11.18 11.18 0 0 0-3.06 0.84 11 11 0 0 0-2.75 1.6 11.18 11.18 0 0 0 3.05-0.86zm66-4.91a10.85 10.85 0 0 0 2.74-1.6 11.18 11.18 0 0 0-3.06 0.84 11.74 11.74 0 0 0-2.75 1.6 11.35 11.35 0 0 0 3.02-0.86zm-42.65 31.91a11 11 0 0 0 2.75-1.6 11.18 11.18 0 0 0-3.06 0.84 11 11 0 0 0-2.75 1.6 11.18 11.18 0 0 0 3.01-0.86zm11.45-40.63a11.4 11.4 0 0 0 2.75-1.6 12.19 12.19 0 0 0-5.81 2.44 11.18 11.18 0 0 0 3.01-0.86zm27.05-17.15a10.74 10.74 0 0 0 2.75-1.6 11.35 11.35 0 0 0-3.07 0.84 11.16 11.16 0 0 0-2.74 1.6 11.18 11.18 0 0 0 3.06-0.84zm-50.13-7.22a11.16 11.16 0 0 0 2.74-1.6 12.3 12.3 0 0 0-5.81 2.44 11.35 11.35 0 0 0 3.11-0.84z" fill="#37474f"/>
  <path d="m162.77 255.32c-4.51 11.61-39.35 100.48-46.48 100.28-21-0.6-42.82-6.14-40.26-22.75 4-26.07 47.94-70.63 74.5-90.41 17.47-13.01 16.69 1.43 12.24 12.88z" fill="#455a64"/>
  <path d="m147.59 265.74a11.4 11.4 0 0 0-2.75 1.6 11.18 11.18 0 0 0 3.06-0.84 10.74 10.74 0 0 0 2.75-1.6 11.18 11.18 0 0 0-3.06 0.84zm-19.19 8a11.34 11.34 0 0 0-2.74 1.6 11.18 11.18 0 0 0 3.06-0.84 10.74 10.74 0 0 0 2.75-1.6 11.25 11.25 0 0 0-3.07 0.81zm-44 38.84-0.57 1a8.75 8.75 0 0 0 1.92-1.22 8.36 8.36 0 0 0-1.35 0.19zm21.38-4.58a11.16 11.16 0 0 0-2.74 1.6 11.28 11.28 0 0 0 3.06-0.84 10.74 10.74 0 0 0 2.75-1.6 11.25 11.25 0 0 0-3.07 0.84zm30.05-4.26a11.54 11.54 0 0 0-2.75 1.6 12.18 12.18 0 0 0 5.81-2.45 11.19 11.19 0 0 0-3.06 0.83zm21.09-53.33a10.85 10.85 0 0 0-1.6-2.74 11.75 11.75 0 0 0 0.84 3.06 11.4 11.4 0 0 0 1.6 2.75 11.25 11.25 0 0 0-0.84-3.09zm-75.57 88.77a11.16 11.16 0 0 0-1.6-2.74 11.18 11.18 0 0 0 0.84 3.06 10.74 10.74 0 0 0 1.6 2.75 11.25 11.25 0 0 0-0.84-3.07zm38.22-47.78a11.4 11.4 0 0 0-1.6-2.75 11.18 11.18 0 0 0 0.84 3.06 11.35 11.35 0 0 0 1.6 2.75 10.93 10.93 0 0 0-0.84-3.06zm-24.29 33.19a11.37 11.37 0 0 0-3.08-0.81 12.39 12.39 0 0 0 5.8 2.38 11.28 11.28 0 0 0-2.72-1.57zm0.27-28.12-0.41 0.53a9 9 0 0 0 1.67 0.33 8.77 8.77 0 0 0-1.26-0.86zm26.13 50.1a7.66 7.66 0 0 0 1.18 0.8c0.1-0.17 0.2-0.35 0.29-0.53a8.68 8.68 0 0 0-1.47-0.27zm15.71-93.52-0.6 0.53a8.71 8.71 0 0 0 2.23 0.5 9.93 9.93 0 0 0-1.63-1.03zm0.29 33.2a10.54 10.54 0 0 0-0.81 3.07 11.12 11.12 0 0 0 1.56-2.76 10.6 10.6 0 0 0 0.81-3.08 11.51 11.51 0 0 0-1.56 2.77zm-41.96 61.75a11.59 11.59 0 0 0-0.82 3 10.89 10.89 0 0 0 1.58-2.76 11.28 11.28 0 0 0 0.81-3.08 11.4 11.4 0 0 0-1.57 2.84zm26-29.35a10.81 10.81 0 0 0-0.82 3.06 11 11 0 0 0 1.57-2.75 10.69 10.69 0 0 0 0.81-3.08 11.36 11.36 0 0 0-1.6 2.74zm-10.21 16.74a11.68 11.68 0 0 0-2.75 1.6 10.93 10.93 0 0 0 3.06-0.84 11.08 11.08 0 0 0 2.75-1.6 11.18 11.18 0 0 0-3.1 0.81z" fill="#37474f"/>
  <path d="m152.83 278.69c2.16-4.85 4.37-9.69 6.65-14.48a0.11 0.11 0 1 1 0.2 0.09c-2.46 6.56-5.08 13.05-7.77 19.51a73 73 0 0 0 4.82-8.26 0.16 0.16 0 0 1 0.28 0.14 43.57 43.57 0 0 1-5.69 9.52c-0.76 1.81-1.51 3.62-2.28 5.43-3.68 8.7-7.28 17.45-11.21 26.05-2.2 4.83-4.34 9.7-6.59 14.52-0.07 0.16-0.31 0-0.25-0.13 6.79-17.64 14.17-35.08 21.84-52.39z" fill="#263238"/>
  <rect transform="rotate(-7.24 131.5 306.99)" x="97.92" y="263.24" width="66.96" height="87.16" fill="#ffc727"/>
  <rect transform="rotate(172.69 125.67 263.95)" x="109.8" y="259.14" width="31.73" height="9.62" fill="#a6a6a6"/>
  <polygon points="129.2 254.18 129.76 258.58 133.64 258.08 132.61 250.07 115.39 252.28 116.47 260.29 120.34 259.79 119.78 255.39" fill="#a6a6a6"/>
  <path d="m165.78 292.78c2.86 3.87-0.08 7.89-0.08 7.89a10.22 10.22 0 0 1 5.22 4.64c1.85 3.8-3.31 8.36-3.31 8.36a12.66 12.66 0 0 1 4.73 5.76c1.4 3.82-3.15 9.16-3.15 9.16a11.16 11.16 0 0 1 1 7.69c-1.91 6.87-12.35 10-19 12s-27.28 1.59-31.23 1.9l-13.38-42.35s27.08-17.54 35.2-18.82c6.84-1.1 20.79-0.58 24 3.77z" fill="#ad6359"/>
  <path d="m109.77 305.78c-7.89 4.09-32.35 20.93-29.3 32.25s20 13.22 44.14 12z" fill="#ad6359"/>
  <g fill="#263238">
   <path d="m165.19 300.09c-7.54-0.6-14.85 1.06-22.25 2.31a0.13238 0.13238 0 0 0 0.05 0.26c7.34-1.33 14.84-1.18 22.22-2.21a0.18028 0.18028 0 0 0-0.02-0.36z"/>
   <path d="m167.3 313.16a19.67 19.67 0 0 0-5.1 0.76q-2.69 0.6-5.34 1.27-5.33 1.37-10.57 3c-0.16 0-0.12 0.29 0.05 0.25 3.53-0.89 7.08-1.74 10.65-2.49q2.69-0.56 5.38-1.08a23.41 23.41 0 0 0 5-1.21 0.26 0.26 0 0 0-0.07-0.5z"/>
   <path d="m169 328.63c-1.48-0.13-3.14 0.54-4.56 0.93-1.61 0.45-3.22 0.88-4.83 1.31-3.22 0.86-6.45 1.72-9.7 2.46-0.16 0-0.12 0.29 0 0.25 3.31-0.73 6.63-1.43 9.93-2.2 1.63-0.37 3.24-0.76 4.86-1.16a12.89 12.89 0 0 0 4.31-1.43c0.15-0.05 0.1-0.15-0.01-0.16z"/>
  </g>
  <path d="m109.77 305.78c-7.89 4.09-33.35 20.25-30.18 34.65 2.52 11.44 22 16.23 46.17 15z" fill="#455a64"/>
  <path d="m106 307.88c-0.84 0.51-1.74 1.05-2.67 1.66a12 12 0 0 0 2.74-0.8 10.74 10.74 0 0 0 2.75-1.6 10 10 0 0 0-2.82 0.74zm-24.69 31.3a11.16 11.16 0 0 0-1.6-2.74 11.18 11.18 0 0 0 0.84 3.06 10.74 10.74 0 0 0 1.6 2.75 11.25 11.25 0 0 0-0.8-3.07zm13.93-14.59a11.37 11.37 0 0 0-3.08-0.81 12.39 12.39 0 0 0 5.84 2.38 11.28 11.28 0 0 0-2.72-1.57zm27.76 22.21a6.93 6.93 0 0 0-1.3-0.23 8.27 8.27 0 0 0 1.54 1zm-27.28 1.2a11.59 11.59 0 0 0-0.82 3 10.89 10.89 0 0 0 1.58-2.76 11.28 11.28 0 0 0 0.81-3.08 11.4 11.4 0 0 0-1.57 2.84zm15.75-12.61a11.68 11.68 0 0 0-2.75 1.6 10.93 10.93 0 0 0 3.06-0.84 11.08 11.08 0 0 0 2.75-1.6 11.18 11.18 0 0 0-3.06 0.81z" fill="#37474f"/>
  <g fill="#263238">
   <path d="m113.74 353.69c-4.21-18.55-11.44-37.42-12.47-40.79 0-0.16-0.3-0.07-0.24 0.09 1.18 3.26 7.11 25.72 12.44 40.81 0.07 0.2 0.31 0.07 0.27-0.11z"/>
   <path d="m103.05 354.34a172.34 172.34 0 0 0 22.44 1.08 54 54 0 0 0-1.52-5.56c-0.08-0.17 0.22-0.26 0.27-0.06a54.73 54.73 0 0 0 2.16 5.94 0.41 0.41 0 0 1-0.35 0.55c-3.83 0.46-14.81 0.58-23-1.53-0.25-0.06-0.25-0.45 0-0.42z"/>
   <path d="m108.8 306a65.77 65.77 0 0 0-7.94 4.65l-1.92 1.35-0.79 0.33c-1.1 0.48-2.19 1-3.24 1.56a50.79 50.79 0 0 0-5.86 3.77c-0.14 0.09 0 0.3 0.15 0.2a47.69 47.69 0 0 1 6.14-3.4l0.84-0.38c-1.09 0.85-2.15 1.72-3.16 2.64a87.55 87.55 0 0 0-7.64 7.77c-0.11 0.13 0.09 0.28 0.2 0.16 4.34-4.83 20-16.35 23.59-18.2 2.21-1.13 1.03-1.25-0.37-0.45z"/>
   <polygon points="176.97 262.82 182.43 253.69 188.24 260.92 186.27 267.62 180.05 268.01"/>
   <polygon points="180.05 268.01 172.62 337.25 184.15 361.05 192.57 335.64 186.27 267.62"/>
  </g>
  <path d="m184.5 253c-6 1.73-16.91-7.05-21.4-14.39-0.31-0.5 0.22-6 0.55-12.67 0.18-4.07 0.28-8.59 0.08-12.73l26.26 5s-2.13 8.8-1.73 16a8.92 8.92 0 0 0 0.26 1.69v0.28c0.73 3.21 1.79 15.1-4.02 16.82z" fill="#ad6359"/>
  <path d="m165.58 213.53c1 5.44 5.5 23.32 20.33 22.93a14.29 14.29 0 0 0 2.66-0.28v-0.27a8.9 8.9 0 0 1-0.26-1.7c-0.4-7.2 1.73-16 1.73-16z" fill="#263238"/>
  <path d="m156.51 184.4c-1.59 9.5 6.71 35.26 14 40.28 10.54 7.3 26.07 6.08 31.82-6.19 5.58-11.9-5.82-45.27-13.78-49.66-11.75-6.47-29.7 1.54-32.04 15.57z" fill="#ad6359"/>
  <g fill="#263238">
   <path d="m180.58 198.59c0-0.06-0.11 0.12-0.09 0.19 0.48 1.76 0.74 3.85-0.73 4.83v0.09c1.93-0.7 1.56-3.52 0.82-5.11z"/>
   <path d="m178.56 197.12c-2.91 0.47-1.75 6.24 0.94 5.8s1.5-6.19-0.94-5.8z"/>
   <path d="m191.25 196.24c0-0.07 0.15 0.06 0.16 0.13 0.31 1.8 1 3.81 2.69 4.08 0.05 0 0.06 0.1 0 0.1-2.03 0.12-2.86-2.55-2.85-4.31z"/>
   <path d="m192.47 194.06c2.83-0.8 4.21 4.92 1.58 5.66s-3.95-5-1.58-5.66z"/>
   <path d="m175.75 194.94a22.82 22.82 0 0 0 2.08-1.24 3.91 3.91 0 0 0 1.88-1.66 1.25 1.25 0 0 0-0.49-1.43 3.09 3.09 0 0 0-3.12 0.29 4.52 4.52 0 0 0-2.17 2.44 1.32 1.32 0 0 0 1.82 1.6z"/>
   <path d="m194.12 190.7a24 24 0 0 1-2.41-0.13 3.92 3.92 0 0 1-2.44-0.61 1.23 1.23 0 0 1-0.22-1.5 3.07 3.07 0 0 1 2.89-1.17 4.53 4.53 0 0 1 3.06 1.15 1.32 1.32 0 0 1-0.88 2.26z"/>
   <path d="m182.83 215c0.51 0.34 1 0.83 1.71 0.75a4.82 4.82 0 0 0 1.83-0.83 0.061033 0.061033 0 0 1 0.1 0.07 2.47 2.47 0 0 1-2.08 1.43 1.93 1.93 0 0 1-1.72-1.3c-0.05-0.06 0.08-0.12 0.16-0.12z"/>
   <path d="m183.63 209.32a6.22 6.22 0 0 0 4.61 1.89 7.6 7.6 0 0 0 2.21-0.34 1.7 1.7 0 0 0 0.4-0.13 2.92 2.92 0 0 0 0.38-0.14 0.43 0.43 0 0 0 0.28-0.47 1 1 0 0 0 0-0.18v-0.16c-0.24-1.38-0.79-3.45-0.79-3.45 0.55 0.15 3.35 0.79 3.16 0.08-1.54-5.88-3.26-12.42-6-17.94a0.17 0.17 0 0 0-0.32 0.11c1.26 5.71 3.52 11.16 4.88 16.87a11.07 11.07 0 0 0-3.05-0.29c-0.18 0.09 1.14 4 1.2 4.6v0.07c-2.25 0.76-4.14 0.41-6.69-0.7-0.28-0.09-0.4 0.06-0.27 0.18z"/>
   <path d="m189.5 210.57a7.35 7.35 0 0 1-2.57 2.7 3.28 3.28 0 0 1-2 0.43c-1.49-0.15-1.73-1.47-1.64-2.64a7.88 7.88 0 0 1 0.38-1.83 9.5 9.5 0 0 0 5.83 1.34z"/>
  </g>
  <path d="m186.93 213.27a3.28 3.28 0 0 1-2 0.43c-1.49-0.15-1.73-1.47-1.64-2.64 1.59-0.06 3.28 0.73 3.64 2.21z" fill="#ff9cbd"/>
  <g fill="#263238">
   <path d="m164.39 195.53a31 31 0 0 1-4.25 10.56 79.67 79.67 0 0 1-3.56-14.88 0.76 0.76 0 0 1 0-0.15 38 38 0 0 1-0.13-6.24c0-0.15 0-0.29 0.07-0.42a13.17 13.17 0 0 1 0.33-1.54 3.83 3.83 0 0 1 0.16-0.58 15.56 15.56 0 0 1 0.73-2.05l0.25-0.58c0.21-0.44 0.42-0.87 0.66-1.29a6.65 6.65 0 0 1 0.33-0.58 20 20 0 0 1 1.64-2.34c0.14-0.19 0.29-0.36 0.45-0.54l0.46-0.53c0.73 3.51 3.36 18.4 2.86 21.16z" opacity=".2"/>
   <path d="m184.76 178.68a8.79 8.79 0 0 1-7.16 4.67 9 9 0 0 1-7.9-3.69c0-0.08-0.17 0-0.12 0.08a8.87 8.87 0 0 0 8.06 4.32 9 9 0 0 0 7.31-5.28 0.11 0.11 0 1 0-0.19-0.1z"/>
   <path d="m171.12 159.56c-4.93 1.23-8.86 5-9.91 8.79a9.84 9.84 0 0 0 0.48 6.47c0 0.08 0.21 0 0.18-0.06a10.83 10.83 0 0 1 2.81-10.65 13.94 13.94 0 0 1 11.69-4.11 8.81 8.81 0 0 1 5.46 2.66c0.13 0.16 0.48-0.05 0.36-0.21-2.05-2.84-6.6-4-11.07-2.89z"/>
   <path d="m202.35 163.79a11.17 11.17 0 0 0-6-4.82c-3.46-1.2-6.84-0.14-10.18 1a0.07 0.07 0 0 0 0 0.14c2.84-1 5.78-1.74 8.76-1a11 11 0 0 1 6.16 4.1 10.76 10.76 0 0 1-1.4 14 10.92 10.92 0 0 1-8.2 2.75c-0.12 0-0.16 0.17 0 0.18a11 11 0 0 0 10.84-16.36z"/>
   <path d="m156.22 188.37s-6.68-7.83-3.88-13.84c1.59-3.41 9.08-4.67 9.08-4.67a13.66 13.66 0 0 1 7.27-7.55c5.89-2.8 14.06-0.81 14.06-0.81s5.14-4.67 11.36-2.74c8.66 2.69 10.29 14.62 3.39 20.1-4.85 3.85-13.3 0.67-13.3 0.67-0.69 0.25-7 6.25-13.92 1 0 0-3.59 5-8.21 3.06a6.63 6.63 0 0 1-5.85 4.78z"/>
  </g>
  <path d="m165 205.17s-7.25-7.61-10.79-4.9 2.82 14.36 7.6 15.36a4.66 4.66 0 0 0 5.8-3.42z" fill="#ad6359"/>
  <path d="m156.1 203.56a0.07 0.07 0 0 0 0 0.13c3.38 0.8 5.5 3.5 7.13 6.37-1.12-1-2.51-1.48-3.91-0.11-0.07 0.07 0 0.19 0.11 0.15a2.87 2.87 0 0 1 3.27 0.52 13 13 0 0 1 1.88 2.3c0.19 0.26 0.68 0 0.53-0.28v-0.07c-0.59-4.07-4.6-9.26-9.01-9.01z" fill="#263238"/>
  <path d="m188.53 235.62-6.64 15.22-18.51-19.84-5.55 6.08s17.8 31.25 17.95 29.87l6.65-13 8.87 9.42-0.13-23.07z" fill="#ebebeb"/>
  <g fill="#263238">
   <path d="m191.88 251.9c-0.15-3.8-0.2-7.64-0.52-11.44 0-0.13-0.22-0.2-0.26 0-0.86 3.65-0.21 18.2-0.32 21.69-0.37-0.41-8.23-8.3-8.32-8.18-1.42 2.06-6.3 11.54-6.64 12.41-2.81-5-13.62-23-17-27.74-0.1-0.14-0.31 0-0.23 0.12 2.46 5.23 16.75 29.55 17 29.49a148.21 148.21 0 0 0 7-13.78c1.32 1.71 9.22 10.59 9.27 10a121.6 121.6 0 0 0 0.02-12.57z"/>
   <path d="m362.63 405.05h-108.63l5-49.89h90.45c11.03 30.72 13.18 49.89 13.18 49.89z"/>
   <path d="m301.09 168.75c-1.95-0.35-9.83-3.86-17.62 1.86-7.36 5.42-15.89 26.25-18.45 30.56s-8.9 3.1-12 8.06c-2.7 4.27 0.16 7-0.57 10.57-0.56 2.73-4.47 5.87-3.28 10.54 1.08 4.26 5.18 4.71 7.17 6.56s1.74 7.71 5.6 10.53 8.93 0.07 11.21 0.81 2.8 8.63 10.47 10.36 11.83-3.92 15.31-4.2 10.56 4.3 15.31 1.55 7-7.71 9.17-9.11 5.42 0 8.78-3.81 0.16-7.84 0.78-11.83c0.43-2.78 3.55-4.48 3.16-9-0.53-6.29-7.72-7.23-8.53-13.77-0.63-5.13 1.27-26-9-34.47-7.16-5.96-17.51-5.21-17.51-5.21z"/>
   <path d="m265.6 200.12a7 7 0 0 1-2.79 1.88l-3.09 1.34a21.53 21.53 0 0 0-5.74 3.2 6.78 6.78 0 0 0-2.5 5.46 10 10 0 0 0 0.75 3.09 12 12 0 0 1 1 3.42 5.87 5.87 0 0 1-1.41 3.42c-0.68 0.93-1.37 1.79-2 2.7a8 8 0 0 0-1.65 5.93 4.53 4.53 0 0 0 1.42 2.65 8.35 8.35 0 0 0 2.78 1.58c1 0.41 2.11 0.71 3.18 1.06a5.7 5.7 0 0 1 2.9 1.69 6.07 6.07 0 0 0-3-1.36c-1.09-0.26-2.2-0.47-3.29-0.79a9 9 0 0 1-3.12-1.57 5.51 5.51 0 0 1-1.85-3.07c-0.63-2.41 0.39-4.88 1.64-6.76 0.62-1 1.32-1.87 1.94-2.77a4.68 4.68 0 0 0 1.13-2.68c-0.1-1.91-1.55-4-1.59-6.49a7.53 7.53 0 0 1 3-6.26 21.43 21.43 0 0 1 6.14-3l3.19-1.07a7.59 7.59 0 0 0 2.96-1.6z"/>
   <path d="m326 188.34c1 3.92 1.13 8 1.65 11.95 0.26 2 0.45 4 0.86 5.91a13 13 0 0 0 0.82 2.74 1.86 1.86 0 0 0 0.31 0.56 2.2 2.2 0 0 0 0.41 0.5c0.34 0.34 0.7 0.66 1.08 1a56.76 56.76 0 0 1 4.5 4.09 10.34 10.34 0 0 1 2.89 5.54 6.43 6.43 0 0 1-0.35 3.19 8 8 0 0 1-1.77 2.58 13 13 0 0 0-3.47 4.81c0.37-2 1.75-3.69 3-5.22a7.62 7.62 0 0 0 1.48-2.45 5.44 5.44 0 0 0 0.13-2.75 10 10 0 0 0-2.77-4.9 57.89 57.89 0 0 0-4.49-3.93c-0.38-0.34-0.76-0.69-1.12-1.07a4.28 4.28 0 0 1-0.94-1.43 14.36 14.36 0 0 1-0.86-3 49.87 49.87 0 0 1-0.69-6l-0.29-6a52.24 52.24 0 0 0-0.38-6.12z"/>
   <path d="m325.6 246.12c-1.16 0.84-1.72 2.24-2.44 3.46s-1.42 2.51-2.2 3.74a21.46 21.46 0 0 1-2.68 3.51 9.51 9.51 0 0 1-3.81 2.54c-3.14 0.85-6.18-0.32-8.71-1.65-1.29-0.68-2.52-1.42-3.79-2.06a8.89 8.89 0 0 0-4-1.25 8.38 8.38 0 0 1 4.29 0.67c1.35 0.54 2.65 1.19 4 1.75 2.56 1.11 5.38 2 7.91 1.31a8.5 8.5 0 0 0 3.32-2.17 25.8 25.8 0 0 0 2.73-3.21c0.86-1.13 1.66-2.32 2.48-3.51 0.43-0.59 0.86-1.17 1.32-1.73a4.12 4.12 0 0 1 1.58-1.4z"/>
  </g>
  <path d="m295.05 256.61c-6.61 8.53-41.36 43.82-42 47.31-0.38 2 7.58 8.24 7.57 9.63 0 5.65-13.48 50.77-18.65 47.39-6.82-4.45-27.78-39.77-25.27-55.59s65.14-60.59 74.89-64.67 12.65 4.05 3.46 15.93z" fill="#ffc727"/>
  <path d="m255.8 368.2 6.72-45.55s-10.78-18.82-4.53-32.32c3.16-6.84 24.8-40.26 36.45-48.72 10.94-7.93 25.92-0.69 31 6.21 14.65 19.85 21.78 55.58 30 120.38z" fill="#ffc727"/>
  <path d="m275.4 262.62q-3.31 4.54-6.47 9.22c0.58-1.21 1.16-2.42 1.73-3.63a0.08 0.08 0 0 0-0.14-0.07c-0.78 1.52-1.5 3.06-2.21 4.61q-4.23 6.25-8.2 12.7a33.43 33.43 0 0 0-2.91 5.68 25.53 25.53 0 0 0-1.42 6 32.11 32.11 0 0 0-0.1 6.2 42.32 42.32 0 0 0 0.9 6.33 40.9 40.9 0 0 0 2.22 6.91c0.47 1.09 1 2.17 1.51 3.23s1.49 2.94 1.48 3c-0.2 1.09-0.41 1.86-0.55 2.77l-0.42 2.81c-0.28 1.87-2.71 20.06-3 21.93-0.54 3.72-1 7.43-1.47 11.16-0.27 2.14-0.41 4.29-0.71 6.42 0 0.09 0.12 0.12 0.13 0 0.31-1.86 0.77-3.69 1.11-5.55s0.68-3.7 1-5.56c0.7-3.74 3.4-23.84 4-27.61 0.16-1 0.32-2.08 0.49-3.12a20.49 20.49 0 0 0 0.39-3.48 84.79 84.79 0 0 1-4.59-11.57 41.21 41.21 0 0 1-1.32-6.2 32.4 32.4 0 0 1-0.08-6.15 27.68 27.68 0 0 1 1.18-6.05 31.37 31.37 0 0 1 2.62-5.75c2.18-3.87 4.49-7.67 6.84-11.43q4-6.42 8.11-12.75c0.04-0.06-0.07-0.12-0.12-0.05z" fill="#263238"/>
  <path d="m262.42 371c4.32-3.49-2.26-6.57-2.26-6.57s10.54 2.16 13.59-3.16c2.93-5.13-5.15-8.58-5.72-8.83 0.56 0.11 10.29 1.84 12.81-3.82 2.62-5.88-6.09-7.95-6.65-8.08 0.56-0.06 7.95-1 8.89-5.74 1.6-8.14-19.77-7.23-24.79-11.69 0 0 1.17-10.65 1.31-11 0 0-2 4.3-5.62 5.66-4.5 1.7-8.58 2.81-10.26 5.18a6.08 6.08 0 0 0-0.07 7.25s-5.88-0.17-8 4.22c-1.09 2.25 1.56 6 1.56 6s-4.72 0.05-6.36 4.07c-1.33 3.21 1.53 6.47 1.53 6.47s-4.5 2.15-4.79 5.86c-0.59 7.5 25.6 21.61 34.83 14.18z" fill="#f7a9a0"/>
  <g fill="#263238">
   <path d="m232.76 351.54c-0.09-0.05-0.18 0-0.1 0.12 7.48 6.75 17.76 11.86 27.84 12.94 0.33 0 0.53-0.48 0.17-0.59-10.17-3.1-18.95-6.66-27.91-12.47z"/>
   <path d="m237.05 340.4c-0.1-0.06-0.21 0.1-0.11 0.18 7.74 6.91 19.49 12.35 31.24 12.23 0.41 0 0.76-0.41 0.3-0.45-7.82-0.51-23.39-6.69-31.43-11.96z"/>
   <path d="m275 340.22c-11.28-0.32-21.32-4.22-31.06-9.71-0.13-0.07-0.21 0.11-0.12 0.2 4 4 10.6 6.84 15.9 8.63a29.85 29.85 0 0 0 15.28 1.28c0.2-0.04 0.25-0.39 0-0.4z"/>
   <path d="m232.08 351c-1.82-1.93-3.17-4.45-2.27-7.14a5.32 5.32 0 0 1 2.38-2.9c1.38-0.81 3.37-0.73 4.33-0.77-1.64-2.29-2.43-5.38-0.8-7.89a5.32 5.32 0 0 1 3.23-2.1 17.3 17.3 0 0 1 4.57-0.2 6.25 6.25 0 0 1-1.79-5.29 6.74 6.74 0 0 1 3.73-4.85c2.19-1.22 4.69-1.63 7.07-2.3a15.81 15.81 0 0 0 3.59-1.33 7 7 0 0 0 2.83-3c0.13-0.22 0.13 0 0 0.19a8.92 8.92 0 0 1-1.63 2.31 11 11 0 0 1-2.35 1.84c-2.08 1.23-4.46 1.69-6.68 2.59a9.72 9.72 0 0 0-4.87 3.85 5.75 5.75 0 0 0 0.32 6c0.08 0.08 0 0.23-0.14 0.23a16.41 16.41 0 0 0-4 0.81 5.72 5.72 0 0 0-2.69 2 7.37 7.37 0 0 0 0.28 7.36 12.45 12.45 0 0 0-4.17 1.46 5.25 5.25 0 0 0-1.82 2.41 6.36 6.36 0 0 0 1.23 6.57 0.41 0.41 0 0 1 0 0.08v0.07 0.08s-1.43 0.74-1.5 0.75 0 0 0-0.08a10.9 10.9 0 0 1 1.15-0.75z"/>
  </g>
  <polygon points="266.99 274.98 293.93 345.83 242.26 357.96 215.31 287.12" fill="#a6a6a6"/>
  <polygon points="264.45 275.58 291.4 346.42 239.72 358.56 212.78 287.71" fill="#c7c7c7"/>
  <path d="m244.55 315.46a5.73 5.73 0 0 0 6.64 3.74 4.65 4.65 0 0 0 3.41-6.1 5.75 5.75 0 0 0-6.65-3.74 4.65 4.65 0 0 0-3.4 6.1z" fill="#fff"/>
  <path d="m331.39 250.4c35.73 30 59.84 92.38 45.22 100.68-13.36 7.58-69.2 8.46-88 6.16-5.52-0.68-4.09-47.4 1.81-46.68 7.13 0.86 45.36 1.9 46.07 1.77 1.52-0.28-14.86-38.34-22.09-55.62-10.06-24.08 3.6-17.59 16.99-6.31z" fill="#f7a9a0"/>
  <path d="m300.38 314.37s-15.67-7.16-26.13-11.37c-5.84-2.34-16.21-5.46-21.29-5.22-7.6 0.36-39.13 6.71-37.75 14.39 1.24 6.95 27.64-1.95 27.64-1.95s-27.43 6.63-24.39 14.72 31.54-5.94 31.54-5.94-28 7.44-23.58 15.29c3.36 5.94 29.88-5.31 29.88-5.31s-24.05 6.56-20.85 12.81c3.53 6.91 28.66-1.94 28.66-1.94 10.81 14.53 21.53 17.8 30 17.85 1.95 0.03 6.27-43.33 6.27-43.33z" fill="#f7a9a0"/>
  <g fill="#263238">
   <path d="m250.9 307.68c-20.57 3.32-29.64 11.32-29.36 11.11 6.7-3.83 18-7.4 21.22-8.35s5-1.7 8.18-2.65c0.06-0.02 0.06-0.13-0.04-0.11z"/>
   <path d="m255.82 318.74c-9.84 0.95-20.58 5.22-24 7.27-0.28 0.17-0.14 0.24 0.17 0.14 4-1.32 19.86-6.19 23.92-7.31 0.01-0.02-0.02-0.1-0.09-0.1z"/>
   <path d="m260.7 328c-8.73 1.51-12.5 3.06-18.45 6.17-0.28 0.15-0.07 0.27 0.24 0.16 6.1-2.17 10.86-3.92 18.26-6.11 0.11-0.05 0.09-0.22-0.05-0.22z"/>
  </g>
  <path d="m335.63 310.81c0.4-0.37-16.06-37-23.07-56.39s1.5-18.37 18.76-4.93c19.82 15.43 60 76.25 49.63 98.8-6.47 14.08-87 13.25-87 13.25l1.27-51.39s39.78 1.23 40.41 0.66z" fill="#ffc727"/>
  <g fill="#263238">
   <path d="m304.08 354.17c1.63-18.14 0.59-37.45 0.65-40.82a0.13 0.13 0 0 0-0.25 0c0.11 3.32-1.09 25.52-0.67 40.83 0 0.19 0.26 0.17 0.27-0.01z"/>
   <path d="m352.84 313.14c-1.7 0.06-47.78-3.12-57.6-2.62-0.15 0-0.13-0.51 0-0.52a410.11 410.11 0 0 1 58 2.22c2.37 0.41 2.76 0.78-0.4 0.92z"/>
   <path d="m335.29 311.29c0-0.09-6-14.17-6.65-15s-2.31-2.72-3-3.6c-1.35-1.79-2.6-3.65-3.88-5.48-0.11-0.15 0.12-0.33 0.22-0.18 1.35 1.75 2.84 3.38 4.34 5 0.74 0.79 1.48 1.59 2.23 2.37 0.05 0-5.67-13.79-6.58-16.25-0.07-0.18 0.12-0.27 0.21-0.13 1.35 2.38 13.07 30.06 14.52 33.1a13.77 13.77 0 0 1-1.41 0.17z"/>
   <path d="m354.15 358.17c-24.82 2.4-56.76 3.09-59.61 3.27a36.93 36.93 0 0 0-0.3-6.44 0.14 0.14 0 0 0-0.25 0c-0.45 1.08-0.51 6.32-0.6 7.58 0 0.23 38.61-0.44 60.74-4.11 0.08-0.04 0.11-0.3 0.02-0.3z"/>
  </g>
  <path d="m313.52 242.83c-0.52 1.73-9.52 12.63-17.52 11.79-2.61-0.27-1.73-14.54-1.73-14.54l-0.18-1.07-2.46-14.95 18-10.14 2.59-1.33s0.4 4.13 0.85 9.29c0 0.24 0.05 0.48 0.07 0.73s0.07 0.57 0.09 0.84c0.07 0.77 0.15 1.56 0.21 2.34 0 0.6 0.09 1.18 0.12 1.8s0.07 1.25 0.11 1.88a99.35 99.35 0 0 1-0.15 13.36z" fill="#f7a9a0"/>
  <path d="m313.05 221.88a30.4 30.4 0 0 1-19 17.13l-2.46-14.95 18-10.14 2.59-1.33s0.42 4.13 0.87 9.29z" fill="#263238"/>
  <path d="m270.67 200.83c-2.36 26.49 13.24 30.89 19 31.4 5.18 0.45 22.9 1.35 28-24.76s-6.48-35.58-18.29-37.25-26.38 4.11-28.71 30.61z" fill="#f7a9a0"/>
  <g fill="#263238">
   <path d="m278.88 194.25a16 16 0 0 0 1.82-0.27 3 3 0 0 0 1.8-0.63 1 1 0 0 0 0.07-1.15 2.36 2.36 0 0 0-2.28-0.69 3.44 3.44 0 0 0-2.23 1.09 1 1 0 0 0 0.82 1.65z"/>
   <path d="m297.34 193.55a17.87 17.87 0 0 1-1.78-0.46 2.89 2.89 0 0 1-1.73-0.81 0.93 0.93 0 0 1 0.05-1.15 2.33 2.33 0 0 1 2.33-0.45 3.45 3.45 0 0 1 2.11 1.31 1 1 0 0 1-0.98 1.56z"/>
   <path d="m293 202.66c0-0.07 0.14 0.09 0.13 0.17-0.18 1.8-0.07 3.89 1.52 4.6v0.1c-1.99-0.41-2.09-3.19-1.65-4.87z"/>
   <path d="m294.75 200.88c2.92 0 2.77 5.81 0.06 5.84s-2.51-5.82-0.06-5.84z"/>
   <path d="m295.89 201.21c0.5 0.35 1 0.94 1.6 1s1.26-0.51 1.74-1.08c0-0.06 0.1 0 0.1 0.07 0 1.12-0.47 2.25-1.68 2.39s-1.86-0.89-2.11-2c-0.04-0.21 0.15-0.51 0.35-0.38z"/>
   <path d="m282 201.08c0-0.07-0.14 0.08-0.14 0.15 0 1.81-0.32 3.89-2 4.43-0.05 0-0.05 0.11 0 0.1 2.03-0.21 2.42-2.96 2.14-4.68z"/>
   <path d="m280.44 199.13c-2.9-0.32-3.33 5.51-0.64 5.81s3.08-5.54 0.64-5.81z"/>
   <path d="m279.2 199.42c-0.48 0.28-1 0.81-1.53 0.8s-1.07-0.67-1.43-1.3c0-0.07-0.09 0-0.1 0.05-0.11 1.11 0.17 2.3 1.23 2.6s1.75-0.64 2.09-1.73c0.07-0.2-0.06-0.53-0.26-0.42z"/>
   <path d="m290.92 216.66c-0.43 0.43-0.85 1-1.51 1.09a4.71 4.71 0 0 1-2-0.41 0.060208 0.060208 0 0 0-0.08 0.09 2.44 2.44 0 0 0 2.32 0.94 1.92 1.92 0 0 0 1.39-1.63c0.08-0.11-0.04-0.14-0.12-0.08z"/>
   <path d="m283.6 209.83s-0.48 2.69-0.53 4c0 0.12 0.31 0.18 0.74 0.23h0.05a6 6 0 0 0 6-2 0.13 0.13 0 0 0-0.18-0.18 9.17 9.17 0 0 1-5.6 1.37c-0.07-0.35 1-4.58 0.77-4.6a11.3 11.3 0 0 0-2.92 0.55c0.83-5.63 2.55-11.08 3.29-16.7a0.18 0.18 0 0 0-0.33-0.1c-2.21 5.59-3.3 12-4.31 17.84-0.16 0.65 2.5-0.24 3.02-0.41z"/>
   <path d="m317.55 205.06c-2.9-0.1-10.65-7.87-11.23-21.85 0 0 1.39 12.51 2.38 14.33s-4.33-4.38-5-15.65c0 0-6.13 4.67-11.42 6.3s-8.54 1.66-8.93 1.28 7.38-3 9.44-5.54c0 0-14 6.95-20.52 7.61-0.76 0.08-2.05-15.43 7.88-22.28s26.1-0.14 30.51 3.91c0 0 5.06 0.59 10.74 7.92s-0.73 24.08-3.85 23.97z"/>
  </g>
  <path d="m311.24 207.42s5.83-8.29 9.59-6.21-0.63 14.1-5.06 15.74a4.5 4.5 0 0 1-6-2.43z" fill="#f7a9a0"/>
  <path d="m319.48 204.62a0.06 0.06 0 0 1 0 0.12c-3.11 1.25-4.75 4.12-5.9 7.1 0.93-1.14 2.19-1.77 3.72-0.67 0.08 0.06 0 0.19-0.08 0.17a2.76 2.76 0 0 0-3.05 1 13 13 0 0 0-1.46 2.46c-0.15 0.27-0.65 0.12-0.54-0.2a0.25 0.25 0 0 1 0-0.07c-0.02-3.99 3.07-9.53 7.31-9.91z" fill="#263238"/>
  <polygon points="131.79 405.27 50.72 405.03 131.79 404.79 212.86 404.7 375 404.53 537.14 404.7 618.21 404.79 699.28 405.03 618.21 405.27 537.14 405.36 375 405.53 212.86 405.36" fill="#263238"/>
  <g fill="#ffc727">
   <polygon points="310.82 128.81 303.8 132.5 305.14 124.68 299.45 119.14 307.31 117.99 310.82 110.88 314.34 117.99 322.19 119.14 316.51 124.68 317.85 132.5"/>
   <polygon points="342.91 128.81 335.88 132.5 337.23 124.68 331.54 119.14 339.4 117.99 342.91 110.88 346.43 117.99 354.28 119.14 348.6 124.68 349.94 132.5"/>
   <polygon points="375 128.81 367.97 132.5 369.31 124.68 363.63 119.14 371.49 117.99 375 110.88 378.51 117.99 386.37 119.14 380.69 124.68 382.03 132.5"/>
   <polygon points="407.09 128.81 400.06 132.5 401.4 124.68 395.72 119.14 403.57 117.99 407.09 110.88 410.6 117.99 418.46 119.14 412.77 124.68 414.12 132.5"/>
   <polygon points="439.18 128.81 432.15 132.5 433.49 124.68 427.81 119.14 435.66 117.99 439.18 110.88 442.69 117.99 450.55 119.14 444.86 124.68 446.2 132.5"/>
   <path d="m661.26 329.53a60.48 60.48 0 0 0-2 11.14c0.1 0.19 0.08 0.88 0 0.69 0 0.61-1 0.5-1-0.1v-1.17c-2.18-2.7-5.34-4.42-7.89-6.76a14.71 14.71 0 0 1-4.32-6.89c-2.12-7.3-0.14-15-2.69-22.32-2.19-6.27-6.13-11.73-9.47-17.42-3.51-6-6.11-12.34-6.37-19.39-0.21-5.39 0.44-12.58 4.55-16.62 4.35-4.29 9.75-1.08 13.09 2.75 9.67 11.09 14.14 25.12 16 39.46 1 7.94 2 15.92 1.8 23.94a64.61 64.61 0 0 1-1.7 12.69z"/>
  </g>
  <path d="m659.34 343.59a136.18 136.18 0 0 0-0.27-22.49v-0.08c0.12-6.08 0.6-12.13 0.37-18.22a108.22 108.22 0 0 0-2.68-19.54 0.06 0.06 0 0 0-0.12 0 127.71 127.71 0 0 1 2.12 19.11c0.12 3.43 0.1 6.87-0.09 10.3-0.06 1.12-0.16 2.24-0.23 3.37a120.38 120.38 0 0 0-18.09-47.86c-0.12-0.19-0.47 0-0.35 0.22a125 125 0 0 1 14.72 35.48c-4.65-8.61-11.68-15.7-16.89-24h-0.08c4.68 9.22 12.42 16.49 17.35 25.57q1.27 5.55 2.08 11.19a126.47 126.47 0 0 1 1.12 15.55 174.07 174.07 0 0 1-8.09-15.95c-0.06-0.15-0.28-0.05-0.23 0.1 2 5.81 4.62 12.08 8.33 17 0 3.68-0.09 7.36-0.3 11-0.58 9.82-2.26 19.5-3 29.29a0.23 0.23 0 0 0 0.45 0 226.45 226.45 0 0 0 3.88-30.04z" fill="#263238"/>
  <path d="m648.91 267.88c0-0.07-0.13 0-0.11 0.05 1.8 5 2.81 10 4.11 15.06a0.19 0.19 0 0 0 0.37-0.06c-0.53-5.16-2.37-10.3-4.37-15.05z" fill="#263238"/>
  <path d="m694.45 288.66a76.14 76.14 0 0 1-4.13 8.47c-3.23 5.86-6.6 11.24-7.2 18.06-0.28 3.05-0.37 6.12-1.3 9.05a27.42 27.42 0 0 1-3.61 7.09c-3.5 5.09-7.87 9.49-11.12 14.78a62.08 62.08 0 0 0-7.38 17.81c-0.08 0.34-0.62 0.25-0.54-0.09v-0.08a0.15 0.15 0 0 1 0-0.08c-0.52-14.63 0.65-29.39 5.12-43.41a149.65 149.65 0 0 1 7.09-18.06 42.63 42.63 0 0 1 9.57-13.78c2.73-2.45 8.64-7.1 12.52-4.64 1.85 1.22 1.71 3.05 0.98 4.88z" fill="#ffc727"/>
  <path d="m679.73 321.85a120.86 120.86 0 0 1-8.51 12.23c-1.41 1.85-2.85 3.68-4.26 5.53-0.67 0.88-1.42 1.75-2 2.69 0.39-1.54 0.77-3.08 1.16-4.62 1.89-7.39 3.7-14.86 6.52-22a148.69 148.69 0 0 1 10.16-19.92c0.1-0.17-0.17-0.3-0.27-0.13-3.1 5.09-6.23 10.17-8.84 15.53a82.21 82.21 0 0 0-3.74 9.21 141.61 141.61 0 0 1 5-19.69s-0.07-0.1-0.09 0a67.38 67.38 0 0 0-5.18 20.48c-0.64 1.9-1.22 3.82-1.76 5.75-2.31 8.19-4.33 16.47-6.21 24.77a88.12 88.12 0 0 1 1.41-16.28 0.1 0.1 0 0 0-0.19 0 51.41 51.41 0 0 0-1.41 17.16c-0.71 3.16-1.41 6.32-2.08 9.49-1.44 6.74-3.21 13.61-4 20.46a0.14 0.14 0 0 0 0.27 0.05c1-3.69 1.61-7.52 2.43-11.26s1.68-7.5 2.55-11.24q1.9-8.16 4-16.3c0.91-2 2.66-3.76 4-5.43 1.44-1.83 2.89-3.66 4.29-5.52a82.36 82.36 0 0 0 7-10.9c-0.07-0.08-0.2-0.14-0.25-0.06z" fill="#263238"/>
  <path d="m680.36 315.59a76 76 0 0 0-8.36 13.22c0 0.06 0.06 0.13 0.1 0.07 2.8-4.39 5.56-8.82 8.36-13.21a0.08 0.08 0 0 0-0.1-0.08z" fill="#263238"/>
  <path d="m618 302.54c1.89 3.27 4.06 7.19 3.25 11.11-0.52 2.49-2.34 4.5-2.67 7-0.73 5.59 4.84 9.28 8.87 11.93 10.06 6.59 23.84 12.47 25.67 25.94 0.07 0.48 0.89 0.36 0.83-0.11a0.29 0.29 0 0 0 0-0.09v-0.08a51.44 51.44 0 0 0-0.18-20.57c-1.5-6.94-4.53-13.18-8.11-19.28-6.05-10.32-12.46-20.89-21.6-28.79-2.54-2.19-7.72-6.12-9.74-1.19s1.39 10.15 3.68 14.13z" fill="#ffc727"/>
  <g fill="#263238">
   <path d="m627.24 324.42c6.66 7.22 17.26 11.26 23 19.34a81 81 0 0 0-17.68-33.2 0.26163 0.26163 0 0 1 0.37-0.37 65.48 65.48 0 0 1 14.44 20.92 93.43 93.43 0 0 0-6.22-15.9c-0.09-0.2 0.18-0.37 0.3-0.18a60.75 60.75 0 0 1 6.7 17.88c7.56 18.3 8.26 39.77 6.68 59 0 0.28-0.45 0.29-0.44 0 0.44-15.2 0.19-30.66-3.45-45.51l-0.24-0.92c-6.24-8.7-16.79-12.73-23.58-21-0.06-0.02 0.05-0.14 0.12-0.06z"/>
   <path d="m625.69 318.22c3.5 3.21 6.95 6.5 10.45 9.7v0.07a51.07 51.07 0 0 1-10.61-9.56c-0.16-0.14 0.02-0.34 0.16-0.21z"/>
   <path d="m625.14 304.32a110.22 110.22 0 0 0 10.47 14.4 0.060208 0.060208 0 1 1-0.09 0.08 50.81 50.81 0 0 1-10.52-14.37 0.11 0.11 0 0 1 0.14-0.11z"/>
  </g>
  <polygon points="645.61 364.34 640.89 405.57 671.54 405.57 667.41 364.34" fill="#dbdbdb"/>
  <polygon points="645.61 364.34 644.84 371.04 668.08 371.04 667.41 364.34" fill="#c7c7c7"/>
  <rect transform="rotate(180 656.22 363.06)" x="641.85" y="359.77" width="28.73" height="6.58" fill="#dbdbdb"/>
  <path d="m280.69 143.3a34.36 34.36 0 0 1-57.42 21.7l-17.19 2.52 8.6-14.86a34.37 34.37 0 1 1 66-9.4z" fill="#fff"/>
  <path d="m280.69 143.3a34.6 34.6 0 0 1-6.94 17.42 30.71 30.71 0 0 1-6.74 6.66 34.9 34.9 0 0 1-17.54 6.82 34.53 34.53 0 0 1-4.77 0.09 30.38 30.38 0 0 1-4.76-0.5 34.57 34.57 0 0 1-17-8.39l0.4 0.12-17.17 2.64-1.25 0.19 0.63-1.1 8.55-14.89v0.59a34.78 34.78 0 0 1 2.12-30.63 35.21 35.21 0 0 1 10.76-11.46 35 35 0 0 1 30.21-4.07 35 35 0 0 1 13.25 8.13 34.55 34.55 0 0 1 10.25 28.38zm0 0a34 34 0 0 0-39-37.19 33.92 33.92 0 0 0-14.2 5.6 35.58 35.58 0 0 0-10.28 11.22 34 34 0 0 0-4.36 14.54 34.36 34.36 0 0 0 2.42 15l0.12 0.31-0.16 0.28-8.65 14.83-0.58-0.89 17.21-2.41h0.24l0.17 0.16a33.88 33.88 0 0 0 16.45 8.48 30.55 30.55 0 0 0 4.67 0.57 33.51 33.51 0 0 0 4.7 0 34.06 34.06 0 0 0 9.18-2 32.11 32.11 0 0 0 8.29-4.47 40.18 40.18 0 0 0 3.63-3 37.55 37.55 0 0 0 3.12-3.55 34.46 34.46 0 0 0 7.03-17.48z" fill="#263238"/>
  <g fill="#455a64">
   <path d="m240.57 117.57a6.75 6.75 0 0 0-3.1-3.37 4.44 4.44 0 0 0-3.68 0.13 4.31 4.31 0 0 0-2.54 2.62 6.56 6.56 0 0 0 0.52 4.5 3.15 3.15 0 0 0 0.16 0.32l0.32-0.14v-0.1c0-0.07-0.07-0.14-0.1-0.22a6.29 6.29 0 0 1-0.53-4.25 4 4 0 0 1 2.35-2.4 4.69 4.69 0 0 1 1.93-0.44 3.72 3.72 0 0 1 1.47 0.3 6.44 6.44 0 0 1 2.91 3.19 1.65 1.65 0 0 1 0.09 0.21 0.54 0.54 0 0 1 0 0.11l0.31-0.14z"/>
   <polygon points="231.94 121.77 231.9 121.66 232.21 121.53 240.33 117.92 240.64 117.79 240.69 117.89 240.38 118.03 232.26 121.63"/>
   <polygon points="232.6 123.18 232.52 123.02 232.85 122.88 232.93 123.04 233 123.2 233.07 123.36 232.75 123.5 232.67 123.34"/>
   <polygon points="233.47 125.08 233.32 124.76 233.65 124.61 233.8 124.94 250.47 161.06 250.55 161.23 250.39 161.31 250.23 161.38"/>
   <polygon points="241.49 119.64 241.17 119.78 241.1 119.61 240.94 119.29 241.26 119.14 241.34 119.31 241.41 119.47"/>
   <polygon points="258.56 157.47 241.9 121.35 241.75 121.03 242.07 120.89 242.22 121.21 258.97 157.51 258.81 157.58 258.64 157.66"/>
   <path d="m240.33 117.92-8.12 3.61v0.1l8.12-3.6a0.54 0.54 0 0 0 0-0.11zm0 0-8.12 3.61v0.1l8.12-3.6a0.54 0.54 0 0 0 0-0.11zm0 0-8.12 3.61v0.1l8.12-3.6a0.54 0.54 0 0 0 0-0.11zm1.72 1.07-0.8-1.73-0.68 0.31-0.33 0.14-8.13 3.6-0.34 0.14-0.68 0.31 0.8 1.73 0.08 0.16 0.7-0.31 0.33-0.14 8.1-3.59 0.31-0.14 0.71-0.31zm-10.48 3 0.36-0.17 0.32-0.14 8.12-3.6 0.31-0.14 0.36-0.17 0.58 1.25-0.39 0.17-0.32 0.15-8.09 3.59-0.33 0.14-0.38 0.17zm8.76-4-8.12 3.61v0.1l8.12-3.6a0.54 0.54 0 0 0 0-0.18zm0 0-8.12 3.61v0.1l8.12-3.6a0.54 0.54 0 0 0 0-0.18z"/>
   <path d="m241.1 119.61-0.08-0.16-8.09 3.55 0.14 0.32 8.1-3.58zm0 0-0.08-0.16-8.09 3.55 0.14 0.32 8.1-3.58zm1-0.45-0.07-0.17-0.71 0.32-0.32 0.14-8.07 3.55-0.33 0.14-0.71 0.31 0.08 0.16 0.8 1.74 0.7-0.31 0.33-0.14 8.1-3.59 0.32-0.14 0.71-0.32zm-0.05 1.73-0.32 0.14-8.1 3.58-0.33 0.15-0.37 0.16-0.59-1.25 0.39-0.17 0.32-0.14 8.1-3.58 0.32-0.15 0.38-0.17 0.58 1.26zm-1-1.28-0.08-0.16-8.04 3.55 0.14 0.32 8.1-3.58zm0 0-0.08-0.16-8.04 3.55 0.14 0.32 8.1-3.58z"/>
   <path d="m258.81 157.58-0.25-0.11-1.22-0.57-0.06 0.2s-0.21 0.74-0.31 1.11l-1.26-0.59-0.37 1.3-1.25-0.59-0.38 1.32-1.24-0.6-0.39 1.32-1.24-0.59-0.06 0.2-0.31 1.08a0.91 0.91 0 0 0-0.06 0.22l-0.06 0.09 5.38 3.45 2 1.27 1.25-8.49zm-1 5-0.18 1.23-0.26 1.74-2.55-1.64-4.07-2.62c0-0.14 0.13-0.42 0.29-1l1.25 0.6 0.38-1.31 1.25 0.59 0.38-1.32 1.25 0.6 0.37-1.31 1.25 0.58 0.06-0.2s0.21-0.74 0.31-1.11l1 0.45z"/>
   <path d="m257.83 162.55-3 1.33-0.27 0.12 2.93 1.89 0.51-3.42zm-0.27 0.51-0.33 2.23-1.92-1.23z"/>
   <path d="m241.9 121.35-8.1 3.59 16.67 36.12 0.31-1.08 0.06-0.2 1.24 0.59 0.39-1.32 1.24 0.6 0.38-1.32 1.25 0.59 0.37-1.3 1.26 0.59c0.1-0.37 0.3-1.1 0.31-1.11l0.06-0.2 1.22 0.57zm5.57 28.49c-1.33-2.69-2.58-5.42-3.87-8.13s-2.49-5.46-3.67-8.21-2.36-5.53-3.43-8.34c1.44 2.64 2.79 5.32 4.12 8s2.58 5.41 3.87 8.12 2.48 5.46 3.66 8.22 2.36 5.52 3.44 8.33c-1.45-2.62-2.79-5.3-4.12-7.99zm3.76-1.73c-1.33-2.69-2.58-5.42-3.87-8.12s-2.49-5.47-3.67-8.23-2.36-5.51-3.43-8.33c1.44 2.64 2.79 5.32 4.12 8s2.58 5.42 3.87 8.12 2.48 5.46 3.67 8.22 2.35 5.52 3.43 8.33c-1.45-2.61-2.79-5.3-4.12-7.99z"/>
  </g>
  <path d="m468.35 170.41a34.35 34.35 0 0 0 57.41 21.74l17.2 2.52-8.6-14.86a34.37 34.37 0 1 0-66-9.4z" fill="#fff"/>
  <path d="m478.63 142a34.3 34.3 0 0 1 28.8-9.56 34.58 34.58 0 0 1 14.66 5.5 35.14 35.14 0 0 1 10.77 11.46 34.75 34.75 0 0 1 2.14 30.66v-0.59l8.55 14.89 0.64 1.1-1.25-0.19-17.18-2.64 0.41-0.12a34.7 34.7 0 0 1-17 8.39 30.38 30.38 0 0 1-4.76 0.5 34.53 34.53 0 0 1-4.77-0.09 35 35 0 0 1-17.64-6.82 31.3 31.3 0 0 1-6.74-6.66 34.58 34.58 0 0 1 3.35-45.8zm-3.24 45.72a37.55 37.55 0 0 0 3.12 3.55 38.84 38.84 0 0 0 3.63 3 32.11 32.11 0 0 0 8.29 4.47 34.06 34.06 0 0 0 9.18 2 35.11 35.11 0 0 0 4.7 0 30.27 30.27 0 0 0 4.66-0.57 33.91 33.91 0 0 0 16.46-8.48l0.17-0.16h0.24l17.21 2.41-0.62 0.9-8.65-14.83-0.17-0.28 0.13-0.31a34.36 34.36 0 0 0 2.42-15 33.88 33.88 0 0 0-4.37-14.42 35.46 35.46 0 0 0-10.28-11.22 33.88 33.88 0 0 0-14.19-5.6 34.3 34.3 0 0 0-15.32 1.18 34 34 0 0 0-16.64 53.39z" fill="#263238"/>
  <g fill="#455a64">
   <path d="m508.48 149a10 10 0 0 0-10.65 16.77 10.23 10.23 0 0 0 2.31 1.48 9.9 9.9 0 0 0 4.17 0.9h0.92a10 10 0 0 0 3.25-19.15zm4.52 13.14a9.55 9.55 0 0 1-12.68 4.73 10.1 10.1 0 0 1-2.22-1.41 9.58 9.58 0 0 1 2.9-16.29 9.51 9.51 0 0 1 7.31 0.26 9.63 9.63 0 0 1 4.69 12.71zm-4.52-13.14a10 10 0 0 0-10.65 16.77 10.23 10.23 0 0 0 2.31 1.48 9.9 9.9 0 0 0 4.17 0.9h0.92a10 10 0 0 0 3.25-19.15zm4.52 13.14a9.55 9.55 0 0 1-12.68 4.73 10.1 10.1 0 0 1-2.22-1.41 9.58 9.58 0 0 1 2.9-16.29 9.51 9.51 0 0 1 7.31 0.26 9.63 9.63 0 0 1 4.69 12.71zm4.23-8.8a13.87 13.87 0 0 0-2.83-4.59 13.81 13.81 0 1 0-18 20.74l-1.82 3.9-0.19 0.41 6.08 2.82 0.19-0.41 2-4.34a13.81 13.81 0 0 0 14.55-18.53zm-0.8 10.37a13.28 13.28 0 0 1-13.85 7.69h-0.17l-2.13 4.6-5.28-2.42 2-4.24-0.15-0.11a13.36 13.36 0 1 1 19.61-5.52z"/>
   <path d="m516.82 153.49a13.28 13.28 0 0 0-7-7.48 13.18 13.18 0 0 0-10.22-0.36 13.36 13.36 0 0 0-2.8 23.58l0.15 0.11-2 4.24 5.26 2.44 2.15-4.64h0.17a13.36 13.36 0 0 0 14.22-17.91zm-3.39 8.84a10.08 10.08 0 0 1-8.19 5.81h-0.92a9.9 9.9 0 0 1-4.17-0.9 10.23 10.23 0 0 1-2.31-1.48 10 10 0 1 1 15.6-3.47z"/>
   <path d="m500.69 176.21-0.41-0.19-5.28-2.44-0.41-0.19-1.19-0.55-6.54 14.1 8.38 3.81 6.53-14zm-5.64 13.95-7.58-3.44 6.16-13.28 0.79 0.36 6.08 2.82 0.68 0.31z"/>
  </g>
 </g>
</svg>
