<svg width="456.8" height="436.49" version="1.1" viewBox="0 0 456.8 436.49" xmlns="http://www.w3.org/2000/svg">
 <g transform="translate(-17.085 -28.149)">
  <ellipse cx="244.62" cy="328.65" rx="201.17" ry="116.15" fill="#f5f5f5"/>
  <path d="m315.38 458.19 154.24-89.05c3.38-1.95 3.38-5.11 0-7.06l-283.52-162.98a13.54 13.54 0 0 0-12.24 0l-154.24 89c-3.38 2-3.38 5.12 0 7.07l283.53 163a13.52 13.52 0 0 0 12.23 0.02z" fill="#e0e0e0"/>
  <path d="m432 464.64a3.94 3.94 0 0 1-3.25-1.83l-25.52-35.81a3.8 3.8 0 0 1-0.5-4.07 3.54 3.54 0 0 1 3.23-1.87 5.48 5.48 0 0 1 1.17 0.14l63.68 15.14c3.06 0.73 3.12 2.89 3.07 3.53s-0.48 2.76-3.62 3l-31.46 2-3.16 16.43a3.75 3.75 0 0 1-3.65 3.33z" fill="#e0e0e0"/>
  <path d="m314.47 107.61a1.67 1.67 0 0 0-1-1.33 5.25 5.25 0 0 0-4.76 0 1.7 1.7 0 0 0-1 1.33v154.17h6.73v-154.17z" fill="#37474f"/>
  <path d="m314.47 107.61c0-1-1.5-1.9-3.36-1.9s-3.36 0.85-3.36 1.9 1.5 1.91 3.36 1.91 3.36-0.86 3.36-1.91z" fill="#455a64"/>
  <polygon points="279.93 119.88 286.53 131.31 330.43 156.68 330.43 141.43 286.53 116.07" fill="#ffc300"/>
  <g opacity=".4">
   <polygon points="279.93 119.88 286.53 131.31 330.43 156.68 330.43 141.43 286.53 116.07"/>
  </g>
  <polygon points="333.79 139.56 330.43 141.43 286.53 116.07 289.83 114.16" fill="#ffc300"/>
  <g opacity=".3">
   <polygon points="333.79 139.56 330.43 141.43 286.53 116.07 289.83 114.16"/>
  </g>
  <polygon points="330.43 141.43 333.79 139.56 333.79 154.81 330.43 156.68" fill="#ffc300"/>
  <polygon points="330.43 141.43 333.79 139.56 333.79 154.81 330.43 156.68" opacity=".55"/>
  <text transform="matrix(.65 .38 0 1 288.9 128.09)" fill="#ffffff" font-family="Rubik-Bold, Rubik" font-size="9.6825px" font-weight="700">2nd St<tspan x="34.900002" y="0" letter-spacing=".04505em">r</tspan><tspan x="39.779999" y="0" letter-spacing=".049891em">e</tspan><tspan x="46.139999" y="0" letter-spacing=".045991em">e</tspan><tspan x="52.459999" y="0" letter-spacing=".049891em">t</tspan></text>
  <path d="m439.17 338.13-5.37-4.63s0.21-16.56 5.05-29.88c6.82-18.73 21.27-22.83 25.68-20s4.41 8.79-6.39 18.28c-6.38 5.62-15.64 18.27-18.97 36.23z" fill="#ffc300"/>
  <g opacity=".15">
   <path d="m439.17 338.13-5.37-4.63s0.21-16.56 5.05-29.88c6.82-18.73 21.27-22.83 25.68-20s4.41 8.79-6.39 18.28c-6.38 5.62-15.64 18.27-18.97 36.23z"/>
  </g>
  <path d="m438.48 330h0.06a0.44 0.44 0 0 0 0.46-0.42c1-18.57 12.16-37 21.88-43.38a0.43 0.43 0 0 0 0.13-0.6 0.45 0.45 0 0 0-0.61-0.13c-9.91 6.51-21.24 25.21-22.28 44.06a0.44 0.44 0 0 0 0.36 0.47z" fill="#fff"/>
  <path d="m455 351.1c0.85 0.73 3.06-0.09 3.91-0.45a9.14 9.14 0 0 0 3.71-2.89 8.7 8.7 0 0 0 1.76-5 19.49 19.49 0 0 0-0.12-2.86l-0.24-2.8a6.87 6.87 0 0 1 0.13-2.75c0.58-1.76 2.44-2.72 4.11-3.53 1.86-0.9 3.85-2.17 4.27-4.35a7.84 7.84 0 0 0-1-4.94c-0.79-1.53-1.8-2.94-2.47-4.51a5.41 5.41 0 0 1-0.44-3.61 5.61 5.61 0 0 1 1.15-2 30.68 30.68 0 0 0 3.15-3.8 4.37 4.37 0 0 0 0.08-4.61 5.06 5.06 0 0 0-3.57-1.66 8.67 8.67 0 0 0-3.73 0.55c-3.84 1.25-6.62 5-10.58 5.73a36.18 36.18 0 0 1-4.66 0.22 5.63 5.63 0 0 0-4.16 1.8c-1.87 2.43 0 6.24-1.52 8.92-1.34 2.37-4 2.86-5.81 4.87a5.49 5.49 0 0 0-1.29 3.19 16.1 16.1 0 0 0 0.31 5.87 39.48 39.48 0 0 0 2.09 5.64c0.08 0.07 14.8 12.87 14.92 12.97z" fill="#ffc300"/>
  <path d="m446.21 344a0.44 0.44 0 0 0 0.51-0.36c2.62-17.27 14.37-34.6 21.31-38.95a0.45 0.45 0 0 0 0.14-0.6 0.44 0.44 0 0 0-0.61-0.14c-7.08 4.43-19.05 22.05-21.71 39.55a0.44 0.44 0 0 0 0.36 0.5z" fill="#fff"/>
  <path d="m452.72 324.22h0.13a59.11 59.11 0 0 1 12.81 0.41 0.45 0.45 0 0 0 0.51-0.37 0.43 0.43 0 0 0-0.37-0.5 60.28 60.28 0 0 0-13.05-0.42 0.44 0.44 0 0 0 0 0.87z" fill="#fff"/>
  <g fill="#ebebeb">
   <path d="m158.78 137.31-5 2.89a5 5 0 0 0 0-0.66v-1.45c0-2.58-1.81-3.62-4-2.33a7.87 7.87 0 0 0-2.41 2.31c-0.36-3.24-2.91-4.45-6-2.66a13.34 13.34 0 0 0-6 10.47v2.12a5.8 5.8 0 0 0 0.51 2.51l-4.15 2.4a5 5 0 0 0-2.24 3.88c0 1.43 1 2 2.24 1.3l27.09-15.64a5 5 0 0 0 2.24-3.88c-0.06-1.39-1.06-1.97-2.28-1.26z"/>
   <path d="m179.55 150.19-3.67 2.12a4.22 4.22 0 0 0 0-0.49v-1.06c0-1.89-1.33-2.66-3-1.71a5.68 5.68 0 0 0-1.76 1.7c-0.27-2.38-2.13-3.26-4.4-2a9.8 9.8 0 0 0-4.43 7.68v1.59a4.18 4.18 0 0 0 0.37 1.84l-3 1.76a3.6 3.6 0 0 0-1.64 2.84c0 1.05 0.73 1.47 1.64 0.95l19.89-11.41a3.6 3.6 0 0 0 1.64-2.84c0-1.07-0.73-1.49-1.64-0.97z"/>
  </g>
  <path d="m456.08 341.86c2.13 1.65 1.9 4-0.68 5.47l-141.19 81.52a11.4 11.4 0 0 1-10.27 0l-269.82-155.79c-2.62-1.51-2.83-3.88-0.61-5.52a11.42 11.42 0 0 0-4.51 8.46v6.79a11.3 11.3 0 0 0 5.14 8.9l269.78 155.81a11.35 11.35 0 0 0 10.28 0l141.19-81.5a11.31 11.31 0 0 0 5.13-8.89v-6.8a11.48 11.48 0 0 0-4.44-8.45z" fill="#455a64"/>
  <path d="m455.4 341.41-269.83-155.79a11.43 11.43 0 0 0-10.27 0l-141.18 81.52c-2.84 1.63-2.84 4.29 0 5.92l269.82 155.79a11.4 11.4 0 0 0 10.27 0l141.19-81.52c2.83-1.63 2.83-4.33 0-5.92z" fill="#37474f"/>
  <path d="m33.51 267.54a11.42 11.42 0 0 0-4.51 8.46v6.79a11.32 11.32 0 0 0 5.14 8.9l269.78 155.81a10.54 10.54 0 0 0 5.15 1.23v-18.66a10.58 10.58 0 0 1-5.14-1.22l-269.81-155.79c-2.62-1.51-2.83-3.88-0.61-5.52z" fill="#263238"/>
  <path d="m103.14 240.62c1.44-0.83 1.44-2.18 0-3a5.72 5.72 0 0 0-5.22 0c-1.45 0.83-1.45 2.18 0 3a5.78 5.78 0 0 0 5.22 0z"/>
  <path d="m110.2 236.06 20.15-11.63c1.21-0.69 1.27-1.79 0.14-2.44a4.69 4.69 0 0 0-4.22 0.08l-20.15 11.64c-1.2 0.69-1.26 1.78-0.14 2.43a4.66 4.66 0 0 0 4.22-0.08z"/>
  <path d="m194.71 198.12c-2.42-1.4-5-0.59-7.38 0.82l-132 76.14c-2.43 1.4-2.44 3.67 0 5.08l239.49 138.3a9.76 9.76 0 0 0 8.81 0l132-76.15c2.44-1.4 2.43-3.68 0-5.08z" fill="#ffc300"/>
  <path d="m194.71 198.12c-2.42-1.4-5-0.59-7.38 0.82l-132 76.14c-2.43 1.4-2.44 3.67 0 5.08l239.49 138.3a9.76 9.76 0 0 0 8.81 0l132-76.15c2.44-1.4 2.43-3.68 0-5.08z" fill="#fff" opacity=".96"/>
  <g fill="#ffc300" opacity=".4">
   <path d="m299.26 416.22 49.74-28.7-8.35-2.41a101.22 101.22 0 0 0-78.65 9.59z"/>
   <path d="m357.55 382.57 74.27-42.88-49.71-28.69-29.33 70.2z"/>
   <path d="m373.83 306.21-29 72.69c-17.14-5.44-32.52-6.27-50.13-3.24l28-68.94 40.68-6.54z"/>
   <path d="m281.87 378.45 10.16-25-78.93-9.36-13.25 14.74 55 31.76a112.69 112.69 0 0 1 27.02-12.14z"/>
   <polygon points="324.65 301.91 332.56 282.41 357.26 296.64"/>
   <ellipse cx="174.99" cy="289.47" rx="8.79" ry="5.07"/>
   <path d="m310.45 307.21-122.09-14.47c-1.29 2.94-3.49 3.6-8.62 4.72l34.06 39 81.2 9.54z"/>
   <path d="m252.44 270.37-9 21.75-55.44-6.58a12.65 12.65 0 0 0-4.76-3.07l7.61-19.4z"/>
   <polygon points="252.76 293.22 262.31 269.71 323.09 276.92 313.56 300.43"/>
   <polygon points="193.54 256.32 311.69 270.33 210.98 212.19"/>
   <path d="m167.62 296.77 37.19 42.53-13.25 14.7-71.89-41.5 44.33-17.4a16.84 16.84 0 0 0 3.62 1.67z"/>
   <polygon points="191.56 200.98 112.38 246.69 185.35 255.35 203.99 208.15"/>
   <path d="m101.78 252.7-42.78 24.81 53.85 31.09 47.5-18.72c-0.1-2.28 1-4.47 4.48-6.51 2.86-1.65 6.43-2.27 10.38-2.36l7.41-18.91z"/>
  </g>
  <g fill="#ffc300">
   <polygon points="220.56 241.64 220.56 256.44 197.69 253.74 197.69 238.93"/>
   <polygon points="225.27 244.78 220.56 256.44 220.56 241.64 225.27 228.45"/>
   <polygon points="197.69 238.93 220.56 241.64 225.27 228.45 202.89 225.75"/>
  </g>
  <g fill="#fff">
   <polygon points="220.56 241.64 220.56 256.44 197.69 253.74 197.69 238.93" opacity=".8"/>
   <polygon points="225.27 244.78 220.56 256.44 220.56 241.64 225.27 228.45" opacity=".75"/>
   <polygon points="197.69 238.93 220.56 241.64 225.27 228.45 202.89 225.75" opacity=".9"/>
  </g>
  <g fill="#ffc300">
   <polygon points="235.56 281.43 235.56 288.07 212.68 285.36 212.68 278.73"/>
   <polygon points="239.64 278.16 235.56 288.07 235.56 281.43 239.64 270"/>
   <polygon points="212.68 278.73 235.56 281.43 239.64 270 217.25 267.3"/>
  </g>
  <g fill="#fff">
   <polygon points="235.56 281.43 235.56 288.07 212.68 285.36 212.68 278.73" opacity=".8"/>
   <polygon points="239.64 278.16 235.56 288.07 235.56 281.43 239.64 270" opacity=".75"/>
   <polygon points="212.68 278.73 235.56 281.43 239.64 270 217.25 267.3" opacity=".9"/>
  </g>
  <g fill="#ffc300">
   <polygon points="279.6 360.57 279.6 375.38 256.73 372.67 256.73 357.87"/>
   <polygon points="284.32 363.72 279.6 375.38 279.6 360.57 284.32 347.39"/>
   <polygon points="256.73 357.87 279.6 360.57 284.32 347.39 261.94 344.69"/>
  </g>
  <g fill="#fff">
   <polygon points="279.6 360.57 279.6 375.38 256.73 372.67 256.73 357.87" opacity=".8"/>
   <polygon points="284.32 363.72 279.6 375.38 279.6 360.57 284.32 347.39" opacity=".75"/>
   <polygon points="256.73 357.87 279.6 360.57 284.32 347.39 261.94 344.69" opacity=".9"/>
  </g>
  <g fill="#ffc300">
   <polygon points="267.92 256.32 267.92 261.77 256.34 260.4 256.34 254.95"/>
   <polygon points="270.3 255.87 267.92 261.77 267.92 256.32 270.3 249.64"/>
   <polygon points="256.34 254.95 267.92 256.32 270.3 249.64 258.97 248.28"/>
  </g>
  <g fill="#fff">
   <polygon points="267.92 256.32 267.92 261.77 256.34 260.4 256.34 254.95" opacity=".8"/>
   <polygon points="270.3 255.87 267.92 261.77 267.92 256.32 270.3 249.64" opacity=".75"/>
   <polygon points="256.34 254.95 267.92 256.32 270.3 249.64 258.97 248.28" opacity=".9"/>
  </g>
  <g fill="#ffc300">
   <polygon points="188.8 228.73 188.8 236.67 171.96 234.68 171.96 226.74"/>
   <polygon points="192.27 228.09 188.8 236.67 188.8 228.73 192.27 219.03"/>
   <polygon points="171.96 226.74 188.8 228.73 192.27 219.03 175.79 217.04"/>
  </g>
  <g fill="#fff">
   <polygon points="188.8 228.73 188.8 236.67 171.96 234.68 171.96 226.74" opacity=".8"/>
   <polygon points="192.27 228.09 188.8 236.67 188.8 228.73 192.27 219.03" opacity=".75"/>
   <polygon points="171.96 226.74 188.8 228.73 192.27 219.03 175.79 217.04" opacity=".9"/>
  </g>
  <g fill="#ffc300">
   <polygon points="273.37 286 273.37 293.08 258.35 291.3 258.35 284.23"/>
   <polygon points="276.46 285.43 273.37 293.08 273.37 286 276.46 277.35"/>
   <polygon points="258.35 284.23 273.37 286 276.46 277.35 261.77 275.58"/>
  </g>
  <g fill="#fff">
   <polygon points="273.37 286 273.37 293.08 258.35 291.3 258.35 284.23" opacity=".8"/>
   <polygon points="276.46 285.43 273.37 293.08 273.37 286 276.46 277.35" opacity=".75"/>
   <polygon points="258.35 284.23 273.37 286 276.46 277.35 261.77 275.58" opacity=".9"/>
  </g>
  <g fill="#ffc300">
   <polygon points="205.68 277.4 205.68 284.69 190.23 282.86 190.23 275.58"/>
   <polygon points="208.86 276.81 205.68 284.69 205.68 277.4 208.86 268.5"/>
   <polygon points="190.23 275.58 205.68 277.4 208.86 268.5 193.75 266.68"/>
  </g>
  <g fill="#fff">
   <polygon points="205.68 277.4 205.68 284.69 190.23 282.86 190.23 275.58" opacity=".8"/>
   <polygon points="208.86 276.81 205.68 284.69 205.68 277.4 208.86 268.5" opacity=".75"/>
   <polygon points="190.23 275.58 205.68 277.4 208.86 268.5 193.75 266.68" opacity=".9"/>
  </g>
  <g fill="#ffc300">
   <polygon points="292.8 288.24 292.8 295.32 277.78 293.54 277.78 286.46"/>
   <polygon points="295.89 287.66 292.8 295.32 292.8 288.24 295.89 279.59"/>
   <polygon points="277.78 286.46 292.8 288.24 295.89 279.59 281.2 277.81"/>
  </g>
  <g fill="#fff">
   <polygon points="292.8 288.24 292.8 295.32 277.78 293.54 277.78 286.46" opacity=".8"/>
   <polygon points="295.89 287.66 292.8 295.32 292.8 288.24 295.89 279.59" opacity=".75"/>
   <polygon points="277.78 286.46 292.8 288.24 295.89 279.59 281.2 277.81" opacity=".9"/>
  </g>
  <g fill="#ffc300">
   <polygon points="312.22 290.48 312.22 297.55 297.21 295.78 297.21 288.7"/>
   <polygon points="315.32 289.9 312.22 297.55 312.22 290.48 315.32 281.82"/>
   <polygon points="297.21 288.7 312.22 290.48 315.32 281.82 300.63 280.05"/>
  </g>
  <g fill="#fff">
   <polygon points="312.22 290.48 312.22 297.55 297.21 295.78 297.21 288.7" opacity=".8"/>
   <polygon points="315.32 289.9 312.22 297.55 312.22 290.48 315.32 281.82" opacity=".75"/>
   <polygon points="297.21 288.7 312.22 290.48 315.32 281.82 300.63 280.05" opacity=".9"/>
  </g>
  <g fill="#ffc300">
   <polygon points="132.53 266.87 132.53 273.95 117.51 272.17 117.51 265.09"/>
   <polygon points="135.62 266.29 132.53 273.95 132.53 266.87 135.62 258.22"/>
   <polygon points="117.51 265.09 132.53 266.87 135.62 258.22 120.93 256.44"/>
  </g>
  <g fill="#fff">
   <polygon points="132.53 266.87 132.53 273.95 117.51 272.17 117.51 265.09" opacity=".8"/>
   <polygon points="135.62 266.29 132.53 273.95 132.53 266.87 135.62 258.22" opacity=".75"/>
   <polygon points="117.51 265.09 132.53 266.87 135.62 258.22 120.93 256.44" opacity=".9"/>
  </g>
  <g fill="#ffc300">
   <polygon points="151.96 269.11 151.96 276.18 136.94 274.41 136.94 267.33"/>
   <polygon points="155.05 268.53 151.96 276.18 151.96 269.11 155.05 260.45"/>
   <polygon points="136.94 267.33 151.96 269.11 155.05 260.45 140.36 258.68"/>
  </g>
  <g fill="#fff">
   <polygon points="151.96 269.11 151.96 276.18 136.94 274.41 136.94 267.33" opacity=".8"/>
   <polygon points="155.05 268.53 151.96 276.18 151.96 269.11 155.05 260.45" opacity=".75"/>
   <polygon points="136.94 267.33 151.96 269.11 155.05 260.45 140.36 258.68" opacity=".9"/>
  </g>
  <g fill="#ffc300">
   <polygon points="171.38 271.35 171.38 278.42 156.37 276.64 156.37 269.57"/>
   <polygon points="174.48 270.77 171.38 278.42 171.38 271.35 174.48 262.69"/>
   <polygon points="156.37 269.57 171.38 271.35 174.48 262.69 159.78 260.92"/>
  </g>
  <g fill="#fff">
   <polygon points="171.38 271.35 171.38 278.42 156.37 276.64 156.37 269.57" opacity=".8"/>
   <polygon points="174.48 270.77 171.38 278.42 171.38 271.35 174.48 262.69" opacity=".75"/>
   <polygon points="156.37 269.57 171.38 271.35 174.48 262.69 159.78 260.92" opacity=".9"/>
  </g>
  <polygon points="362.98 246.75 362.98 250.96 350.25 249.46 350.25 245.25" fill="#ffc300"/>
  <polygon points="362.98 246.75 362.98 250.96 350.25 249.46 350.25 245.25" fill="#fff" opacity=".8"/>
  <polygon points="364.84 246.41 362.98 250.96 362.98 246.75 364.84 241.29" fill="#ffc300"/>
  <polygon points="364.84 246.41 362.98 250.96 362.98 246.75 364.84 241.29" fill="#fff" opacity=".75"/>
  <polygon points="350.25 245.25 362.98 246.75 364.84 241.29 352.4 239.8" fill="#ffc300"/>
  <polygon points="350.25 245.25 362.98 246.75 364.84 241.29 352.4 239.8" fill="#fff" opacity=".9"/>
  <g fill="#ffc300">
   <polygon points="275.01 333.23 275.01 340.31 259.99 338.53 259.99 331.45"/>
   <polygon points="278.1 332.65 275.01 340.31 275.01 333.23 278.1 324.57"/>
   <polygon points="259.99 331.45 275.01 333.23 278.1 324.57 263.41 322.8"/>
  </g>
  <g fill="#fff">
   <polygon points="275.01 333.23 275.01 340.31 259.99 338.53 259.99 331.45" opacity=".8"/>
   <polygon points="278.1 332.65 275.01 340.31 275.01 333.23 278.1 324.57" opacity=".75"/>
   <polygon points="259.99 331.45 275.01 333.23 278.1 324.57 263.41 322.8" opacity=".9"/>
  </g>
  <g fill="#ffc300">
   <polygon points="293.75 335.46 293.75 342.54 278.73 340.76 278.73 333.69"/>
   <polygon points="296.85 334.88 293.75 342.54 293.75 335.46 296.85 326.81"/>
   <polygon points="278.73 333.69 293.75 335.46 296.85 326.81 282.15 325.04"/>
  </g>
  <g fill="#fff">
   <polygon points="293.75 335.46 293.75 342.54 278.73 340.76 278.73 333.69" opacity=".8"/>
   <polygon points="296.85 334.88 293.75 342.54 293.75 335.46 296.85 326.81" opacity=".75"/>
   <polygon points="278.73 333.69 293.75 335.46 296.85 326.81 282.15 325.04" opacity=".9"/>
  </g>
  <g fill="#ffc300">
   <polygon points="227.57 356.94 227.57 364.02 212.55 362.24 212.55 355.17"/>
   <polygon points="230.66 356.37 227.57 364.02 227.57 356.94 230.66 348.29"/>
   <polygon points="212.55 355.17 227.57 356.94 230.66 348.29 215.97 346.51"/>
  </g>
  <g fill="#fff">
   <polygon points="227.57 356.94 227.57 364.02 212.55 362.24 212.55 355.17" opacity=".8"/>
   <polygon points="230.66 356.37 227.57 364.02 227.57 356.94 230.66 348.29" opacity=".75"/>
   <polygon points="212.55 355.17 227.57 356.94 230.66 348.29 215.97 346.51" opacity=".9"/>
  </g>
  <g fill="#ffc300">
   <polygon points="246.31 359.18 246.31 366.25 231.29 364.48 231.29 357.4"/>
   <polygon points="249.41 358.6 246.31 366.25 246.31 359.18 249.41 350.52"/>
   <polygon points="231.29 357.4 246.31 359.18 249.41 350.52 234.71 348.75"/>
  </g>
  <g fill="#fff">
   <polygon points="246.31 359.18 246.31 366.25 231.29 364.48 231.29 357.4" opacity=".8"/>
   <polygon points="249.41 358.6 246.31 366.25 246.31 359.18 249.41 350.52" opacity=".75"/>
   <polygon points="231.29 357.4 246.31 359.18 249.41 350.52 234.71 348.75" opacity=".9"/>
  </g>
  <g fill="#ffc300">
   <polygon points="360.26 323.35 360.26 330.42 345.25 328.65 345.25 321.57"/>
   <polygon points="363.36 322.77 360.26 330.42 360.26 323.35 363.36 314.69"/>
   <polygon points="345.25 321.57 360.26 323.35 363.36 314.69 348.66 312.92"/>
  </g>
  <g fill="#fff">
   <polygon points="360.26 323.35 360.26 330.42 345.25 328.65 345.25 321.57" opacity=".8"/>
   <polygon points="363.36 322.77 360.26 330.42 360.26 323.35 363.36 314.69" opacity=".75"/>
   <polygon points="345.25 321.57 360.26 323.35 363.36 314.69 348.66 312.92" opacity=".9"/>
  </g>
  <g fill="#ffc300">
   <polygon points="354.37 337.93 354.37 345.01 339.36 343.23 339.36 336.15"/>
   <polygon points="357.47 337.35 354.37 345.01 354.37 337.93 357.47 329.27"/>
   <polygon points="339.36 336.15 354.37 337.93 357.47 329.27 342.77 327.5"/>
  </g>
  <g fill="#fff">
   <polygon points="354.37 337.93 354.37 345.01 339.36 343.23 339.36 336.15" opacity=".8"/>
   <polygon points="357.47 337.35 354.37 345.01 354.37 337.93 357.47 329.27" opacity=".75"/>
   <polygon points="339.36 336.15 354.37 337.93 357.47 329.27 342.77 327.5" opacity=".9"/>
  </g>
  <g fill="#ffc300">
   <polygon points="348.48 352.51 348.48 359.59 333.46 357.81 333.46 350.73"/>
   <polygon points="351.58 351.93 348.48 359.59 348.48 352.51 351.58 343.85"/>
   <polygon points="333.46 350.73 348.48 352.51 351.58 343.85 336.88 342.08"/>
  </g>
  <g fill="#fff">
   <polygon points="348.48 352.51 348.48 359.59 333.46 357.81 333.46 350.73" opacity=".8"/>
   <polygon points="351.58 351.93 348.48 359.59 348.48 352.51 351.58 343.85" opacity=".75"/>
   <polygon points="333.46 350.73 348.48 352.51 351.58 343.85 336.88 342.08" opacity=".9"/>
  </g>
  <g fill="#ffc300">
   <polygon points="342.59 367.09 342.59 374.17 327.57 372.39 327.57 365.32"/>
   <polygon points="345.69 366.51 342.59 374.17 342.59 367.09 345.69 358.44"/>
   <polygon points="327.57 365.32 342.59 367.09 345.69 358.44 330.99 356.66"/>
  </g>
  <g fill="#fff">
   <polygon points="342.59 367.09 342.59 374.17 327.57 372.39 327.57 365.32" opacity=".8"/>
   <polygon points="345.69 366.51 342.59 374.17 342.59 367.09 345.69 358.44" opacity=".75"/>
   <polygon points="327.57 365.32 342.59 367.09 345.69 358.44 330.99 356.66" opacity=".9"/>
  </g>
  <g fill="#ffc300">
   <polygon points="334.77 320.38 334.77 327.46 319.75 325.68 319.75 318.61"/>
   <polygon points="337.87 319.8 334.77 327.46 334.77 320.38 337.87 311.73"/>
   <polygon points="319.75 318.61 334.77 320.38 337.87 311.73 323.17 309.95"/>
  </g>
  <g fill="#fff">
   <polygon points="334.77 320.38 334.77 327.46 319.75 325.68 319.75 318.61" opacity=".8"/>
   <polygon points="337.87 319.8 334.77 327.46 334.77 320.38 337.87 311.73" opacity=".75"/>
   <polygon points="319.75 318.61 334.77 320.38 337.87 311.73 323.17 309.95" opacity=".9"/>
  </g>
  <g fill="#ffc300">
   <polygon points="328.88 334.96 328.88 342.04 313.86 340.26 313.86 333.19"/>
   <polygon points="331.98 334.39 328.88 342.04 328.88 334.96 331.98 326.31"/>
   <polygon points="313.86 333.19 328.88 334.96 331.98 326.31 317.28 324.54"/>
  </g>
  <g fill="#fff">
   <polygon points="328.88 334.96 328.88 342.04 313.86 340.26 313.86 333.19" opacity=".8"/>
   <polygon points="331.98 334.39 328.88 342.04 328.88 334.96 331.98 326.31" opacity=".75"/>
   <polygon points="313.86 333.19 328.88 334.96 331.98 326.31 317.28 324.54" opacity=".9"/>
  </g>
  <g fill="#ffc300">
   <polygon points="322.99 349.55 322.99 356.62 307.97 354.85 307.97 347.77"/>
   <polygon points="326.09 348.97 322.99 356.62 322.99 349.55 326.09 340.89"/>
   <polygon points="307.97 347.77 322.99 349.55 326.09 340.89 311.39 339.12"/>
  </g>
  <g fill="#fff">
   <polygon points="322.99 349.55 322.99 356.62 307.97 354.85 307.97 347.77" opacity=".8"/>
   <polygon points="326.09 348.97 322.99 356.62 322.99 349.55 326.09 340.89" opacity=".75"/>
   <polygon points="307.97 347.77 322.99 349.55 326.09 340.89 311.39 339.12" opacity=".9"/>
  </g>
  <g fill="#ffc300">
   <polygon points="317.1 364.13 317.1 371.2 302.08 369.43 302.08 362.35"/>
   <polygon points="320.2 363.55 317.1 371.2 317.1 364.13 320.2 355.47"/>
   <polygon points="302.08 362.35 317.1 364.13 320.2 355.47 305.5 353.7"/>
  </g>
  <g fill="#fff">
   <polygon points="317.1 364.13 317.1 371.2 302.08 369.43 302.08 362.35" opacity=".8"/>
   <polygon points="320.2 363.55 317.1 371.2 317.1 364.13 320.2 355.47" opacity=".75"/>
   <polygon points="302.08 362.35 317.1 364.13 320.2 355.47 305.5 353.7" opacity=".9"/>
  </g>
  <g fill="#ffc300">
   <polygon points="381.95 348.19 381.95 353.75 370.13 352.35 370.13 346.79"/>
   <polygon points="384.38 347.73 381.95 353.75 381.95 348.19 384.38 341.38"/>
   <polygon points="370.13 346.79 381.95 348.19 384.38 341.38 372.82 339.98"/>
  </g>
  <g fill="#fff">
   <polygon points="381.95 348.19 381.95 353.75 370.13 352.35 370.13 346.79" opacity=".8"/>
   <polygon points="384.38 347.73 381.95 353.75 381.95 348.19 384.38 341.38" opacity=".75"/>
   <polygon points="370.13 346.79 381.95 348.19 384.38 341.38 372.82 339.98" opacity=".9"/>
  </g>
  <g fill="#ffc300">
   <polygon points="376.04 364.58 376.04 370.14 364.23 368.75 364.23 363.18"/>
   <polygon points="378.48 364.12 376.04 370.14 376.04 364.58 378.48 357.77"/>
   <polygon points="364.23 363.18 376.04 364.58 378.48 357.77 366.92 356.37"/>
  </g>
  <g fill="#fff">
   <polygon points="376.04 364.58 376.04 370.14 364.23 368.75 364.23 363.18" opacity=".8"/>
   <polygon points="378.48 364.12 376.04 370.14 376.04 364.58 378.48 357.77" opacity=".75"/>
   <polygon points="364.23 363.18 376.04 364.58 378.48 357.77 366.92 356.37" opacity=".9"/>
  </g>
  <polygon points="256 311.28 256 337.79 237.38 335.6 237.38 309.08" fill="#ffc300"/>
  <polygon points="256 311.28 256 337.79 237.38 335.6 237.38 309.08" fill="#fff" opacity=".8"/>
  <polygon points="258.41 332.65 256 337.79 256 311.28 258.41 304.81" fill="#ffc300"/>
  <polygon points="258.41 332.65 256 337.79 256 311.28 258.41 304.81" fill="#fff" opacity=".75"/>
  <polygon points="237.38 309.08 256 311.28 258.41 304.81 240.22 302.63" fill="#ffc300"/>
  <polygon points="237.38 309.08 256 311.28 258.41 304.81 240.22 302.63" fill="#fff" opacity=".9"/>
  <polygon points="153.99 216.31 153.99 247.66 143.26 246.47 143.26 215.11" fill="#ffc300"/>
  <polygon points="153.99 216.31 153.99 247.66 143.26 246.47 143.26 215.11" fill="#fff" opacity=".8"/>
  <polygon points="156.4 242.52 153.99 247.66 153.99 216.31 156.4 209.84" fill="#ffc300"/>
  <polygon points="156.4 242.52 153.99 247.66 153.99 216.31 156.4 209.84" fill="#fff" opacity=".75"/>
  <polygon points="143.26 215.11 153.99 216.31 156.4 209.84 146.1 208.66" fill="#ffc300"/>
  <polygon points="143.26 215.11 153.99 216.31 156.4 209.84 146.1 208.66" fill="#fff" opacity=".9"/>
  <polygon points="160.87 218.33 160.87 245.99 155.19 245.37 155.19 217.72" fill="#ffc300"/>
  <polygon points="160.87 218.33 160.87 245.99 155.19 245.37 155.19 217.72" fill="#fff" opacity=".8"/>
  <polygon points="161.76 244.28 160.87 245.99 160.87 218.33 161.76 215.5" fill="#ffc300"/>
  <polygon points="161.76 244.28 160.87 245.99 160.87 218.33 161.76 215.5" fill="#fff" opacity=".75"/>
  <polygon points="155.19 217.72 160.87 218.33 161.76 215.5 156.44 214.89" fill="#ffc300"/>
  <polygon points="155.19 217.72 160.87 218.33 161.76 215.5 156.44 214.89" fill="#fff" opacity=".9"/>
  <polygon points="233.74 308.62 233.74 335.14 215.12 332.95 215.12 306.43" fill="#ffc300"/>
  <polygon points="233.74 308.62 233.74 335.14 215.12 332.95 215.12 306.43" fill="#fff" opacity=".8"/>
  <polygon points="236.16 330 233.74 335.14 233.74 308.62 236.16 302.16" fill="#ffc300"/>
  <polygon points="236.16 330 233.74 335.14 233.74 308.62 236.16 302.16" fill="#fff" opacity=".75"/>
  <polygon points="215.12 306.43 233.74 308.62 236.16 302.16 217.97 299.98" fill="#ffc300"/>
  <polygon points="215.12 306.43 233.74 308.62 236.16 302.16 217.97 299.98" fill="#fff" opacity=".9"/>
  <g fill="#ffc300">
   <polygon points="183.04 243.51 183.04 251.45 166.21 249.46 166.21 241.52"/>
   <polygon points="186.52 242.87 183.04 251.45 183.04 243.51 186.52 233.81"/>
   <polygon points="166.21 241.52 183.04 243.51 186.52 233.81 170.04 231.82"/>
  </g>
  <g fill="#fff">
   <polygon points="183.04 243.51 183.04 251.45 166.21 249.46 166.21 241.52" opacity=".8"/>
   <polygon points="186.52 242.87 183.04 251.45 183.04 243.51 186.52 233.81" opacity=".75"/>
   <polygon points="166.21 241.52 183.04 243.51 186.52 233.81 170.04 231.82" opacity=".9"/>
  </g>
  <polygon points="129.8 307.77 142.48 300.45 151.52 306.35 139.46 313.31" fill="#ffc300"/>
  <polygon points="129.8 307.77 142.48 300.45 151.52 306.35 139.46 313.31" fill="#fff" opacity=".9"/>
  <polygon points="139.46 313.31 139.46 319.08 129.8 313.51 129.8 307.77" fill="#ffc300"/>
  <polygon points="139.46 313.31 139.46 319.08 129.8 313.51 129.8 307.77" fill="#fff" opacity=".8"/>
  <polygon points="139.46 319.08 139.46 313.31 151.52 306.35 151.52 312.12" fill="#ffc300"/>
  <polygon points="139.46 319.08 139.46 313.31 151.52 306.35 151.52 312.12" fill="#fff" opacity=".75"/>
  <polygon points="143.29 315.72 155.97 308.41 165 314.3 152.94 321.26" fill="#ffc300"/>
  <polygon points="143.29 315.72 155.97 308.41 165 314.3 152.94 321.26" fill="#fff" opacity=".9"/>
  <polygon points="152.94 321.26 152.94 327.03 143.29 321.46 143.29 315.72" fill="#ffc300"/>
  <polygon points="152.94 321.26 152.94 327.03 143.29 321.46 143.29 315.72" fill="#fff" opacity=".8"/>
  <polygon points="152.94 327.03 152.94 321.26 165 314.3 165 320.07" fill="#ffc300"/>
  <polygon points="152.94 327.03 152.94 321.26 165 314.3 165 320.07" fill="#fff" opacity=".75"/>
  <polygon points="157.04 323.6 169.72 316.28 178.76 322.18 166.7 329.13" fill="#ffc300"/>
  <polygon points="157.04 323.6 169.72 316.28 178.76 322.18 166.7 329.13" fill="#fff" opacity=".9"/>
  <polygon points="166.7 329.13 166.7 334.91 157.04 329.33 157.04 323.6" fill="#ffc300"/>
  <polygon points="166.7 329.13 166.7 334.91 157.04 329.33 157.04 323.6" fill="#fff" opacity=".8"/>
  <polygon points="166.7 334.91 166.7 329.13 178.76 322.18 178.76 327.95" fill="#ffc300"/>
  <polygon points="166.7 334.91 166.7 329.13 178.76 322.18 178.76 327.95" fill="#fff" opacity=".75"/>
  <polygon points="176.56 327.15 189.24 319.84 198.28 325.73 186.22 332.69" fill="#ffc300"/>
  <polygon points="176.56 327.15 189.24 319.84 198.28 325.73 186.22 332.69" fill="#fff" opacity=".9"/>
  <polygon points="186.22 332.69 186.22 346.54 176.56 340.96 176.56 327.15" fill="#ffc300"/>
  <polygon points="186.22 332.69 186.22 346.54 176.56 340.96 176.56 327.15" fill="#fff" opacity=".8"/>
  <polygon points="186.22 346.54 186.22 332.69 198.28 325.73 198.28 339.57" fill="#ffc300"/>
  <polygon points="186.22 346.54 186.22 332.69 198.28 325.73 198.28 339.57" fill="#fff" opacity=".75"/>
  <polygon points="103.44 292.62 117.14 287.37 126.17 293.26 113.1 298.15" fill="#ffc300"/>
  <polygon points="103.44 292.62 117.14 287.37 126.17 293.26 113.1 298.15" fill="#fff" opacity=".9"/>
  <polygon points="113.1 298.15 113.1 303.93 103.44 298.35 103.44 292.62" fill="#ffc300"/>
  <polygon points="113.1 298.15 113.1 303.93 103.44 298.35 103.44 292.62" fill="#fff" opacity=".8"/>
  <polygon points="113.1 303.93 113.1 298.15 126.17 293.26 126.17 299.03" fill="#ffc300"/>
  <polygon points="113.1 303.93 113.1 298.15 126.17 293.26 126.17 299.03" fill="#fff" opacity=".75"/>
  <polygon points="124.39 284.62 138.09 279.37 147.13 285.26 134.05 290.16" fill="#ffc300"/>
  <polygon points="124.39 284.62 138.09 279.37 147.13 285.26 134.05 290.16" fill="#fff" opacity=".9"/>
  <polygon points="134.05 290.16 134.05 295.93 124.39 290.36 124.39 284.62" fill="#ffc300"/>
  <polygon points="134.05 290.16 134.05 295.93 124.39 290.36 124.39 284.62" fill="#fff" opacity=".8"/>
  <polygon points="134.05 295.93 134.05 290.16 147.13 285.26 147.13 291.04" fill="#ffc300"/>
  <polygon points="134.05 295.93 134.05 290.16 147.13 285.26 147.13 291.04" fill="#fff" opacity=".75"/>
  <polygon points="250.92 251.08 250.92 259.44 226.48 256.56 226.48 248.2" fill="#ffc300"/>
  <polygon points="250.92 251.08 250.92 259.44 226.48 256.56 226.48 248.2" fill="#fff" opacity=".75"/>
  <polygon points="256.08 246.67 250.92 259.44 250.92 251.08 256.08 236.63" fill="#ffc300"/>
  <polygon points="256.08 246.67 250.92 259.44 250.92 251.08 256.08 236.63" fill="#fff" opacity=".65"/>
  <polygon points="226.48 248.2 250.92 251.08 256.08 236.63 232.18 233.75" fill="#ffc300"/>
  <polygon points="226.48 248.2 250.92 251.08 256.08 236.63 232.18 233.75" fill="#fff" opacity=".9"/>
  <polygon points="248.76 207.59 248.76 248.37 229.62 246.12 229.62 205.34" fill="#ffc300"/>
  <polygon points="248.76 207.59 248.76 248.37 229.62 246.12 229.62 205.34" fill="#fff" opacity=".75"/>
  <polygon points="252.94 238.02 248.76 248.37 248.76 207.59 252.94 195.89" fill="#ffc300"/>
  <polygon points="252.94 238.02 248.76 248.37 248.76 207.59 252.94 195.89" fill="#fff" opacity=".65"/>
  <polygon points="229.62 205.34 248.76 207.59 252.94 195.89 234.24 193.64" fill="#ffc300"/>
  <polygon points="229.62 205.34 248.76 207.59 252.94 195.89 234.24 193.64" fill="#fff" opacity=".9"/>
  <polygon points="246.03 181.71 246.03 203.94 235.59 202.71 235.59 180.48" fill="#ffc300"/>
  <polygon points="246.03 181.71 246.03 203.94 235.59 202.71 235.59 180.48" fill="#fff" opacity=".75"/>
  <polygon points="248.31 198.3 246.03 203.94 246.03 181.71 248.31 175.33" fill="#ffc300"/>
  <polygon points="248.31 198.3 246.03 203.94 246.03 181.71 248.31 175.33" fill="#fff" opacity=".65"/>
  <polygon points="235.59 180.48 246.03 181.71 248.31 175.33 238.1 174.1" fill="#ffc300"/>
  <polygon points="235.59 180.48 246.03 181.71 248.31 175.33 238.1 174.1" fill="#fff" opacity=".9"/>
  <polygon points="365.43 253.21 365.43 317.47 346.28 315.22 346.28 250.96" fill="#ffc300"/>
  <polygon points="365.43 253.21 365.43 317.47 346.28 315.22 346.28 250.96" fill="#fff" opacity=".75"/>
  <polygon points="368.23 310.63 365.43 317.47 365.43 253.21 368.23 245.02" fill="#ffc300"/>
  <polygon points="368.23 310.63 365.43 317.47 365.43 253.21 368.23 245.02" fill="#fff" opacity=".65"/>
  <polygon points="346.28 250.96 365.43 253.21 368.23 245.02 349.52 242.77" fill="#ffc300"/>
  <polygon points="346.28 250.96 365.43 253.21 368.23 245.02 349.52 242.77" fill="#fff" opacity=".9"/>
  <polygon points="393.95 278.07 393.95 337.58 377.26 335.72 377.26 276.22" fill="#ffc300"/>
  <polygon points="393.95 278.07 393.95 337.58 377.26 335.72 377.26 276.22" fill="#fff" opacity=".75"/>
  <polygon points="397.71 329.58 393.95 337.58 393.95 278.07 397.71 268.02" fill="#ffc300"/>
  <polygon points="397.71 329.58 393.95 337.58 393.95 278.07 397.71 268.02" fill="#fff" opacity=".65"/>
  <polygon points="377.26 276.22 393.95 278.07 397.71 268.02 381.68 266.17" fill="#ffc300"/>
  <polygon points="377.26 276.22 393.95 278.07 397.71 268.02 381.68 266.17" fill="#fff" opacity=".9"/>
  <polygon points="404.67 281.23 404.67 334.97 395.83 334.02 395.83 280.28" fill="#ffc300"/>
  <polygon points="404.67 281.23 404.67 334.97 395.83 334.02 395.83 280.28" fill="#fff" opacity=".75"/>
  <polygon points="406.04 332.33 404.67 334.97 404.67 281.23 406.04 276.82" fill="#ffc300"/>
  <polygon points="406.04 332.33 404.67 334.97 404.67 281.23 406.04 276.82" fill="#fff" opacity=".65"/>
  <polygon points="395.83 280.28 404.67 281.23 406.04 276.82 397.77 275.88" fill="#ffc300"/>
  <polygon points="395.83 280.28 404.67 281.23 406.04 276.82 397.77 275.88" fill="#fff" opacity=".9"/>
  <polygon points="90.91 291.89 66.53 277.82 66.53 270.17 90.91 284.24" fill="#ffc300"/>
  <polygon points="90.91 291.89 66.53 277.82 66.53 270.17 90.91 284.24" opacity=".35"/>
  <polyline points="115.28 277.82 115.28 270.17 90.91 284.24 90.91 291.89" fill="#ffc300"/>
  <polygon points="90.91 291.89 115.28 277.82 115.28 270.17 90.91 284.24" opacity=".15"/>
  <polygon points="66.53 270.17 90.91 284.24 115.28 270.17 90.91 256.1" fill="#ffc300"/>
  <polygon points="66.53 270.17 90.91 284.24 115.28 270.17 90.91 256.1" opacity=".5"/>
  <polygon points="90.91 280.72 66.53 266.65 66.53 268.99 90.91 283.06" fill="#ffc300"/>
  <polygon points="90.91 280.72 66.53 266.65 66.53 268.99 90.91 283.06" opacity=".35"/>
  <polygon points="115.28 266.65 90.91 280.72 90.91 283.06 115.28 268.99" fill="#ffc300"/>
  <polygon points="115.28 266.65 90.91 280.72 90.91 283.06 115.28 268.99" opacity=".15"/>
  <polygon points="66.53 266.65 90.91 280.72 115.28 266.65 90.91 252.58" fill="#ffc300"/>
  <polygon points="66.53 266.65 90.91 280.72 115.28 266.65 90.91 252.58" opacity=".5"/>
  <polygon points="90.91 276.94 66.53 262.87 66.53 265.21 90.91 279.28" fill="#ffc300"/>
  <polygon points="90.91 276.94 66.53 262.87 66.53 265.21 90.91 279.28" opacity=".35"/>
  <polygon points="115.28 262.87 90.91 276.94 90.91 279.28 115.28 265.21" fill="#ffc300"/>
  <polygon points="115.28 262.87 90.91 276.94 90.91 279.28 115.28 265.21" opacity=".15"/>
  <polygon points="66.53 262.87 90.91 276.94 115.28 262.87 90.91 248.8" fill="#ffc300"/>
  <polygon points="66.53 262.87 90.91 276.94 115.28 262.87 90.91 248.8" opacity=".5"/>
  <g fill="#ffc300">
   <polygon points="70.6 203.5 70.6 262.57 90.91 274.3 90.91 215.22"/>
   <polygon points="111.22 262.57 90.91 274.3 90.91 215.22 111.22 203.5"/>
   <polygon points="70.6 203.5 90.91 215.22 111.22 203.5 90.91 191.77"/>
  </g>
  <polygon points="70.6 203.5 90.91 215.22 111.22 203.5 90.91 191.77" opacity=".4"/>
  <polygon points="70.6 203.5 70.6 262.57 90.91 274.3 90.91 215.22" opacity=".2"/>
  <g fill="#ffc300">
   <polygon points="74.66 153.52 74.66 203.5 90.91 212.88 90.91 163.12"/>
   <polygon points="107.15 153.52 107.15 203.5 90.91 212.88 90.91 163.12"/>
   <polygon points="74.66 153.52 90.91 163.12 107.15 153.52 90.91 144.25"/>
  </g>
  <polygon points="74.66 153.52 90.91 163.12 107.15 153.52 90.91 144.25" opacity=".4"/>
  <polygon points="74.66 153.52 74.66 203.5 90.91 212.88 90.91 163.12" opacity=".2"/>
  <polygon points="101.06 146.59 101.06 153.63 90.91 159.49 90.91 152.46" fill="#ffc300"/>
  <polygon points="90.91 152.46 90.91 159.49 80.75 153.63 80.75 146.59" fill="#ffc300"/>
  <polygon points="90.91 152.46 90.91 159.49 80.75 153.63 80.75 146.59" opacity=".2"/>
  <polygon points="80.75 146.59 90.91 152.46 101.06 146.59 90.91 140.73" fill="#ffc300"/>
  <polygon points="80.75 146.59 90.91 152.46 101.06 146.59 90.91 140.73" opacity=".4"/>
  <polygon points="97 146.59 90.91 150.11 90.91 117.28" fill="#ffc300"/>
  <polygon points="97 146.59 90.91 150.11 90.91 117.28" opacity=".1"/>
  <polygon points="90.91 150.11 84.74 146.59 90.91 117.28" fill="#ffc300"/>
  <polygon points="90.91 150.11 84.74 146.59 90.91 117.28" opacity=".25"/>
  <path d="m353.11 385.64a0.68 0.68 0 0 1-0.23-0.05c-0.13-0.07-13.58-6.82-34.26-7.77s-30.54 3-30.64 3a0.51 0.51 0 0 1-0.66-0.66l30.41-75.16-71.1-8.29a0.51 0.51 0 0 1-0.41-0.7l11.27-27.88-143.86-17.08a0.49 0.49 0 0 1-0.44-0.56 0.51 0.51 0 0 1 0.56-0.45l144.53 17.19a0.51 0.51 0 0 1 0.37 0.25 0.51 0.51 0 0 1 0 0.45l-11.28 27.89 71.1 8.29a0.52 0.52 0 0 1 0.38 0.24 0.53 0.53 0 0 1 0 0.46l-30.24 74.71c3.09-1 12.74-3.5 30-2.71 20.91 0.95 34.54 7.8 34.68 7.87a0.5 0.5 0 0 1 0.22 0.68 0.51 0.51 0 0 1-0.4 0.28z" fill="#455a64"/>
  <path d="m73.4 72.31v-3a37.43 37.43 0 0 1 1.9-11.31c3.09-9.55 9.6-18.69 17.13-23 4.79-2.77 9.16-3.11 12.51-1.45l-6.59-3.79a9.75 9.75 0 0 0-5.48-1.61 7.19 7.19 0 0 0-0.92 0.05c-0.32 0-0.64 0.06-1 0.11a8.05 8.05 0 0 0-1 0.18 9.94 9.94 0 0 0-1 0.27 16.83 16.83 0 0 0-2.07 0.76c-0.35 0.15-0.7 0.33-1.06 0.5s-0.72 0.38-1.07 0.58c-10.45 6.04-18.96 21.4-18.96 34.4v3c0 12.93 17.39 27 17.39 27l7 4a3 3 0 0 1-0.35-0.27c-5.15-4.91-16.43-16.47-16.43-26.42zm20.76-27.19a7.88 7.88 0 0 1 0.12 1v0.35a5.72 5.72 0 0 1 0 0.59c0 6.06-4.25 13.44-9.51 16.47l-0.57 0.31c-0.19 0.1-0.38 0.18-0.56 0.26l-0.55 0.23h-0.06c0.82 4.64 4.68 6.26 9.36 3.58 5.25-3 9.5-10.42 9.5-16.48 0.04-5.37-3.31-7.92-7.73-6.31z" fill="#ffc300"/>
  <path d="m73.4 72.31v-3a37.43 37.43 0 0 1 1.9-11.31c3.09-9.55 9.6-18.69 17.13-23 4.79-2.77 9.16-3.11 12.51-1.45l-6.59-3.79a9.75 9.75 0 0 0-5.48-1.61 7.19 7.19 0 0 0-0.92 0.05c-0.32 0-0.64 0.06-1 0.11a8.05 8.05 0 0 0-1 0.18 9.94 9.94 0 0 0-1 0.27 16.83 16.83 0 0 0-2.07 0.76c-0.35 0.15-0.7 0.33-1.06 0.5s-0.72 0.38-1.07 0.58c-10.45 6.04-18.96 21.4-18.96 34.4v3c0 12.93 17.39 27 17.39 27l7 4a3 3 0 0 1-0.35-0.27c-5.15-4.91-16.43-16.47-16.43-26.42z" opacity=".3"/>
  <path d="m94.16 45.12a7.88 7.88 0 0 1 0.12 1v0.35a5.72 5.72 0 0 1 0 0.59c0 6.06-4.25 13.44-9.51 16.47l-0.57 0.31c-0.19 0.1-0.38 0.18-0.56 0.26l-0.55 0.23h-0.06c0.82 4.64 4.68 6.26 9.36 3.58 5.25-3 9.5-10.42 9.5-16.48 0.04-5.37-3.31-7.92-7.73-6.31z" opacity=".5"/>
  <path d="m111.44 47.4c0-12.93-8.51-18.5-19-12.43s-19 21.46-19 34.39v3c0 10 11.28 21.51 16.47 26.3a2.56 2.56 0 0 0 4-0.76c4.48-9.17 17.53-36.8 17.53-47.51zm-19 20.51c-5.25 3-9.51 0.58-9.51-5.49s4.24-13.42 9.49-16.42 9.51-0.58 9.51 5.49-4.26 13.39-9.51 16.42z" fill="#ffc300"/>
  <path d="m111.44 47.4c0-12.93-8.51-18.5-19-12.43s-19 21.46-19 34.39v3c0 10 11.28 21.51 16.47 26.3a2.56 2.56 0 0 0 4-0.76c4.48-9.17 17.53-36.8 17.53-47.51zm-19 20.51c-5.25 3-9.51 0.58-9.51-5.49s4.24-13.42 9.49-16.42 9.51-0.58 9.51 5.49-4.26 13.39-9.51 16.42z" fill="#ffc300"/>
  <path d="m236.94 153.65v-1a12.26 12.26 0 0 1 0.63-3.72 13.89 13.89 0 0 1 5.63-7.57 4.3 4.3 0 0 1 4.11-0.48l-2.17-1.25a3.19 3.19 0 0 0-1.79-0.52h-0.66a1.91 1.91 0 0 0-0.33 0.06l-0.32 0.08a4.73 4.73 0 0 0-0.68 0.26l-0.35 0.16-0.36 0.19c-3.45 2-6.25 7-6.25 11.3v1c0 4.25 5.72 8.87 5.72 8.87l2.31 1.31-0.11-0.09c-1.67-1.54-5.38-5.33-5.38-8.6zm6.83-8.94a3.31 3.31 0 0 1 0 0.33v0.11a1.34 1.34 0 0 1 0 0.2 6.91 6.91 0 0 1-3.13 5.41l-0.18 0.1-0.19 0.09-0.18 0.07c0.26 1.52 1.53 2.05 3.07 1.17a6.92 6.92 0 0 0 3.12-5.41c0.04-1.78-1.06-2.6-2.51-2.07z" fill="#ffc300"/>
  <path d="m236.94 153.65v-1a12.26 12.26 0 0 1 0.63-3.72 13.89 13.89 0 0 1 5.63-7.57 4.3 4.3 0 0 1 4.11-0.48l-2.17-1.25a3.19 3.19 0 0 0-1.79-0.52h-0.66a1.91 1.91 0 0 0-0.33 0.06l-0.32 0.08a4.73 4.73 0 0 0-0.68 0.26l-0.35 0.16-0.36 0.19c-3.45 2-6.25 7-6.25 11.3v1c0 4.25 5.72 8.87 5.72 8.87l2.31 1.31-0.11-0.09c-1.67-1.54-5.38-5.33-5.38-8.6z" fill="#fff" opacity=".6"/>
  <path d="m243.74 144.71a3.31 3.31 0 0 1 0 0.33v0.11 0.2a6.9 6.9 0 0 1-3.12 5.41l-0.19 0.1-0.18 0.09-0.19 0.07c0.27 1.52 1.54 2.05 3.07 1.17a6.9 6.9 0 0 0 3.12-5.41c0.04-1.78-1.05-2.6-2.51-2.07z" fill="#fff" opacity=".6"/>
  <path d="m249.45 145.46c0-4.25-2.8-6.08-6.25-4.09s-6.2 7.06-6.2 11.31v1c0 3.27 3.7 7.06 5.41 8.64a0.84 0.84 0 0 0 1.33-0.25c1.47-3 5.76-12.09 5.76-15.61zm-6.25 6.74c-1.73 1-3.13 0.19-3.13-1.8a6.91 6.91 0 0 1 3.13-5.4c1.72-1 3.12-0.19 3.12 1.81a6.91 6.91 0 0 1-3.12 5.39z" fill="#ffc300"/>
  <path d="m249.45 145.46c0-4.25-2.8-6.08-6.25-4.09s-6.2 7.06-6.2 11.31v1c0 3.27 3.7 7.06 5.41 8.64a0.84 0.84 0 0 0 1.33-0.25c1.47-3 5.76-12.09 5.76-15.61zm-6.25 6.74c-1.73 1-3.13 0.19-3.13-1.8a6.91 6.91 0 0 1 3.13-5.4c1.72-1 3.12-0.19 3.12 1.81a6.91 6.91 0 0 1-3.12 5.39z" fill="#ffc300"/>
  <g opacity=".8">
   <path d="m249.45 145.46c0-4.25-2.8-6.08-6.25-4.09s-6.2 7.06-6.2 11.31v1c0 3.27 3.7 7.06 5.41 8.64a0.84 0.84 0 0 0 1.33-0.25c1.47-3 5.76-12.09 5.76-15.61zm-6.25 6.74c-1.73 1-3.13 0.19-3.13-1.8a6.91 6.91 0 0 1 3.13-5.4c1.72-1 3.12-0.19 3.12 1.81a6.91 6.91 0 0 1-3.12 5.39z" fill="#fff"/>
  </g>
  <path d="m353.41 219v-1a12.26 12.26 0 0 1 0.63-3.72 13.89 13.89 0 0 1 5.63-7.57 4.3 4.3 0 0 1 4.11-0.48l-2.17-1.23a3.22 3.22 0 0 0-1.8-0.52h-0.62l-0.32 0.06-0.33 0.08a5.85 5.85 0 0 0-0.68 0.26l-0.34 0.16-0.36 0.19c-3.45 2-6.25 7.05-6.25 11.3v1c0 4.25 5.72 8.87 5.72 8.87l2.31 1.31-0.11-0.09c-1.71-1.62-5.42-5.4-5.42-8.62zm6.83-8.94a3.31 3.31 0 0 1 0 0.33v0.11a1.34 1.34 0 0 1 0 0.2 6.91 6.91 0 0 1-3.13 5.41l-0.18 0.1-0.19 0.09-0.18 0.07c0.27 1.52 1.54 2 3.08 1.17a6.92 6.92 0 0 0 3.12-5.41c0.03-1.81-1.07-2.65-2.52-2.13z" fill="#ffc300"/>
  <path d="m353.41 219v-1a12.26 12.26 0 0 1 0.63-3.72 13.89 13.89 0 0 1 5.63-7.57 4.3 4.3 0 0 1 4.11-0.48l-2.17-1.23a3.22 3.22 0 0 0-1.8-0.52h-0.62l-0.32 0.06-0.33 0.08a5.85 5.85 0 0 0-0.68 0.26l-0.34 0.16-0.36 0.19c-3.45 2-6.25 7.05-6.25 11.3v1c0 4.25 5.72 8.87 5.72 8.87l2.31 1.31-0.11-0.09c-1.71-1.62-5.42-5.4-5.42-8.62z" fill="#fff" opacity=".6"/>
  <path d="m360.21 210a3.31 3.31 0 0 1 0 0.33v0.11 0.2a6.9 6.9 0 0 1-3.12 5.41l-0.19 0.1-0.18 0.09-0.19 0.07c0.27 1.52 1.54 2 3.07 1.17a6.9 6.9 0 0 0 3.12-5.41c0.04-1.75-1.06-2.59-2.51-2.07z" fill="#fff" opacity=".6"/>
  <path d="m365.92 210.76c0-4.25-2.8-6.08-6.25-4.09s-6.26 7.06-6.26 11.31v1c0 3.27 3.71 7.06 5.42 8.64a0.84 0.84 0 0 0 1.33-0.25c1.47-3 5.76-12.09 5.76-15.61zm-6.25 6.74c-1.73 1-3.13 0.19-3.13-1.8a6.91 6.91 0 0 1 3.13-5.42c1.72-1 3.12-0.19 3.12 1.81a6.91 6.91 0 0 1-3.12 5.41z" fill="#ffc300"/>
  <path d="m365.92 210.76c0-4.25-2.8-6.08-6.25-4.09s-6.26 7.06-6.26 11.31v1c0 3.27 3.71 7.06 5.42 8.64a0.84 0.84 0 0 0 1.33-0.25c1.47-3 5.76-12.09 5.76-15.61zm-6.25 6.74c-1.73 1-3.13 0.19-3.13-1.8a6.91 6.91 0 0 1 3.13-5.42c1.72-1 3.12-0.19 3.12 1.81a6.91 6.91 0 0 1-3.12 5.41z" fill="#ffc300"/>
  <g opacity=".8">
   <path d="m365.92 210.76c0-4.25-2.8-6.08-6.25-4.09s-6.26 7.06-6.26 11.31v1c0 3.27 3.71 7.06 5.42 8.64a0.84 0.84 0 0 0 1.33-0.25c1.47-3 5.76-12.09 5.76-15.61zm-6.25 6.74c-1.73 1-3.13 0.19-3.13-1.8a6.91 6.91 0 0 1 3.13-5.42c1.72-1 3.12-0.19 3.12 1.81a6.91 6.91 0 0 1-3.12 5.41z" fill="#fff"/>
  </g>
  <path d="m470.89 439.42v-8.77l-65.53-15.07v8.76a1.25 1.25 0 0 0 0.3 0.72l25.51 35.78c0.63 0.88 1.31 0.73 1.51-0.33l3.23-16.79a2.65 2.65 0 0 1 2.32-2l31.82-2c0.56-0.11 0.83-0.19 0.84-0.3z" fill="#ffc300"/>
  <path d="m470.89 439.42v-8.77l-65.53-15.07v8.76a1.25 1.25 0 0 0 0.3 0.72l25.51 35.78c0.63 0.88 1.31 0.73 1.51-0.33l3.23-16.79a2.65 2.65 0 0 1 2.32-2l31.82-2c0.56-0.11 0.83-0.19 0.84-0.3z" opacity=".3"/>
  <path d="m431.74 461.35c0.43 0.2 0.81-0.08 0.95-0.83l3.23-16.79a2.54 2.54 0 0 1 0.53-1.08v-12.33l-4.71 6.9z" opacity=".2"/>
  <path d="m432.69 451.74 3.23-16.74a2.65 2.65 0 0 1 2.32-2l31.83-2c1.07-0.07 1.09-0.33 0-0.58l-63.68-15.14c-1.05-0.25-1.39 0.26-0.76 1.14l25.51 35.78c0.67 0.8 1.35 0.6 1.55-0.46z" fill="#ffc300"/>
 </g>
</svg>
