<svg width="657.79" height="416.78" version="1.1" viewBox="0 0 657.79 416.78" xmlns="http://www.w3.org/2000/svg">
 <g transform="translate(-46.9 -45.75)">
  <polygon points="248.1 294.84 53.64 294.84 57.52 371.45 244.22 371.45" fill="#ebebeb"/>
  <g fill="#dbdbdb">
   <path d="m235.37 329.91h-78.05l-1.47-26.6h81.23zm-77.16-0.91h76.28l1.58-24.71h-79.22z"/>
   <path d="m233.93 360.5h-73.56l-1.19-24h76.25zm-72.66-0.94h71.73l1.39-22.12h-74.22z"/>
   <path d="m203.86 319.49h-13.12l-0.82-6.41h14.77zm-12.29-0.94h11.43l0.58-4.53h-12.58z"/>
   <path d="m203.86 351.71h-13.12l-0.82-6.42h14.77zm-12.29-0.94h11.43l0.58-4.53h-12.58z"/>
   <path d="m143.56 329.91h-78l-1.56-26.6h81.23zm-77.16-0.91h76.28l1.58-24.71h-79.26z"/>
   <path d="m142.12 360.5h-73.56l-1.19-24h76.25zm-72.66-0.94h71.77l1.39-22.12h-74.26z"/>
   <path d="m112.05 319.49h-13.12l-0.82-6.41h14.77zm-12.29-0.94h11.46l0.58-4.53h-12.62z"/>
   <path d="m112.05 351.71h-13.12l-0.82-6.42h14.77zm-12.29-0.94h11.46l0.58-4.53h-12.62z"/>
  </g>
  <polygon points="70.73 396.56 66.12 396.56 66.12 371.45 74.26 371.45 73.09 379.79" fill="#ebebeb"/>
  <polygon points="66.12 379.79 66.12 371.45 74.26 371.45 73.09 379.79" fill="#dbdbdb"/>
  <polygon points="231.01 396.56 235.62 396.56 235.62 371.45 227.48 371.45 228.65 379.79" fill="#ebebeb"/>
  <polygon points="235.62 379.79 235.62 371.45 227.48 371.45 228.65 379.79" fill="#dbdbdb"/>
  <g fill="#ebebeb">
   <path d="m643.81 326.52 13.36-0.28 6.58-0.11c2.19 0 4.36 0 6.55-0.05l-0.45 0.44-0.05-11.19 0.5 0.5-13.25-0.06c-4.41 0-8.82-0.11-13.24-0.16l0.28-0.28c0 1.84-0.09 3.68-0.13 5.54zm0 0-0.14-5.53c0-1.87-0.11-3.76-0.13-5.66v-0.27h0.27c4.42-0.05 8.83-0.16 13.24-0.16l13.25-0.07h0.5v12.17h-0.44c-2.24 0-4.47 0-6.7-0.06l-6.66-0.11z"/>
   <path d="m658.59 340.63 13.35-0.28 6.58-0.11c2.19 0 4.36 0 6.55-0.05l-0.45 0.44v-11.19l0.5 0.5-13.24-0.06c-4.42 0-8.83-0.11-13.24-0.16l0.27-0.28c0 1.83-0.09 3.68-0.13 5.54zm0 0-0.15-5.53c0-1.87-0.11-3.76-0.13-5.66v-0.27h0.28c4.41-0.05 8.82-0.16 13.24-0.16l13.24-0.07h0.5v0.5l-0.06 11.19v0.45h-0.44c-2.24 0-4.47 0-6.7-0.06l-6.66-0.11z"/>
   <path d="m629 340.63 13.36-0.28 6.58-0.11c2.19 0 4.36 0 6.54-0.05l-0.44 0.44-0.04-11.19 0.5 0.5-13.24-0.06c-4.41 0-8.82-0.11-13.24-0.16l0.28-0.28c0 1.83-0.09 3.68-0.14 5.54zm0 0-0.14-5.53c0-1.87-0.11-3.76-0.13-5.66v-0.27h0.27c4.42-0.05 8.83-0.16 13.24-0.16l13.24-0.07h0.52v12.14h-0.45c-2.23 0-4.47 0-6.69-0.06l-6.66-0.11z"/>
   <path d="m74.59 340.63 13.35-0.28 6.58-0.11c2.19 0 4.36 0 6.55-0.05l-0.45 0.44-0.05-11.19 0.5 0.5-13.24-0.06c-4.42 0-8.83-0.11-13.24-0.16l0.27-0.28c0 1.83-0.09 3.68-0.13 5.54zm0 0-0.15-5.53c0-1.87-0.11-3.76-0.13-5.66v-0.27h0.28c4.41-0.05 8.82-0.16 13.24-0.16l13.24-0.07h0.5v12.14h-0.44c-2.24 0-4.47 0-6.7-0.06l-6.66-0.11z"/>
   <path d="m502.76 116.63 13.35-0.28 6.58-0.11c2.19 0 4.37 0 6.55-0.06l-0.45 0.45v-11.19l0.5 0.5-13.29-0.07c-4.42 0-8.83-0.11-13.24-0.16l0.27-0.27c0 1.83-0.09 3.67-0.13 5.53zm0 0-0.15-5.54c0-1.87-0.11-3.75-0.13-5.65v-0.27h0.28c4.41 0 8.82-0.16 13.24-0.16l13.24-0.06h0.5v0.51l-0.06 11.19v0.45h-0.44-6.7l-6.66-0.12z"/>
   <path d="m74.59 64.77 13.35-0.28 6.58-0.12c2.19 0 4.36 0 6.55-0.05l-0.45 0.45-0.05-11.19 0.5 0.49-13.24-0.07c-4.42 0-8.83-0.11-13.24-0.16l0.27-0.27c0 1.83-0.09 3.67-0.13 5.53zm0 0-0.15-5.54c0-1.87-0.11-3.76-0.13-5.65v-0.27h0.28c4.41 0 8.82-0.16 13.24-0.16l13.24-0.06h0.5v12.14h-0.44-6.7l-6.72-0.23z"/>
   <path d="m59.81 78.88 13.36-0.28 6.58-0.12h6.54l-0.44 0.45-0.06-11.19 0.5 0.49-13.24-0.06c-4.41 0-8.82-0.11-13.24-0.16l0.28-0.27c0 1.83-0.09 3.67-0.13 5.53zm0 0-0.14-5.54c0-1.87-0.11-3.76-0.13-5.65v-0.27h0.27c4.42 0 8.83-0.16 13.24-0.16l13.24-0.06h0.51v0.51l-0.05 11.19v0.44h-0.45-6.69l-6.66-0.12z"/>
   <path d="m658.59 64.78 13.35-0.28 6.58-0.11c2.19 0 4.36 0 6.55-0.06l-0.45 0.45v-11.19l0.5 0.5-13.29-0.09c-4.42 0-8.83-0.11-13.24-0.16l0.27-0.27c0 1.83-0.09 3.67-0.13 5.53zm0 0-0.15-5.54c0-1.87-0.11-3.75-0.13-5.65v-0.27h0.28c4.41-0.05 8.82-0.15 13.24-0.16l13.24-0.06h0.5v0.5l-0.06 11.19v0.45h-0.44-6.7l-6.66-0.11z"/>
   <path d="m412.72 170.32-13.35 0.28-6.58 0.11c-2.19 0-4.37 0-6.55 0.06l0.45-0.45 0.05 11.19-0.5-0.5 13.24 0.06c4.42 0 8.83 0.12 13.24 0.17l-0.27 0.27c0-1.83 0.08-3.67 0.13-5.54zm0 0 0.14 5.54c0.05 1.86 0.12 3.75 0.13 5.65v0.27h-0.28c-4.41 0.05-8.82 0.16-13.24 0.17l-13.24 0.06h-0.5v-0.5l0.06-11.19v-0.45h0.44c2.23 0 4.47 0 6.7 0.05l6.66 0.11z"/>
   <path d="m398 156.21-13.36 0.28-6.57 0.11c-2.19 0.05-4.37 0-6.55 0.06l0.45-0.45 0.03 11.19-0.5-0.5 13.24 0.06c4.41 0 8.83 0.12 13.24 0.17l-0.27 0.27c0-1.83 0.08-3.67 0.13-5.54zm0 0 0.14 5.54c0.05 1.86 0.11 3.75 0.13 5.65v0.27h-0.27c-4.41 0.06-8.83 0.16-13.24 0.17l-13.24 0.06h-0.52v-12.14h0.44 6.69l6.67 0.11z"/>
   <path d="m627.87 91.9a15.09 15.09 0 0 1 2.55 5.19 9.45 9.45 0 0 1-0.83 6.06c-0.29 0.7-0.67 1.53-1.13 2.49a18.54 18.54 0 0 0-1.18 3.08 10.07 10.07 0 0 0-0.41 3.31 5.63 5.63 0 0 0 1.14 3.13 5.28 5.28 0 0 0 1.84 1.62 5.49 5.49 0 0 0 2.13 0.59 5.56 5.56 0 0 0 2.22-0.31 7.7 7.7 0 0 0 2-1.07 6.63 6.63 0 0 0 1.79-1.93 8.22 8.22 0 0 0 1-2.23 10.45 10.45 0 0 0 0.36-2.35 19.12 19.12 0 0 0 0-2.18l6.82-0.22a12.65 12.65 0 0 1 0.32 4.18 13.66 13.66 0 0 1-1 4 15.23 15.23 0 0 1-2.14 3.58 16.55 16.55 0 0 1-3.1 3 16.91 16.91 0 0 1-4.32 2.3 12.18 12.18 0 0 1-4.8 0.73 11.7 11.7 0 0 1-4.86-1.35 12.89 12.89 0 0 1-4.39-3.94 12.31 12.31 0 0 1-1.78-3.23 9.9 9.9 0 0 1-0.59-3.14 11.94 11.94 0 0 1 0.33-3.14 24.48 24.48 0 0 1 1-3.26c0.38-0.92 0.78-1.84 1.2-2.73a15 15 0 0 0 0.95-2.67 7.71 7.71 0 0 0 0.22-2.65 5.3 5.3 0 0 0-1.09-2.61zm-9-12 5.25 7.1-5.77 4.26-5.29-7.18z"/>
   <path d="m652.76 80.28a16.25 16.25 0 0 1 1.13-6.28 10.35 10.35 0 0 1 4.69-4.83c0.71-0.43 1.58-0.91 2.62-1.46a21.23 21.23 0 0 0 3.06-2 11.36 11.36 0 0 0 2.52-2.66 6.2 6.2 0 0 0 1-3.52 5.74 5.74 0 0 0-0.57-2.62 6 6 0 0 0-1.49-1.92 6.23 6.23 0 0 0-2.17-1.17 8.39 8.39 0 0 0-2.52-0.39 7.22 7.22 0 0 0-2.84 0.53 9.46 9.46 0 0 0-2.31 1.35 11.44 11.44 0 0 0-1.84 1.84 19.58 19.58 0 0 0-1.39 2l-6.17-4.26a13.68 13.68 0 0 1 2.52-3.89 14.8 14.8 0 0 1 3.48-2.87 16.13 16.13 0 0 1 4.22-1.78 18.28 18.28 0 0 1 4.69-0.6 18.62 18.62 0 0 1 5.32 0.78 13.53 13.53 0 0 1 4.68 2.47 13 13 0 0 1 3.41 4.37 14.18 14.18 0 0 1 1.31 6.36 13.57 13.57 0 0 1-0.53 4 11.13 11.13 0 0 1-1.52 3.16 13.51 13.51 0 0 1-2.35 2.55 26.06 26.06 0 0 1-3.05 2.2c-0.95 0.57-1.89 1.12-2.84 1.64a16.72 16.72 0 0 0-2.59 1.74 8.36 8.36 0 0 0-1.92 2.2 5.72 5.72 0 0 0-0.74 3zm0.14 16.55v-9.83h7.88v9.8z"/>
   <path d="m85.25 123.51a16.32 16.32 0 0 1-0.18-6.35 10.37 10.37 0 0 1 3.58-5.69c0.61-0.57 1.37-1.22 2.27-2a21.29 21.29 0 0 0 2.58-2.47 11.14 11.14 0 0 0 1.92-3.13 6.1 6.1 0 0 0 0.27-3.65 5.73 5.73 0 0 0-1.1-2.46 5.86 5.86 0 0 0-1.85-1.56 6.18 6.18 0 0 0-2.36-0.7 8.68 8.68 0 0 0-2.55 0.14 7.46 7.46 0 0 0-2.67 1.11 10.07 10.07 0 0 0-2 1.8 12.07 12.07 0 0 0-1.42 2.19 19.49 19.49 0 0 0-1 2.2l-6.85-2.94a13.62 13.62 0 0 1 1.58-4.33 15 15 0 0 1 2.81-3.53 16.12 16.12 0 0 1 3.72-2.61 18.55 18.55 0 0 1 9.83-1.9 13.63 13.63 0 0 1 5.17 1.45 13 13 0 0 1 4.24 3.57 14.28 14.28 0 0 1 2.6 5.94 13.78 13.78 0 0 1 0.31 4 11.24 11.24 0 0 1-0.84 3.4 13.27 13.27 0 0 1-1.76 3 25.54 25.54 0 0 1-2.55 2.82c-0.81 0.75-1.62 1.48-2.44 2.18a17.54 17.54 0 0 0-2.17 2.24 8.46 8.46 0 0 0-1.39 2.55 5.77 5.77 0 0 0-0.11 3.11zm3.57 16.15-2-9.58 7.71-1.64 2 9.59z"/>
   <polygon points="554.45 48.99 459.45 48.99 459.45 48.99 459.45 98.85 554.45 98.85"/>
   <polygon points="554.45 83.54 569.15 98.85 554.45 98.85"/>
  </g>
  <g fill="#fff">
   <rect x="468.55" y="57.62" width="76.81" height=".95"/>
   <rect x="468.55" y="62.73" width="47.63" height=".95"/>
   <rect x="468.55" y="72.96" width="65.25" height=".95"/>
   <rect x="468.55" y="78.08" width="76.81" height=".95"/>
   <rect x="468.55" y="83.19" width="76.81" height=".95"/>
   <rect x="468.55" y="88.31" width="37.87" height=".95"/>
  </g>
  <rect x="171.72" y="211.43" width="95" height="43.97" fill="#dbdbdb"/>
  <polygon points="171.72 240.09 157.02 255.4 171.72 255.4" fill="#dbdbdb"/>
  <g fill="#fff">
   <rect x="181" y="234.39" width="68.99" height=".95"/>
   <rect x="181" y="239.5" width="58.18" height=".95"/>
   <rect x="181" y="224.16" width="61.33" height=".95"/>
   <rect x="181" y="219.04" width="75.06" height=".95"/>
   <rect x="181" y="244.62" width="62.51" height=".95"/>
  </g>
  <rect x="497.98" y="110.32" width="95" height="28.97" fill="#dbdbdb"/>
  <polygon points="497.98 123.97 483.28 139.28 497.98 139.28" fill="#dbdbdb"/>
  <g fill="#fff">
   <rect x="507.26" y="118.27" width="68.99" height=".95"/>
   <rect x="507.26" y="123.39" width="58.18" height=".95"/>
   <rect x="507.26" y="128.5" width="62.51" height=".95"/>
  </g>
  <ellipse cx="497.35" cy="449.49" rx="207.34" ry="13.04" fill="#ebebeb"/>
  <polygon points="212.86 396.46 375 396.3 537.14 396.46 618.21 396.55 699.28 396.8 618.21 397.04 537.14 397.13 375 397.3 212.86 397.13 131.79 397.04 50.72 396.8 131.79 396.55" fill="#263238"/>
  <path d="m118 380v-177.82a16.53 16.53 0 0 1 16.57-16.58h98.54a16.73 16.73 0 0 1 0 33.45h-81.69v55.15h70.21a16.73 16.73 0 0 1 0 33.45h-70.21v72.35a16.8 16.8 0 0 1-16.88 16.58 16.53 16.53 0 0 1-16.54-16.58z" fill="#ffc727"/>
  <path d="m118 380v-177.82a16.53 16.53 0 0 1 16.57-16.58h98.54a16.73 16.73 0 0 1 0 33.45h-81.69v55.15h70.21a16.73 16.73 0 0 1 0 33.45h-70.21v72.35a16.8 16.8 0 0 1-16.88 16.58 16.53 16.53 0 0 1-16.54-16.58z" opacity=".1"/>
  <path d="m105.38 380v-177.82a16.54 16.54 0 0 1 16.62-16.58h98.5a16.73 16.73 0 0 1 0 33.45h-81.67v55.15h70.22a16.73 16.73 0 0 1 0 33.45h-70.22v72.35a16.79 16.79 0 0 1-16.83 16.55 16.54 16.54 0 0 1-16.62-16.55z" fill="#ffc727"/>
  <path d="m358.59 346.82h-73.22l-14.77 39.18a16.91 16.91 0 0 1-15.67 10.55 17.65 17.65 0 0 1-5.73-0.91 17.11 17.11 0 0 1-9.94-21.7l66.6-177.49a16.86 16.86 0 0 1 16-10.55 16.58 16.58 0 0 1 16 10.55l66.6 177.49a17.1 17.1 0 0 1-9.95 21.7 16.84 16.84 0 0 1-21.15-9.64zm-12.35-33.14-24.41-64.8-24.41 64.8z" fill="#ffc727"/>
  <path d="m358.59 346.82h-73.22l-14.77 39.18a16.91 16.91 0 0 1-15.67 10.55 17.65 17.65 0 0 1-5.73-0.91 17.11 17.11 0 0 1-9.94-21.7l66.6-177.49a16.86 16.86 0 0 1 16-10.55 16.58 16.58 0 0 1 16 10.55l66.6 177.49a17.1 17.1 0 0 1-9.95 21.7 16.84 16.84 0 0 1-21.15-9.64zm-12.35-33.14-24.41-64.8-24.41 64.8z" opacity=".1"/>
  <path d="m346 346.82h-73.22l-14.78 39.18a16.91 16.91 0 0 1-15.67 10.55 17.65 17.65 0 0 1-5.73-0.91 17.09 17.09 0 0 1-9.94-21.7l66.6-177.49a16.86 16.86 0 0 1 16-10.55 16.58 16.58 0 0 1 16 10.55l66.6 177.49a17.1 17.1 0 0 1-9.95 21.7 16.84 16.84 0 0 1-21.13-9.64zm-12.35-33.14-24.41-64.8-24.41 64.8z" fill="#ffc727"/>
  <path d="m638.51 426.38c-16.57 12.66-33.75 19-49.72 19h-0.9c-21.1 0-38.88-8.43-55.15-18.08a37.75 37.75 0 0 0-18.38-4.52c-9.95 0-20.19 4.22-21.4 5.13-6 3.31-13 2.71-17.48-0.91-0.3-0.3-0.9-0.3-1.81-0.6-0.3-0.3-0.3-0.3-0.6-0.3-1.51-2.11-3.31-3.92-4.22-6.93-4.52-9-0.3-19 8.14-23.21l0.9-0.6a132 132 0 0 1-33.45-22.9 117.94 117.94 0 0 1-30.13-78.65 115.61 115.61 0 0 1 30.13-77.81c19.29-20.79 45.81-33.45 75.34-33.45a99.35 99.35 0 0 1 74.73 33.45 111.9 111.9 0 0 1 30.74 77.75 114.13 114.13 0 0 1-30.74 78.65 116.24 116.24 0 0 1-33.44 23.8l-6.94 2.8c12.66 6.93 24.11 10.84 33.76 10.84 8.73 0 17.17-2.1 29.53-11.45a17.34 17.34 0 0 1 24.41 3c6.02 7.51 4.82 18.36-3.32 24.99zm-167.85-78.38a65.58 65.58 0 0 0 49.12 21.7c19.29 0 36.46-8.14 49.72-21.7 13-13.86 20.8-32.85 20.8-54.24s-7.84-40.38-20.8-53.64c-13.26-13.87-30.43-22-49.72-22a64.76 64.76 0 0 0-49.12 22c-13 13.26-20.79 32.24-20.79 53.64s7.83 40.41 20.79 54.24z" fill="#ffc727"/>
  <path d="m638.51 426.38c-16.57 12.66-33.75 19-49.72 19h-0.9c-21.1 0-38.88-8.43-55.15-18.08a37.75 37.75 0 0 0-18.38-4.52c-9.95 0-20.19 4.22-21.4 5.13-6 3.31-13 2.71-17.48-0.91-0.3-0.3-0.9-0.3-1.81-0.6-0.3-0.3-0.3-0.3-0.6-0.3-1.51-2.11-3.31-3.92-4.22-6.93-4.52-9-0.3-19 8.14-23.21l0.9-0.6a132 132 0 0 1-33.45-22.9 117.94 117.94 0 0 1-30.13-78.65 115.61 115.61 0 0 1 30.13-77.81c19.29-20.79 45.81-33.45 75.34-33.45a99.35 99.35 0 0 1 74.73 33.45 111.9 111.9 0 0 1 30.74 77.75 114.13 114.13 0 0 1-30.74 78.65 116.24 116.24 0 0 1-33.44 23.8l-6.94 2.8c12.66 6.93 24.11 10.84 33.76 10.84 8.73 0 17.17-2.1 29.53-11.45a17.34 17.34 0 0 1 24.41 3c6.02 7.51 4.82 18.36-3.32 24.99zm-167.85-78.38a65.58 65.58 0 0 0 49.12 21.7c19.29 0 36.46-8.14 49.72-21.7 13-13.86 20.8-32.85 20.8-54.24s-7.84-40.38-20.8-53.64c-13.26-13.87-30.43-22-49.72-22a64.76 64.76 0 0 0-49.12 22c-13 13.26-20.79 32.24-20.79 53.64s7.83 40.41 20.79 54.24z" opacity=".1"/>
  <path d="m625.93 426.38c-16.58 12.66-33.75 19-49.72 19h-0.91c-21.09 0-38.87-8.43-55.14-18.08a37.76 37.76 0 0 0-18.39-4.52c-9.94 0-20.19 4.22-21.39 5.13-6 3.31-13 2.71-17.48-0.91-0.3-0.3-0.9-0.3-1.81-0.6-0.3-0.3-0.3-0.3-0.6-0.3-1.51-2.11-3.32-3.92-4.22-6.93-4.52-9-0.3-19 8.14-23.21l0.9-0.6a131.86 131.86 0 0 1-33.45-22.9 117.94 117.94 0 0 1-30.13-78.65 115.61 115.61 0 0 1 30.13-77.81c19.29-20.79 45.8-33.45 75.34-33.45a99.35 99.35 0 0 1 74.73 33.45 111.9 111.9 0 0 1 30.74 77.75 114.13 114.13 0 0 1-30.74 78.65 116.15 116.15 0 0 1-33.45 23.8l-6.93 2.8c12.66 6.93 24.11 10.84 33.75 10.84 8.74 0 17.18-2.1 29.53-11.45a17.34 17.34 0 0 1 24.41 3c6.03 7.51 4.82 18.36-3.31 24.99zm-167.85-78.38a65.56 65.56 0 0 0 49.12 21.7c19.28 0 36.46-8.14 49.72-21.7 13-13.86 20.79-32.85 20.79-54.24s-7.83-40.38-20.79-53.64c-13.26-13.87-30.44-22-49.72-22a64.75 64.75 0 0 0-49.12 22c-13 13.26-20.8 32.24-20.8 53.64s7.84 40.41 20.8 54.24z" fill="#ffc727"/>
  <path d="m101.52 317.73c-10.76 14.57-22 31.47-24.7 49.74a0.24 0.24 0 0 0 0.47 0.09 108.51 108.51 0 0 1 4.76-14.62c7.07-1.95 14-3.55 17.73-10.57 3.78-7.21 3.3-16.62 2.58-24.48-0.05-0.42-0.62-0.44-0.84-0.16z" fill="#ffc727"/>
  <path d="m82.16 352.8c4.83-10.84 11-21.73 18.92-30.65 0-0.06 0.13 0 0.08 0.09-5.16 6.35-9.08 13.27-12.91 20.3 3.56-3.61 7.46-6.85 10.84-10.69 0.06-0.07 0.17 0 0.1 0.11-3.35 4-7 8.39-11.37 11.37-1.17 2.15-2.35 4.32-3.55 6.49 0.3-0.17 0.6-0.31 0.9-0.46 0 0 0.1 0.05 0 0.08-0.34 0.17-0.67 0.34-1 0.49-0.57 1-1.13 2.05-1.71 3.07-0.09 0.23-0.41 0-0.3-0.2z" fill="#263238"/>
  <path d="m85.75 349a64.22 64.22 0 0 0 8.25-5.5c0.07-0.05 0.17 0.05 0.1 0.11a44.37 44.37 0 0 1-8.24 5.61c-0.13 0.07-0.24-0.13-0.11-0.22z" fill="#263238"/>
  <path d="m75.57 364.76c0 0.22 0.4 0.21 0.4 0 0-6 0-12.06 0.09-18.11 1.54-3.11 4.85-4.83 7.15-7.32a32.06 32.06 0 0 0 4.29-6 42.81 42.81 0 0 0 5-16.6c0.64-6.44-1.81-27.67-4.52-26.93-1.41 0.38-6 10.9-7.17 14.37a101.63 101.63 0 0 0-4.28 17.63c-2.22 14.2-2.03 28.71-0.96 42.96z" fill="#ffc727"/>
  <g fill="#263238">
   <path d="m75.53 338.8c0.33-7.61 2-15.3 3.65-22.68 1.73-8 3.75-15.45 7.84-22.54a0.12 0.12 0 0 1 0.2 0.12 84.22 84.22 0 0 0-6.22 17.3c0.28-0.43 0.61-0.84 0.9-1.24 0.11-0.16 0.37 0 0.26 0.15a11 11 0 0 1-1.28 1.81c-1.41 5.69-2.42 11.5-3.29 17.3 0.07-0.07 0.13-0.15 0.19-0.22a0.06 0.06 0 0 1 0.09 0.07c-0.1 0.19-0.22 0.38-0.34 0.57-0.44 2.95-0.84 5.89-1.25 8.8 5.24-4.48 9.72-9.76 12.25-16.27 0 0 0.06 0 0 0-2.53 6.76-6.43 12.76-12.43 16.86l-0.33 2.35c0 0.16-0.28 0.12-0.28 0 0-0.69 0-1.39 0.06-2.08a0.17 0.17 0 0 1-0.02-0.3z"/>
   <path d="m78 327.77a120.8 120.8 0 0 0 10.68-18.39c0-0.08 0.16 0 0.13 0.05a59.73 59.73 0 0 1-10.61 18.5c-0.1 0.07-0.28-0.04-0.2-0.16z"/>
   <path d="m83.32 307.9c1.66-2.94 3.41-5.79 5-8.79 0-0.08 0.15 0 0.12 0.07a45.65 45.65 0 0 1-4.84 8.87 0.15882 0.15882 0 0 1-0.28-0.15z"/>
   <path d="m82.68 309.18a0.025 0-90 0 0 0 0.05s-0.04-0.05 0-0.05z"/>
  </g>
  <path d="m71.5 347.36a61.27 61.27 0 0 1-1.4 11.85l0.18 1.3a56.54 56.54 0 0 0 2.12-13.21 0.4 0.4 0 0 0 0-0.41 87.52 87.52 0 0 0-1.31-17.89c-1.86-11.05-5.93-21.66-13.64-30a0.56 0.56 0 0 0-0.86 0.17c-3.11 7.92-2 17.36 0.63 25.25a46.31 46.31 0 0 0 6.11 12c2.67 3.73 6.02 6.88 8.17 10.94z" fill="#ffc727"/>
  <g fill="#263238">
   <path d="m58.36 302.72c7.31 11.86 12.39 25.92 13 39.93 0 0.25-0.4 0.32-0.44 0.06-0.17-1.25-0.36-2.5-0.57-3.74-3-2.9-6.12-5.95-8.29-9.57 0-0.06 0-0.14 0.1-0.08a99.94 99.94 0 0 0 8.06 8.77c-0.52-3.1-1.14-6.15-1.88-9.15l-0.58-0.68c-0.12-0.15 0.09-0.37 0.22-0.22l0.18 0.2a104.89 104.89 0 0 0-3.83-12.14c-1.86-2.22-3.94-4.13-5.29-6.81 0-0.06 0.05-0.11 0.1 0 1.09 1.53 2.14 3.06 3.38 4.48 0.49 0.57 1 1.1 1.54 1.65a93.56 93.56 0 0 0-6-12.47 0.18901 0.18901 0 0 1 0.3-0.23z"/>
   <path d="m59.84 317.35c2.36 3.18 5 6.21 7.25 9.5 0.06 0.09-0.08 0.19-0.16 0.12a48.16 48.16 0 0 1-7.25-9.53c-0.07-0.1 0.09-0.18 0.16-0.09z"/>
   <path d="m67.42 327.59 0.1 0.1c0.07 0.07 0 0.17-0.11 0.1l-0.1-0.1c-0.07-0.07 0.04-0.17 0.11-0.1z"/>
  </g>
  <path d="m46.91 325.52a36.45 36.45 0 0 0 7.71 18.09 19.16 19.16 0 0 0 6.25 4.88c2.71 1.34 5.55 2.89 8.35 4a55.18 55.18 0 0 1 3 10.49l0.27-0.93c-1.8-15.44-11.8-28.65-24.59-37.13a0.62 0.62 0 0 0-0.99 0.6z" fill="#ffc727"/>
  <path d="m51.33 330.09c-0.09-0.08 0-0.25 0.13-0.17a52.36 52.36 0 0 1 16.29 20.08c0.09 0.21-0.2 0.4-0.32 0.18-0.59-1-1.2-2.05-1.81-3.05-2.92-0.55-5.68-2.61-7.85-4.56-0.06-0.05 0-0.14 0.09-0.08a17.89 17.89 0 0 0 3.69 2.59c1.19 0.6 2.47 1 3.71 1.47-1.08-1.72-2.21-3.36-3.39-5a34.11 34.11 0 0 1-8.77-4.93c-0.08-0.06 0-0.2 0.08-0.14a87.52 87.52 0 0 0 8.15 4.35 72.56 72.56 0 0 0-5.75-6.71c-1-0.52-2-1.05-3-1.61-0.08 0 0-0.18 0.06-0.15a10.64 10.64 0 0 1 2.27 1.12c-1.12-1.12-2.31-2.27-3.58-3.39z" fill="#263238"/>
  <path d="m51.6 335.42a2.9 2.9 0 0 1 0.49 0.35s0 0.1-0.06 0.08a3.2 3.2 0 0 1-0.51-0.29c-0.09-0.06-0.01-0.2 0.08-0.14z" fill="#263238"/>
  <polygon points="60.19 364.52 60.81 357.48 88.95 357.48 89.57 364.52 92.4 396.43 57.36 396.43" fill="#455a64"/>
  <polygon points="60.81 357.48 88.95 357.48 89.57 364.52 60.19 364.52" fill="#263238"/>
  <rect x="59.14" y="352.56" width="31.49" height="6.96" fill="#455a64"/>
  <path d="m695.57 446.14c-2.13 0.67-62.85-0.34-65.15-1.84-0.87-0.57-1.24-9.42-1.38-20.13v-7.12c0-15.75 0.14-30.24 0.14-30.24l40.63 1.06-1.27 29.72-0.3 7.12s23.08 10.79 25.41 12.7 4.05 8.05 1.92 8.73z" fill="#f7a9a0"/>
  <path d="m695.57 446.14c-2.13 0.67-62.85-0.34-65.15-1.84-1.06-0.69-1.38-13.62-1.43-27.25l39.5 0.54-0.3 7.12s23.08 10.79 25.41 12.7 4.1 8.05 1.97 8.73z" fill="#fff"/>
  <path d="m695.57 446.14c-2.13 0.67-62.85-0.34-65.15-1.84-0.87-0.57-1.24-9.42-1.38-20.13l39.15 0.54s23.08 10.79 25.41 12.7 4.1 8.05 1.97 8.73z" fill="#a6a6a6"/>
  <path d="m660.24 446c-14.75-0.37-28.74-1-29.82-1.67-0.87-0.57-1.24-9.42-1.38-20.13l8 0.11c6.18 5.79 17.32 16.18 23.2 21.69z" opacity=".1"/>
  <g fill="#263238">
   <path d="m694.74 443.69c-10.18-0.42-51.25-1.15-61.34-0.79-0.08 0-0.08 0.06 0 0.07 10.07 0.63 51.15 1 61.34 0.89 0.26 0 0.26-0.16 0-0.17z"/>
   <path d="m689.73 435.16a8.16 8.16 0 0 0-6.13 2.39 7.88 7.88 0 0 0-2.36 5.39c0 0.06 0.11 0.07 0.12 0a9.45 9.45 0 0 1 8.37-7.66 0.07 0.07 0 0 0 0-0.12z"/>
   <path d="m672.12 425.79c-4.07-0.13-8.82 1.23-11.41 4.52-0.1 0.13 0.09 0.27 0.21 0.21a56.37 56.37 0 0 1 11.26-4.23 0.25179 0.25179 0 0 0-0.06-0.5z"/>
   <path d="m675.25 427.07c-4.08-0.13-8.82 1.23-11.41 4.52-0.1 0.13 0.08 0.27 0.2 0.21a56.46 56.46 0 0 1 11.27-4.23 0.25179 0.25179 0 0 0-0.06-0.5z"/>
   <path d="m678.37 428.35c-4.07-0.13-8.82 1.23-11.41 4.52-0.1 0.13 0.09 0.27 0.21 0.21a55.77 55.77 0 0 1 11.26-4.23 0.25179 0.25179 0 0 0-0.06-0.5z"/>
   <path d="m681.5 429.62c-4.08-0.12-8.82 1.24-11.41 4.53-0.1 0.13 0.08 0.27 0.2 0.21a55.86 55.86 0 0 1 11.27-4.23 0.26 0.26 0 0 0-0.06-0.51z"/>
   <path d="m636.15 433.28c-4.57-0.07-4.67 7-0.1 7.1s4.68-7.04 0.1-7.1z"/>
   <path d="m676.71 415c-2-1.74-4.66-0.12-6 1.64a21.4 21.4 0 0 0-3.84 10.36c0 0.08 0.06 0.12 0.13 0.11a0.48 0.48 0 0 0 0.72 0.34c2.94-1.95 6.32-3.68 8.56-6.48 1.31-1.65 2.35-4.33 0.43-5.97zm-5.15 8.58c-1.42 1-2.88 1.92-4.26 3a62 62 0 0 1 2.4-6 22.6 22.6 0 0 1 1.53-2.72c0.91-1.34 5-4.67 5.3-0.24 0.18 2.38-3.28 4.76-4.97 5.95z"/>
   <path d="m656.72 428.33c3.54 0.6 7.22-0.35 10.71-0.83a0.5 0.5 0 0 0 0.32-0.74 0.1 0.1 0 0 0 0-0.17 21.34 21.34 0 0 0-9.77-5.17c-2.14-0.45-5.18 0.07-5.54 2.73s2.22 3.85 4.28 4.18zm-2.42-2.33c-2.7-3.54 2.55-3.74 4.12-3.34a23.86 23.86 0 0 1 3 1c2 0.82 3.86 1.9 5.77 2.9-1.73 0.13-3.43 0.41-5.16 0.61-2.1 0.21-6.24 0.75-7.73-1.17z"/>
  </g>
  <path d="m670.09 414.48h-44.48s8.37-94.72 8-96.53c-0.44-2.33-3.07-12.84-6.56-26.58-1.1-4.3-2.28-8.91-3.51-13.69-3.32-12.93-7-27.06-10.16-39.35-4.78-18.42-8.51-32.72-8.51-32.72h37.7s4.4 13.93 9.93 32c9 29.45 21.08 70 22.27 79.84 1.95 15.96-4.68 97.03-4.68 97.03z" fill="#455a64"/>
  <g fill="#263238">
   <path d="m668.12 406.89c-6.79-0.14-4.84-0.2-11.63-0.26-3.33 0-25.18-0.23-28.29 0.29-0.06 0-0.06 0.13 0 0.14 3.11 0.51 25 0.32 28.29 0.29 6.79-0.07 4.84-0.12 11.63-0.26a0.1 0.1 0 0 0 0-0.2z"/>
   <path d="m642 311.6c-1.45-6.43-3.63-12.74-5.53-19.05q-5.79-19.23-11.64-38.45-2.91-9.61-5.87-19.22l-3-9.69c-1-3.23-2.11-6.28-3-9.47-0.36-1.3-0.56-0.58-0.09 1.06 0.94 3.32 1.86 6.64 2.83 9.95q2.88 9.84 5.78 19.65 5.79 19.56 11.67 39.07 2.94 9.8 5.89 19.58a79.62 79.62 0 0 1 2.41 9.47 44 44 0 0 1 0.39 10.13c-0.43 6.81-1.21 13.6-1.84 20.39l-1.89 20.42c-1.26 13.54-1.93 17.9-3.15 31.44-0.15 1.72-0.3 3.44-0.43 5.15 0 0.58 0.82 0.54 0.88 0 1.47-13.39 2-17.64 3.27-31.05l3.75-40c0.31-3.35 0.66-6.7 0.67-10.07a41.11 41.11 0 0 0-1.1-9.31z"/>
   <path d="m638.31 205.61c-2.62 20.25-7.61 58.21-11.24 85.76-8.51-33.38-22.18-85.76-22.18-85.76z"/>
  </g>
  <path d="m650.57 446.32c-2.11 0.73-62.83 1.51-65.17 0.08-0.88-0.54-1.51-9.38-2-20.08-0.1-2.31-0.19-4.69-0.26-7.12-0.52-15.74-0.75-30.22-0.75-30.22l40.64-0.14-0.39 29.74-0.09 7.13s23.38 10.1 25.77 11.94 4.37 7.93 2.25 8.67z" fill="#f7a9a0"/>
  <path d="m650.57 446.32c-2.11 0.73-62.83 1.51-65.17 0.08-1.08-0.66-1.78-13.57-2.23-27.2l39.5-0.62-0.09 7.13s23.38 10.1 25.77 11.94 4.34 7.93 2.22 8.67z" fill="#fff"/>
  <path d="m650.57 446.32c-2.11 0.73-62.83 1.51-65.17 0.08-0.88-0.54-1.51-9.38-2-20.08l39.15-0.61s23.38 10.1 25.77 11.94 4.37 7.93 2.25 8.67z" fill="#a6a6a6"/>
  <g fill="#263238">
   <path d="m649.67 443.9c-10.18-0.12-51.26 0.36-61.33 1-0.09 0-0.09 0.06 0 0.06 10.09 0.34 51.16-0.48 61.33-0.92 0.22 0.01 0.22-0.14 0-0.14z"/>
   <path d="m644.42 435.52a8.18 8.18 0 0 0-6.06 2.56 8 8 0 0 0-2.21 5.47c0 0.06 0.12 0.06 0.13 0a9.45 9.45 0 0 1 8.14-7.9c0.08-0.01 0.08-0.13 0-0.13z"/>
   <path d="m626.54 426.67c-4.08 0-8.78 1.49-11.27 4.86-0.1 0.13 0.09 0.26 0.21 0.2a55.89 55.89 0 0 1 11.13-4.56 0.25244 0.25244 0 0 0-0.07-0.5z"/>
   <path d="m629.7 427.85c-4.08 0-8.78 1.5-11.27 4.86-0.1 0.13 0.09 0.27 0.21 0.21a56.36 56.36 0 0 1 11.14-4.57 0.26 0.26 0 0 0-0.08-0.5z"/>
   <path d="m632.86 429c-4.08 0-8.78 1.49-11.27 4.86-0.1 0.13 0.09 0.26 0.21 0.2a56.33 56.33 0 0 1 11.14-4.56 0.26 0.26 0 0 0-0.08-0.5z"/>
   <path d="m636 430.23c-4.07 0-8.78 1.49-11.27 4.85-0.09 0.14 0.09 0.27 0.21 0.21a55.73 55.73 0 0 1 11.14-4.56 0.26 0.26 0 0 0-0.08-0.5z"/>
   <path d="m590.8 435.21c-4.57 0.08-4.46 7.18 0.12 7.11s4.46-7.18-0.12-7.11z"/>
   <path d="m630.8 415.74c-2.08-1.68-4.66 0-5.91 1.81a21.51 21.51 0 0 0-3.57 10.45 0.11 0.11 0 0 0 0.13 0.11 0.49 0.49 0 0 0 0.74 0.32c2.87-2 6.2-3.87 8.36-6.73 1.27-1.7 2.22-4.37 0.25-5.96zm-4.89 8.72c-1.39 1-2.82 2-4.17 3.1a63 63 0 0 1 2.22-6.07 22 22 0 0 1 1.45-2.76c0.87-1.36 4.83-4.82 5.29-0.39 0.3 2.44-3.13 4.88-4.79 6.12z"/>
   <path d="m611.22 429.66c3.55 0.5 7.2-0.56 10.68-1.14a0.5 0.5 0 0 0 0.3-0.75 0.11 0.11 0 0 0 0-0.17 21.45 21.45 0 0 0-9.93-4.89c-2.15-0.38-5.17 0.23-5.46 2.9-0.26 2.52 2.34 3.76 4.41 4.05zm-2.49-2.29c-2.8-3.46 2.44-3.81 4-3.46a22.48 22.48 0 0 1 3 0.93 62.19 62.19 0 0 1 5.85 2.73c-1.72 0.18-3.42 0.51-5.14 0.76-2.04 0.29-6.16 0.95-7.71-0.96z"/>
  </g>
  <path d="m641.37 205.61s-0.87 18-5 32.32c-0.33 1.18-0.69 2.35-1.07 3.46a67 67 0 0 0-10.87 5.61s-0.43 14.51-0.87 30.7c-0.48 18.09 2.32 38.27 2.43 42.55 0.37 16-1.57 94.07-1.57 94.07l-44.48 0.18s7.61-88.33 7.55-94.2c-0.08-9.43 3.24-75 2.68-76.51-7.16-18.72 2.3-38.16 2.3-38.16z" fill="#455a64"/>
  <g fill="#263238">
   <path d="m622.89 406.39c-6.79-0.11-4.84-0.18-11.64-0.21-3.32 0-25.17-0.12-28.28 0.41a0.07 0.07 0 0 0 0 0.14c3.11 0.5 25 0.21 28.29 0.17 6.79-0.1 4.84-0.14 11.63-0.31a0.1 0.1 0 0 0 0-0.2z"/>
   <path d="m637.15 240.32a82.77 82.77 0 0 0-12.72 6.68 0.15 0.15 0 0 0 0.13 0.26c4.3-2.09 8.68-4.09 12.85-6.41a0.29517 0.29517 0 0 0-0.26-0.53z"/>
   <path d="m630.45 234.27c0.14-2 0.29-4.07 0.47-6.1 0.41-4.64 0.89-9.29 1.7-13.87 0.07-0.36 0.57-0.22 0.54 0.12-0.31 3.6-0.72 7.19-1.06 10.79s-0.77 7.18-0.83 10.76c0 1.08 0.05 2.91 1.38 3.21 1.78 0.4 2.62-1.94 3.05-3.22a60.73 60.73 0 0 0 2.23-9.8c0.59-3.78 0.9-7.6 1.26-11.41 0-0.13 0.24-0.11 0.24 0 0 7.55-0.09 15.44-2.9 22.57-0.55 1.39-1.52 2.8-3.13 3h-0.07a0.51 0.51 0 0 1 0 0.13c0 0.21-0.09 0.42-0.13 0.63s-0.06 0.36-0.1 0.53c-0.08 0.37-0.13 0.74-0.23 1.1a0.27166 0.27166 0 0 1-0.54-0.06 0.24 0.24 0 0 1-0.16-0.22 5.86 5.86 0 0 1 0.49-2.14 2.67 2.67 0 0 1-1.95-1.64 9.44 9.44 0 0 1-0.26-4.38z"/>
   <path d="m594.67 243.77a81.6 81.6 0 0 0-1.94-9.27c-1.64-6.91-0.54-16.31 1.24-23.06 0-0.18-0.25-0.24-0.3-0.07-1.78 5.75-3.07 14.06-2.38 20.1 0.33 2.87 2.64 11.59 2.57 14.71-0.15 6.14 0.34 58.5-0.07 79.88-0.27 14-3.18 61.08-3.62 75.1 0 0.13 0.21 0.12 0.21 0 1.63-25 3.75-50.56 4.09-75.06 0.32-23.82 0.6-78.92 0.2-82.33z"/>
   <path d="m616.63 213c-0.2 2.14-0.28 4.3-0.6 6.44a8.68 8.68 0 0 1-2.4 5.22 12.92 12.92 0 0 1-5 2.85c-2.45 0.73-9.88 0.74-12.41 0.38-0.64-0.09-0.58 0.4 0.63 0.66a74.64 74.64 0 0 0 8.2 0.6 17.88 17.88 0 0 0 4-0.28 11.18 11.18 0 0 0 5.8-3 9.36 9.36 0 0 0 2.39-5.84 35 35 0 0 0-0.27-7c-0.03-0.23-0.33-0.23-0.34-0.03z"/>
   <path d="m618.16 154.77c0 0.12 0.17 0.12 0.18 0 0.48-5.48 6.11-8.82 6.25-14.42a13.14 13.14 0 0 0-2-7 37.49 37.49 0 0 0-2.91-3.86l-0.41-0.64a26.38 26.38 0 0 1-2.29-4.17 15.72 15.72 0 0 1-1-5.3c-0.15-3.46-0.06-7-2.3-9.84-1.88-2.39-3.87-5.34-8-6.77-6.42-2.2-13.91 0.7-18.61 6.08a12 12 0 0 0-2 3.17 7.13 7.13 0 0 0-5.34 5c-1.26 3.89 1.11 9.26 0.75 11.21-0.32 1.73-1.46 3.15-2.26 4.67a30.41 30.41 0 0 0-2.19 4 10.6 10.6 0 0 0-0.52 6.13 11.75 11.75 0 0 0 2.17 5.17 9.66 9.66 0 0 0 4.38 2.94l1.23 0.42c1.4 0.88 2.94 1.57 4.26 2.57a7.49 7.49 0 0 1 2.81 4.49c0.38 1.65 0.43 3.36 0.7 5a12.17 12.17 0 0 0 1.56 4.42 14.21 14.21 0 0 0 7.07 5.78 21.55 21.55 0 0 0 10.68 1c3.21-0.43 6.28-1.63 8.23-4.33a10.19 10.19 0 0 0 1.67-8.18 27.21 27.21 0 0 0-2.05-4.78 8.13 8.13 0 0 1-0.73-5c1.06-5.62 6.78-9.68 5.7-15.83a13.88 13.88 0 0 0-1.72-4.42 13.88 13.88 0 0 1 2.77 7.08c0.2 2.87-1 5.32-2.53 7.66s-3.42 4.83-3.55 7.75zm-35.9-3.83a9.35 9.35 0 0 1-5.39-4.65 12.53 12.53 0 0 1-1.07-8 14.42 14.42 0 0 1 1.55-3.61 0.41 0.41 0 0 0 0-0.09 13.39 13.39 0 0 0-0.6 2.5 15.25 15.25 0 0 0 1.09 8.09 14 14 0 0 0 4.48 5.76z"/>
  </g>
  <path d="m654.21 111.27-5.49 28.28c-0.25 0.83 0.2 1.48 1 1.43l14.39-0.79a2.34 2.34 0 0 0 1.92-1.6l5.49-28.27c0.25-0.84-0.2-1.48-1-1.44l-14.39 0.8a2.31 2.31 0 0 0-1.92 1.59z" fill="#37474f"/>
  <path d="m655.92 111.16-5.49 28.28c-0.25 0.83 0.19 1.48 1 1.43l14.39-0.79a2.36 2.36 0 0 0 1.92-1.6l5.49-28.27c0.25-0.84-0.2-1.48-1-1.44l-14.4 0.8a2.31 2.31 0 0 0-1.91 1.59z" fill="#455a64"/>
  <path d="m659.94 112.22a1.23 1.23 0 1 1-1.27-1.19 1.23 1.23 0 0 1 1.27 1.19z" fill="#263238"/>
  <g fill="#f7a9a0">
   <path d="m610.15 156.06c9 17 28.29 38.66 35.86 38.41 3.6-0.12 10.07 0.45 14.61-3.91 9.89-9.51 17.71-27.18 19-37.14 0.47-3.55-17-10.38-19.39-7.39-5.6 7-11.87 20.45-12.92 20.42-3.89-0.12-19.62-12-30.61-20.42-13.32-10.19-10.12 3.27-6.55 10.03z"/>
   <path d="m679.22 135.23c-2.14-7.06-3.78-8.54-2.42-15.46 0.89-4.53-1.63-7-4.64-3.3-4.93 6.13-4.08 15.81-2.82 19.08z"/>
   <path d="m678.94 156.52s2.73-10.1 1.19-17.84c-1.06-5.36-4.68-16.75-20.06-22.14-3.64-1.28-9.75-0.51-4.55 3.74 3.7 3 7 3.82 8.78 6 0 0-7.65 1.89-8.79 5.6a70.42 70.42 0 0 0-2.28 9.89 15.14 15.14 0 0 0 1.81 0.59s-1 3.5 1.83 8.28z"/>
   <path d="m678.3 133.73c-2.27-1.75-7.13-5.37-12.14-6.95-5.57-1.76-16.76-3.64-18 0.48-0.92 3 3.29 4.11 3.29 4.11s-4.79 0.2-5 3.11c-0.21 2.66 3.1 3.31 3.1 3.31s-2.89 0.62-2.6 3.21c0.35 3.12 6.34 1.31 9.42 4.17 0.63 0.64 21.93-11.44 21.93-11.44z"/>
  </g>
  <path d="m665.28 133a23.3 23.3 0 0 0-13.76-1.67c-0.11 0-0.15 0.13 0 0.13a56.89 56.89 0 0 1 13.79 1.6s0-0.06-0.03-0.06z" fill="#263238"/>
  <path d="m663.35 138.53c-2.19-0.9-8.66-2.21-13.84-0.85-0.11 0-0.15 0.14 0 0.13a62.15 62.15 0 0 1 13.86 0.77z" fill="#263238"/>
  <path d="m680.13 160.65s-12.76 28.35-20.76 31.91-12.91 3.08-16 2.76a8.16 8.16 0 0 1-3.28-1.4c-8.48-5.48-24.14-25.55-30.64-36.94-4.88-8.56-4.74-16.52 2.16-14.27a22.64 22.64 0 0 1 6.45 3.72c13 9.89 27.91 19.19 28.58 18.79s7.36-12.09 7.36-12.09z" fill="#ffc727"/>
  <path d="m676.89 165.85c-0.95-0.47-9.9-3.49-11.85-4.1s-9.94-3.21-12-3.67a0.07 0.07 0 0 0 0 0.14c1.95 0.84 10 3.47 12 4.14s10.9 3.46 11.91 3.63c0.05 0.01 0.05-0.11-0.06-0.14z" fill="#263238"/>
  <path d="m640.11 161.65a129.16 129.16 0 0 1-16.76 15.11c-2.17-2.69-4.28-5.46-6.23-8.18a114.18 114.18 0 0 0 14.41-12.52c3.2 2.16 6.14 4.08 8.58 5.59z" fill="#ebebeb"/>
  <path d="m664.62 187.83c-1.85 2.29-3.64 4-5.25 4.72-8 3.58-12.91 3.09-16 2.77a8 8 0 0 1-3.28-1.4c-8.48-5.48-24.14-25.56-30.64-36.94-4.43-7.76-4.73-15 0.4-14.64 13.8 11.37 40.01 33.18 54.77 45.49z" opacity=".1"/>
  <path d="m633.08 180.13 11.33 28.53s-41.18 0.87-53.85 0.74c0 0-8-46.28 4.73-61.83 6.35-7.77 11.89-7.33 17.28-2.48 1.36 1.23 19.36 14.93 21.44 22.58a19.61 19.61 0 0 1-0.93 12.46z" fill="#ffc727"/>
  <path d="m624.08 178.72a52.43 52.43 0 0 0-7.66 1.32c-1.25 0.34-2.47 0.72-3.69 1.14-0.61 0.2-1.22 0.39-1.84 0.57a8.29 8.29 0 0 1-2 0.39 0.045 0-90 0 0 0 0.09 12.06 12.06 0 0 0 1.9 0 12.73 12.73 0 0 0 1.82-0.36c1.26-0.32 2.52-0.7 3.78-1 2.55-0.68 5.1-1.36 7.7-1.85 0.15-0.11 0.12-0.32-0.01-0.3z" fill="#263238"/>
  <path d="m630.49 181a54.87 54.87 0 0 0-6.41-0.25c-1.07 0-2.14 0.1-3.2 0.22-0.51 0.05-1 0.11-1.52 0.18s-1.11 0.23-1.67 0.3a0.045 0-90 0 0 0 0.09c0.53-0.05 1.07 0 1.6 0l1.6-0.05c1.07 0 2.14-0.06 3.2-0.11 2.14-0.09 4.27-0.16 6.41-0.17a0.10512 0.10512 0 0 0-0.01-0.21z" fill="#263238"/>
  <path d="m594.63 145.91c-18.38 12.54-38 38-35.75 45.34 2.56 8.17 29-9.61 28.55-10.83-0.38-1 4.39-10.78 11.22-24.74 6.95-14.2 0.53-12.87-4.02-9.77z" fill="#ffc727"/>
  <path d="m592 169.33c-2.09 4.38-3.59 7.67-4.24 9.51a143.91 143.91 0 0 1-20.86-5.55c2-2.75 4.32-5.61 6.83-8.46a115.35 115.35 0 0 0 18.27 4.5z" fill="#ebebeb"/>
  <path d="m558.88 191.25c2.48 5.62 11.69 8.4 34.22 17.59 3.12 1.27 18-18.32 14.75-19.85-4.1-1.92-20.45-8.51-21.71-8.84-10.6-2.78-28.95 7.3-27.26 11.1z" fill="#f7a9a0"/>
  <path d="m603.37 187s9.64 3.45 14.14 6.83a36.2 36.2 0 0 1 10.6 13.67c2.59 5.76 4.85 21.48 0.44 22.93-4 1.3-5.5-14.89-5.5-14.89s4.25 16.25-0.85 16.94-5.77-18.2-5.77-18.2 4 16.8-1.38 16.67c-4-0.09-5.63-17.16-5.63-17.16s3.34 14.45-0.84 14.54c-4.62 0.09-7.06-15.58-7.06-15.58-10.66-1.57-15.09-6.68-17.81-10.69-0.66-0.97 19.66-15.06 19.66-15.06z" fill="#f7a9a0"/>
  <g fill="#263238">
   <path d="m621.94 209.83c0.56 1.89 1.15 3.8 1.55 5.74s0.73 3.88 1 5.84a34.38 34.38 0 0 1 0.12 7.72c0.12-4.59-1.2-11.54-1.6-13.47s-0.7-3.89-1.1-5.82c-0.06-0.05 0.01-0.05 0.03-0.01z"/>
   <path d="m614.92 211.14c0.63 2.45 1.33 4.85 1.85 7.33s0.78 4.84 1.12 7.33c0 0.19-0.09 0.14-0.12-0.05-0.44-2.47-1-4.73-1.51-7.2s-0.84-5-1.4-7.4c-0.01-0.03 0.05-0.04 0.06-0.01z"/>
   <path d="m608.7 211.19a56.5 56.5 0 0 1 2 11.42c0 0.19-0.12 0.11-0.15-0.09-0.58-3.8-1-6.8-1.94-11.29-0.05-0.07 0.07-0.12 0.09-0.04z"/>
  </g>
  <path d="m607.94 186.92s-21.79 21.54-22.06 21.48-25.81-10.93-27-17.15 17.86-13.44 27.24-11.14 21.82 6.81 21.82 6.81z" fill="#ffc727"/>
  <g fill="#263238">
   <path d="m599.41 185.31c-0.87 0.69-7.71 7.83-9.16 9.41s-7.45 8-8.81 9.75c-0.06 0.08 0 0.18 0.11 0.11 1.66-1.47 7.73-7.92 9.24-9.5s8.12-8.79 8.74-9.68c0.05-0.07-0.06-0.13-0.12-0.09z"/>
   <path d="m575.24 180.57c2-0.6 7.68-1.81 12.61-0.09 0.06 0 0 0.09 0 0.08a38.54 38.54 0 0 0-12.57 0.08s-0.09-0.06-0.04-0.07z"/>
   <path d="m606.6 188.25 1.29-1.38v0.12l-5.1-1.76c-1.71-0.58-3.41-1.14-5.13-1.68-3.41-1.12-6.85-2.16-10.33-3.05l-0.4-0.11 0.15-0.38c1.41-3.6 2.88-7.15 4.51-10.65a113.13 113.13 0 0 1 5.41-10.24c-1.72 3.45-3.32 6.94-4.83 10.47s-3 7.08-4.33 10.68l-0.26-0.49c3.49 0.92 6.93 2 10.34 3.18 1.7 0.6 3.39 1.23 5.07 1.87s3.35 1.33 5 2l0.1 0.05-0.09 0.12z"/>
   <path d="m593.05 166.9a20.16 20.16 0 0 1 1.58-2.39 15.46 15.46 0 0 1 1.94-2.11 14.81 14.81 0 0 1-1.54 2.42c-0.3 0.37-0.6 0.74-0.93 1.09a7.59 7.59 0 0 1-1.05 0.99z"/>
  </g>
  <path d="m599.81 147.22c0.44 0.92 6.49 6.26 10.92 5.08 1.44-0.38-0.32-8.35-0.32-8.35v-0.61l0.06-8.64-11-4.12-1.58-0.51s0.14 2.36 0.34 5.3v0.42q0 0.26 0 0.48c0 0.44 0 0.89 0.09 1.34s0 0.67 0.09 1 0.07 0.7 0.1 1.06a56 56 0 0 0 1.3 7.55z" fill="#f7a9a0"/>
  <path d="m610.41 143.45a17.84 17.84 0 0 1-12-5.7 0.66 0.66 0 0 0 0-0.14c0-0.45-0.06-0.9-0.09-1.34v-0.47-0.43c-0.2-2.94-0.35-5.31-0.35-5.31l1.58 0.52 11 4.12-0.06 8.63z" fill="#263238"/>
  <path d="m619.94 122.39c1.16 15.12-7.77 17.52-11 17.77-3 0.22-13.07 0.6-15.78-14.32s4-20.24 10.7-21.11 14.93 2.53 16.08 17.66z" fill="#f7a9a0"/>
  <g fill="#263238">
   <path d="m616.66 118.79c-0.36 0-0.69-0.1-1-0.15a1.65 1.65 0 0 1-1-0.36 0.54 0.54 0 0 1-0.05-0.66 1.34 1.34 0 0 1 1.31-0.4 2 2 0 0 1 1.29 0.61 0.58 0.58 0 0 1-0.55 0.96z"/>
   <path d="m606.58 120.52a7.4 7.4 0 0 0 1-0.26 1.66 1.66 0 0 0 1-0.46 0.54 0.54 0 0 0 0-0.66 1.37 1.37 0 0 0-1.35-0.27 2 2 0 0 0-1.21 0.75 0.58 0.58 0 0 0 0.56 0.9z"/>
   <path d="m609.09 123.22s-0.08 0.06-0.08 0.1c0.1 1 0 2.24-0.88 2.64v0.06c1.15-0.23 1.22-1.83 0.96-2.8z"/>
   <path d="m608.09 122.19c-1.68 0-1.6 3.34 0 3.36s1.41-3.34 0-3.36z"/>
   <path d="m607.43 122.39c-0.28 0.2-0.56 0.54-0.92 0.58s-0.72-0.29-1-0.62h-0.06c0 0.64 0.27 1.29 1 1.37s1.07-0.5 1.21-1.16c0-0.08-0.11-0.25-0.23-0.17z"/>
   <path d="m615.1 122.48s0.09 0 0.09 0.09c0 1 0.2 2.23 1.16 2.54v0c-1.17-0.06-1.35-1.64-1.25-2.63z"/>
   <path d="m616 121.35c1.66-0.2 1.94 3.15 0.4 3.34s-1.81-3.17-0.4-3.34z"/>
   <path d="m616.7 121.52c0.28 0.15 0.57 0.45 0.89 0.45s0.61-0.39 0.81-0.76h0.06c0.07 0.64-0.09 1.32-0.69 1.5s-1-0.36-1.22-1c-0.04-0.07 0.04-0.26 0.15-0.19z"/>
   <path d="m609 131.34c0.24 0.25 0.49 0.59 0.86 0.63a2.94 2.94 0 0 0 1.13-0.24 0.025 0-90 0 0 0 0.05 1.4 1.4 0 0 1-1.33 0.54 1.09 1.09 0 0 1-0.8-0.94c0.03-0.06 0.14-0.08 0.14-0.04z"/>
   <path d="m613.7 127.23a22.91 22.91 0 0 1 0.29 2.29 4 4 0 0 1-3.9-1.05c-0.06-0.06 0-0.15 0.11-0.11a5.23 5.23 0 0 0 3.23 0.8c0-0.2-0.56-2.64-0.44-2.65a6.46 6.46 0 0 1 1.69 0.31c-0.48-3.25-1.47-6.4-1.89-9.65a0.1 0.1 0 0 1 0.19 0 53.76 53.76 0 0 1 2.48 10.31c0.07 0.36-1.46-0.13-1.76-0.25z"/>
   <path d="m594 127.37c2.9 0.28 3.44-6.35 3.44-6.35s12.23-2.46 13-12.51a16.93 16.93 0 0 0 8.83 9s-0.76-11-9.53-12.83c0 0-10.92-3.6-16.73 5.16s-0.91 17.35 0.99 17.53z"/>
   <path d="m610.47 107.77a10.85 10.85 0 0 1-0.41 4.59 11.22 11.22 0 0 1-2.2 4.11 9.26 9.26 0 0 1-0.8 0.86l-0.41 0.42-0.46 0.36c-0.32 0.24-0.62 0.49-0.94 0.71s-0.67 0.39-1 0.58a5.05 5.05 0 0 1-0.51 0.28l-0.53 0.23-1.07 0.45c-0.74 0.23-1.48 0.42-2.22 0.6 0.69-0.33 1.41-0.58 2.09-0.92l1.5-0.78 0.47-0.32 0.93-0.62c0.3-0.23 0.58-0.48 0.86-0.71l0.43-0.36 0.39-0.4a9.58 9.58 0 0 0 0.75-0.82 13 13 0 0 0 2.23-3.84 13.34 13.34 0 0 0 0.62-2.16 14.11 14.11 0 0 0 0.28-2.26z"/>
  </g>
  <path d="m595.62 126.82s-3.26-4.77-5.42-3.61 0.26 8 2.77 9a2.57 2.57 0 0 0 3.45-1.34z" fill="#f7a9a0"/>
  <path d="m590.94 125.17s-0.05 0 0 0.06c1.76 0.74 2.67 2.39 3.31 4.09a1.43 1.43 0 0 0-2.12-0.41 0.06 0.06 0 0 0 0 0.1 1.56 1.56 0 0 1 1.73 0.57 7.87 7.87 0 0 1 0.82 1.41c0.08 0.16 0.36 0.08 0.31-0.1 0.09-2.3-1.63-5.47-4.05-5.72z" fill="#263238"/>
  <path d="m434.76 451.05c2.1-0.87 48.59-41.38 49.39-44 0.3-1-5.2-8.13-12.1-16.54-1.48-1.81-3-3.68-4.62-5.57-10.26-12.25-21.44-25-21.44-25l-31.17 27 22.3 24.29 4.88 5.27s-10.86 23.5-11.42 26.5 2.09 8.92 4.18 8.05z" fill="#ad6359"/>
  <path d="m434.76 451.05c2.1-0.87 48.59-41.38 49.39-44 0.37-1.24-7.84-11.48-16.72-22.11l-30.31 26.27 4.88 5.29s-10.86 23.5-11.42 26.5 2.09 8.92 4.18 8.05z" fill="#fff"/>
  <path d="m434.76 451.05c2.1-0.87 48.59-41.38 49.39-44 0.3-1-5.2-8.13-12.1-16.54l-30 26s-10.91 23.49-11.47 26.49 2.09 8.92 4.18 8.05z" fill="#37474f"/>
  <g fill="#263238">
   <path d="m433.81 448.61c7.63-7 39-34.42 47.11-40.74 0.07-0.06 0.11 0 0.05 0.05-7.41 7.08-39.05 34.26-47.05 40.82-0.17 0.13-0.27 0.01-0.11-0.13z"/>
   <path d="m432.12 438.71a8.29 8.29 0 0 1 6.32-2.16 8.06 8.06 0 0 1 5.36 2.64c0 0.05 0 0.13-0.09 0.09a9.58 9.58 0 0 0-11.51-0.47 0.064031 0.064031 0 1 1-0.08-0.1z"/>
   <path d="m439.66 419.91c3.08-2.76 7.66-4.81 11.82-4 0.16 0 0.11 0.26 0 0.3a56.92 56.92 0 0 0-11.51 4.08 0.26 0.26 0 0 1-0.31-0.38z"/>
   <path d="m438.07 423c3.08-2.76 7.66-4.81 11.82-3.95 0.16 0 0.11 0.26 0 0.29a57.57 57.57 0 0 0-11.51 4.09 0.26505 0.26505 0 0 1-0.31-0.43z"/>
   <path d="m436.48 426c3.08-2.76 7.66-4.81 11.82-4 0.16 0 0.11 0.27 0 0.3a57.53 57.53 0 0 0-11.51 4.08 0.26 0.26 0 0 1-0.31-0.38z"/>
   <path d="m434.89 429c3.08-2.76 7.66-4.81 11.82-3.95 0.16 0 0.11 0.26 0 0.3a56.92 56.92 0 0 0-11.51 4.08 0.26505 0.26505 0 0 1-0.31-0.43z"/>
  </g>
  <path d="m472.49 402.19c3.51-3 8.24 2.41 4.72 5.46s-8.21-2.41-4.72-5.46z" fill="#fff"/>
  <g fill="#263238">
   <path d="m433.27 418.88c3.57 0.7 7.33-0.16 10.89-0.56a0.5 0.5 0 0 0 0.34-0.74 0.12 0.12 0 0 0 0-0.18 21.72 21.72 0 0 0-9.78-5.5c-2.16-0.51-5.27-0.06-5.7 2.62s2.16 3.95 4.25 4.36zm-2.4-2.46c-2.64-3.66 2.69-3.72 4.26-3.28a22.7 22.7 0 0 1 3 1.11 64.1 64.1 0 0 1 5.78 3.09c-1.76 0.09-3.5 0.33-5.25 0.48-2.11 0.18-6.33 0.62-7.79-1.4z"/>
   <path d="m453.86 405.76c-2-1.82-4.72-0.24-6.09 1.51a21.73 21.73 0 0 0-4.2 10.41 0.1 0.1 0 0 0 0.12 0.12c0.08 0.3 0.42 0.57 0.73 0.37 3-1.91 6.5-3.58 8.86-6.36 1.37-1.63 2.49-4.32 0.58-6.05zm-5.44 8.57c-1.47 1-3 1.88-4.4 2.91a64 64 0 0 1 2.59-6 23.22 23.22 0 0 1 1.62-2.72c1-1.33 5.16-4.61 5.38-0.1 0.13 2.46-3.44 4.75-5.19 5.91z"/>
   <path d="m380.13 339c2.92 16.67 46.29 63.3 51.3 68.65l1.15 1.22 33.05-27.71-0.41-0.5-31.77-38.12 89.74-4.34-35.19-25.07s-2.69 1.71-8.48 1.11c-19.93-2.05-64.87-6.58-75.38-5.7-13.58 1.13-26.69 15.14-24.01 30.46z"/>
  </g>
  <path d="m422 328.33a38.87 38.87 0 0 1 3.27 3.85c1.13 1.35 2.27 2.68 3.39 4l-0.62-1.2c-0.73-1.36-1.33-2.77-2.18-4.06-0.05-0.08 0.07-0.16 0.12-0.08 0.88 1.28 1.87 2.49 2.63 3.85 0.36 0.64 0.7 1.29 1 1.95 0.18 0.36 0.36 0.72 0.51 1.09a2.81 2.81 0 0 1 0.22 0.53c0.51 0.62 1 1.25 1.49 1.9 1.07 1.42 2 2.93 3.12 4.35 0.06 0.07-0.06 0.15-0.12 0.08-1.1-1.33-2.31-2.55-3.43-3.87s-2.21-2.71-3.28-4.1-2.06-2.73-3.1-4.09a41 41 0 0 1-3.14-4.2 0.06 0.06 0 0 1 0.12 0z" fill="#37474f"/>
  <path d="m427.66 401.13c1.88-1.74 3.9-3.35 5.88-5s4-3.24 6-4.85c4-3.22 8-6.46 12.07-9.62 2.23-1.73 4.48-3.45 6.8-5.06a0.11 0.11 0 0 1 0.13 0.17c-3.8 3.46-7.86 6.63-11.87 9.83s-8.05 6.42-12.12 9.57c-2.23 1.73-4.44 3.51-6.77 5.09-0.1 0.09-0.2-0.06-0.12-0.13z" fill="#37474f"/>
  <path d="m498 263.33c-4.92 9.47-22.47 36-36.38 41.15-7.67 2.83-46.93 9.94-52.78 5.86-6.85-4.78-5-26.24-0.14-27.06 14.79-2.52 42.71 0.07 49.39-2.34 3-1.09 18.11-13.86 34.6-24.65 6.22-4.08 8.46 0.93 5.31 7.04z" fill="#ad6359"/>
  <path d="m422.83 281.18s0.2 32.42 1.73 31.95 34.88-4.79 43.26-9.58 21.59-24.07 29.23-36.77 0.36-15.41-7.72-9-30.75 21.6-32.21 21.74-34.29 1.66-34.29 1.66z" fill="#455a64"/>
  <path d="m429.07 309.55c0.17-4.38 0.27-8.75 0.19-13.13-0.05-2.19-0.12-4.37-0.23-6.55s-0.44-4.36-0.52-6.54c0-0.12-0.2-0.1-0.19 0 0.19 2.17 0.09 4.38 0.17 6.56s0.13 4.37 0.18 6.56c0.1 4.36 0.21 8.73 0.21 13.1 0 0.14 0.18 0.12 0.19 0z" fill="#263238"/>
  <path d="m470.16 301.93c8.35-6.57 19.94-23.59 26.89-35.15 5.45-9 3.31-13-1.3-12.24z" fill="#37474f"/>
  <rect x="424.26" y="311.39" width="57.78" height="2.59" fill="#c7c7c7"/>
  <polygon points="424.25 313.98 424.25 311.39 469.67 311.39 471.65 313.98" fill="#a6a6a6"/>
  <polygon points="406.2 275.73 462.51 275.73 467.2 313.98 410.89 313.98" fill="#c7c7c7"/>
  <path d="m440.13 294.85a3.36 3.36 0 0 1-3.37 3.43 3.51 3.51 0 0 1-3.49-3.43 3.36 3.36 0 0 1 3.37-3.42 3.51 3.51 0 0 1 3.49 3.42z" fill="#fff"/>
  <path d="m406.66 279.43c-2.12 3.28-7.36 7.11-8.08 9.92a3.31 3.31 0 0 0 1.37 3.72s-3 1.05-3.27 3.71c-0.12 1.37 2 2.76 2 2.76a4 4 0 0 0-2.46 3.32c-0.05 1.89 2 3 2 3s-1.88 2-1.31 3.93c1.16 3.94 17.28 6.07 20.55 0.46 1.53-2.61-2.44-2.92-2.44-2.92s5.81-0.94 6.33-4.25-4.65-3.4-4.65-3.4 5.62-0.95 5.82-4.44-5-2.83-5-2.83 3.91-2 3.45-4.66c-0.76-4.47-10 0.28-13.39-1z" fill="#ad6359"/>
  <g fill="#263238">
   <path d="m398.53 306.09c-0.06 0-0.08 0.06 0 0.08a28.19 28.19 0 0 0 16.74 1.2c0.17 0 0.17-0.35 0-0.33a58 58 0 0 1-16.74-0.95z"/>
   <path d="m398.56 299.56a0.06 0.06 0 0 0 0 0.11 26.37 26.37 0 0 0 18.34 0.18c0.21-0.08 0.31-0.35 0.07-0.28-4.13 1.26-13.28 1.12-18.41-0.01z"/>
   <path d="m417.92 292.1c-5.83 2-11.72 2-17.76 1.07-0.08 0-0.09 0.1 0 0.13 2.83 1.25 6.74 1.43 9.8 1.31a16.3 16.3 0 0 0 8.04-2.31c0.08-0.06 0-0.24-0.08-0.2z"/>
  </g>
  <path d="m476.56 325.38s64.55 9.8 64.87 9.39-9.18-69.57-31.33-80.64c-3.51-1.76-11.88-2.6-15.33 1.14-9.83 10.66-19.08 69.2-18.21 70.11z" fill="#455a64"/>
  <path d="m477.06 319.61 63.54 8.92c-0.29-1.9-0.68-4.17-1.15-6.72l-61.45-8.63c-0.37 2.44-0.69 4.61-0.94 6.43z" fill="#37474f"/>
  <path d="m478.61 309.77 60.16 8.46c-0.22-1.13-0.45-2.3-0.71-3.5l-58.87-8.27c-0.19 1.13-0.4 2.24-0.58 3.31z" fill="#37474f"/>
  <path d="m497.29 267.65c3.58 0.15 8.46-6.21 10-10.9 0.1-0.32-0.93-3.3-2-7-0.65-2.24-1.32-4.74-1.77-7.07l-13.93 6.35a38.08 38.08 0 0 1 3.13 8.68 5.51 5.51 0 0 1 0.08 1 0.92 0.92 0 0 0 0 0.16c0.01 1.87 1.03 8.63 4.49 8.78z" fill="#ad6359"/>
  <path d="m489.53 249.05a37.57 37.57 0 0 1 3.13 8.68 4.74 4.74 0 0 1 0.09 1 0.92 0.92 0 0 0 0 0.16 7.28 7.28 0 0 0 1.52-0.21c8.46-1.82 8.84-12.81 8.79-15.77z" fill="#263238"/>
  <path d="m502.05 223.8c2.58 4.88 2.75 20.37-0.29 24.42-4.4 5.88-13.06 8-18.41 2.41-5.19-5.45-5.05-25.65-1.52-29.48 5.17-5.64 16.4-4.55 20.22 2.65z" fill="#ad6359"/>
  <g fill="#263238">
   <path d="m488.9 236s0.08 0.05 0.07 0.09c0 1 0.09 2.23 1 2.58v0.06c-1.13-0.13-1.28-1.73-1.07-2.73z"/>
   <path d="m489.83 235c1.67-0.11 1.77 3.23 0.22 3.33s-1.62-3.27-0.22-3.33z"/>
   <path d="m482.81 236.2s-0.08 0.05-0.08 0.1c0.07 1 0 2.23-1 2.6a0.03 0-90 0 0 0 0.06c1.19-0.2 1.27-1.79 1.08-2.76z"/>
   <path d="m481.85 235.15c-1.67-0.08-1.7 3.27-0.15 3.34s1.55-3.28 0.15-3.34z"/>
   <path d="m491.11 233.4a11.75 11.75 0 0 1-1.31-0.42 2.24 2.24 0 0 1-1.25-0.68 0.71 0.71 0 0 1 0.09-0.86 1.73 1.73 0 0 1 1.76-0.23 2.59 2.59 0 0 1 1.52 1.07 0.76 0.76 0 0 1-0.81 1.12z"/>
   <path d="m480.51 233.5c0.46-0.09 0.87-0.25 1.32-0.38a2.17 2.17 0 0 0 1.27-0.65 0.71 0.71 0 0 0-0.06-0.86 1.76 1.76 0 0 0-1.76-0.28 2.59 2.59 0 0 0-1.55 1 0.76 0.76 0 0 0 0.78 1.17z"/>
   <path d="m490.26 245.16c-0.19 0.29-0.36 0.67-0.72 0.79a2.74 2.74 0 0 1-1.14 0s-0.06 0 0 0.06a1.4 1.4 0 0 0 1.41 0.26 1.09 1.09 0 0 0 0.59-1.08c-0.03-0.07-0.12-0.07-0.14-0.03z"/>
   <path d="m488.87 242.22a3.57 3.57 0 0 1-2.31 1.64 4.51 4.51 0 0 1-1.27 0.09 3.75 3.75 0 0 1-0.47 0 0.27 0.27 0 0 1-0.22-0.22v-2.22c-0.29 0.16-1.76 0.87-1.75 0.45a53.83 53.83 0 0 1 1.06-10.72c0-0.11 0.2-0.09 0.19 0 0 3.33-0.52 6.64-0.55 10a6.27 6.27 0 0 1 1.65-0.55c0.07 0-0.07 2.72-0.06 2.74a4.91 4.91 0 0 0 3.62-1.24c0.08-0.12 0.17-0.05 0.11 0.03z"/>
   <path d="m485.61 243.77a4.4 4.4 0 0 0 1.86 1.22 2 2 0 0 0 1.21 0c0.85-0.3 0.81-1.1 0.59-1.77a4.55 4.55 0 0 0-0.47-1 5.65 5.65 0 0 1-3.19 1.55z"/>
  </g>
  <path d="m487.47 245a2 2 0 0 0 1.21 0c0.85-0.3 0.81-1.1 0.59-1.77a2.06 2.06 0 0 0-1.8 1.77z" fill="#ff9cbd"/>
  <path d="m479.77 226.84c0.52-1.39 1.14-2.78 1.94-3.09s1.43 1.66 3.3 1.7c2.51 0.05 3.62-2.31 7.12-2.71 5-0.58 7.43 3.52 7.88 10.67 0.41 6.38 4.29 6.8 4.29 6.8s1.7-14.21-2.49-18.67-13.39-6.12-19.3-1.39c-2.15 1.73-2.74 6.69-2.74 6.69z" fill="#263238"/>
  <path d="m500.79 237.64s2.56-5.44 5-4.62 1.08 8.32-1.34 9.73a2.67 2.67 0 0 1-3.77-0.81z" fill="#ad6359"/>
  <path d="m505.33 235.16s0.06 0.05 0 0.07c-1.68 1.05-2.35 2.89-2.71 4.75a1.47 1.47 0 0 1 2.1-0.77 0.06 0.06 0 0 1 0 0.11 1.65 1.65 0 0 0-1.69 0.87 8 8 0 0 0-0.6 1.59c-0.06 0.17-0.36 0.14-0.33-0.06-0.45-2.35 0.78-5.9 3.23-6.56z" fill="#263238"/>
  <path d="m486.56 217.59a22.61 22.61 0 0 1 6.08-2.52c2.39-0.55 10.11-0.75 12.11 0.6s3.22 8.51 3.38 9.56 0.34 7.48-1.82 9.26-3.48-9-7.5-12.26-12.25-4.64-12.25-4.64z" fill="#a6a6a6"/>
  <path d="m486.56 217.59s8.23 1.42 12.25 4.64 5.35 14 7.51 12.26c0.94-0.78 1.34-1.84 1.58-3.58-0.81-3.12-2.6-7.9-5.59-11-2.8-2.94-7.22-4.11-11.82-4.16a25.72 25.72 0 0 0-3.93 1.84z" opacity=".1"/>
  <path d="m506.34 241c-0.5-2.87-4.23-10.3-7.77-14.42s-12.86-5.77-14.12-5.57c-3.05 0.49-3.58 2-4.09 1.81s2.2-4 3-4.64a9.89 9.89 0 0 1 4.14-1.5c1.34-0.11 9.67-0.14 13 3.07s8.61 12.62 8.09 15.22c-0.12 0.63-0.89 1.1-1.05 2-0.23 1.16-0.33 2.49-0.59 3.31-0.18 0.64-0.56 0.96-0.61 0.72z" fill="#a6a6a6"/>
  <g fill="#263238">
   <path d="m497.66 224.66a15.41 15.41 0 0 0 1.85-1.67 11.34 11.34 0 0 0 1.52-2 0.045 0-180 0 0 0.09 0 8.2 8.2 0 0 1-1.35 2.21 6.75 6.75 0 0 1-2 1.57c-0.11 0.07-0.18-0.06-0.11-0.11z"/>
   <path d="m506.08 238.1a5.5 5.5 0 0 1 0.25-0.63 3.67 3.67 0 0 0 0.2-0.74 6.29 6.29 0 0 1 0.18-1.43 5 5 0 0 1 0.58-1 2 2 0 0 0 0.45-1.24c0-0.06 0.09-0.07 0.09 0a4.85 4.85 0 0 1-0.74 2.34 9.69 9.69 0 0 0-0.24 1.54 2.21 2.21 0 0 1-0.64 1.28s-0.16-0.04-0.13-0.12z"/>
   <path d="m504.76 235.08c0.24-0.36 0.5-0.68 0.71-1.06a9.81 9.81 0 0 0 0.51-1.15c0.14-0.38 0.26-0.78 0.39-1.17s0.38-0.9 0.52-1.36c0-0.06 0.11 0 0.09 0-0.14 0.49-0.21 1-0.33 1.48a10.68 10.68 0 0 1-0.43 1.24 6.5 6.5 0 0 1-0.58 1.11 3.36 3.36 0 0 1-0.84 0.92s-0.06 0.02-0.04-0.01z"/>
   <path d="m503.42 232.36a8.32 8.32 0 0 0 1.39-1.93c0.35-0.7 0.66-1.41 1-2.13a0.045 0-180 0 0 0.09 0 10.29 10.29 0 0 1-0.77 2.29 5.41 5.41 0 0 1-0.64 1 5.52 5.52 0 0 1-1 0.83 0.05 0.05 0 0 1-0.07-0.06z"/>
   <path d="m502 229.78a2.93 2.93 0 0 0 0.68-0.85c0.22-0.35 0.43-0.71 0.63-1.07s0.38-0.69 0.57-1a2.81 2.81 0 0 0 0.41-1.12 0.05 0.05 0 0 1 0.1 0 2.93 2.93 0 0 1-0.22 1.17 7.49 7.49 0 0 1-0.54 1.19 8.79 8.79 0 0 1-0.7 1.09 1.87 1.87 0 0 1-0.87 0.73 0.076158 0.076158 0 0 1-0.06-0.14z"/>
   <path d="m500.82 226.43c0.24-0.29 0.48-0.58 0.7-0.88s0.41-0.63 0.61-1 0.42-0.67 0.6-1a0.045 0-180 0 0 0.09 0 7.44 7.44 0 0 1-0.42 1.11 9.12 9.12 0 0 1-0.6 1 8.89 8.89 0 0 1-0.71 0.91 3 3 0 0 1-0.87 0.76c-0.05 0-0.12 0-0.09-0.09a5.35 5.35 0 0 1 0.69-0.81z"/>
   <path d="m495.28 223.24c0.24-0.38 0.49-0.76 0.77-1.12a13 13 0 0 1 0.93-1 12 12 0 0 1 2.09-1.74s0.1 0 0.06 0.07c-1.24 1.31-2.54 2.57-3.78 3.89-0.04 0.01-0.11-0.04-0.07-0.1z"/>
   <path d="m493.27 221a5.83 5.83 0 0 1 0.89-1 13 13 0 0 1 2.33-1.63c0.06 0 0.11 0 0.06 0.07-0.7 0.58-1.4 1.14-2.07 1.76a10.54 10.54 0 0 0-0.94 0.95c-0.3 0.34-0.51 0.73-0.79 1.08a0.03 0 0 0 0-0.06 0 3.47 3.47 0 0 1 0.58-1.23z"/>
   <path d="m490.75 220.06a7 7 0 0 1 2.8-2.47c0.05 0 0.09 0 0 0.08a15.07 15.07 0 0 0-1.84 1.65c-0.28 0.3-0.55 0.61-0.82 0.93a12.37 12.37 0 0 1-0.79 1h-0.05a7.47 7.47 0 0 1 0.7-1.19z"/>
   <path d="m488.87 218.8c0.28-0.28 0.57-0.54 0.86-0.8a3.71 3.71 0 0 1 0.95-0.67c0.05 0 0.08 0 0 0.09-0.54 0.53-1.07 1.07-1.6 1.61a10.63 10.63 0 0 0-1.19 1.73 0.03 0 0 0 0-0.06 0 3.71 3.71 0 0 1 1.04-1.96z"/>
   <path d="m486.65 218.56a6.2 6.2 0 0 1 1.81-1.4s0.09 0.06 0 0.08a7.4 7.4 0 0 0-1.61 1.5 9.89 9.89 0 0 0-1.21 1.86 0.035 0 0 0 0-0.07 0 5.06 5.06 0 0 1 1.08-2.04z"/>
   <path d="m483.94 220.15a4 4 0 0 1 0.21-0.47 4.8 4.8 0 0 1 0.56-0.85 10.2 10.2 0 0 1 1.51-1.43s0.11 0 0.06 0.08a8 8 0 0 0-1.4 1.45 5.62 5.62 0 0 0-0.54 0.83c-0.08 0.14-0.15 0.29-0.22 0.44a2.11 2.11 0 0 1-0.2 0.43h-0.08a1.46 1.46 0 0 1 0.1-0.48z"/>
   <path d="m482.22 220.48a5.7 5.7 0 0 1 0.47-0.7 4.69 4.69 0 0 1 0.54-0.64c0.2-0.21 0.4-0.41 0.59-0.62s0.12 0 0.07 0.06a7 7 0 0 0-0.55 0.67l-0.48 0.66-0.47 0.66c-0.16 0.23-0.3 0.48-0.48 0.69a0.035 0 0 0 0-0.07 0 4 4 0 0 1 0.38-0.78z"/>
   <path d="m492.23 261.23c0 2.93 0.2 9.7 4.75 9a9.74 9.74 0 0 0 4.76-2.75 25.81 25.81 0 0 0 3.63-4.18 38.45 38.45 0 0 0 3.29-5.28c0-0.08 0.16 0 0.12 0.07-1 1.85-1.76 3.76-2.91 5.52a22.43 22.43 0 0 1-3.91 4.61 9.6 9.6 0 0 1-5.08 2.72 3.7 3.7 0 0 1-3.88-2.54 16.43 16.43 0 0 1-0.77-7.17z"/>
  </g>
  <path d="m518.35 269.05c4.38 24.84 0.15 43.44-4.07 45.74-11.36 6.21-38.63-6.37-46.33-8.87-3.11-1 11.07-24.8 14.24-23.33 7.48 3.45 18 9.32 18.38 9.28 0.84-0.09 1.83-6.43 6.17-24.9 3.51-14.97 9.82-8.08 11.61 2.08z" fill="#ad6359"/>
  <path d="m443.16 270.82c-0.78 3.12 7.07 4.39 7.07 4.39a5.93 5.93 0 0 0-3.11 2.57c-1.14 2.16 1.74 4.9 1.74 4.9a7.33 7.33 0 0 0-2.85 3.23c-0.88 2.18 1.64 5.36 1.64 5.36a6.35 6.35 0 0 0-0.72 4.42c1 4 7.1 5.58 10.71 7.31 3.86 1.85 10.26 2.53 13.16 3.83l12.58-23s-12.15-12.89-19.08-14.83c-3.85-1.16-19.95-2.95-21.14 1.82z" fill="#ad6359"/>
  <g fill="#263238">
   <path d="m450.32 275.14a53.49 53.49 0 0 1 13 1.53c0.09 0 0.06 0.17 0 0.15-4.21-0.92-8.77-0.73-13-1.48a0.1 0.1 0 0 1 0-0.2z"/>
   <path d="m449.05 282.39a11.38 11.38 0 0 1 2.94 0.54c1 0.27 2 0.55 3.05 0.85q3 0.89 6 1.94c0.09 0 0.06 0.17 0 0.15-2-0.6-4.06-1.16-6.11-1.66-1-0.25-2.05-0.5-3.08-0.73a14.15 14.15 0 0 1-2.88-0.81 0.15 0.15 0 0 1 0.08-0.28z"/>
   <path d="m447.73 291.29a8.1 8.1 0 0 1 2.62 0.63l2.76 0.86c1.84 0.56 3.69 1.12 5.55 1.62a0.07 0.07 0 1 1 0 0.14c-1.89-0.49-3.8-1-5.69-1.47l-2.78-0.77a7.31 7.31 0 0 1-2.46-0.92 0.05 0.05 0 0 1 0-0.09z"/>
   <path d="m500.57 291.87c-3.12-1.45-6.19-3-9.28-4.48l-4.6-2.29-2.31-1.1c-0.76-0.35-1.58-0.78-2.27-1h-0.12l-0.05-0.06c-2-2-4-3.92-6.07-5.86-1-1-2.08-1.9-3.14-2.82a28.71 28.71 0 0 0-3.32-2.59 24.3 24.3 0 0 1 3.59 2.23c1.12 0.86 2.2 1.76 3.28 2.68 2.15 1.83 4.19 3.79 6.22 5.75l-0.18-0.09a19.51 19.51 0 0 1 2.43 1.07l2.3 1.16 4.58 2.38c2.97 1.63 5.98 3.27 8.94 5.02z"/>
  </g>
  <path d="m484.32 282.05-13.68 28s37 15.11 44.09 6.91 6.84-35.64 3.52-50.66-10.63-7.73-12.27 0.56-4.67 24.13-5.41 23.94-16.25-8.75-16.25-8.75z" fill="#455a64"/>
  <g fill="#263238">
   <path d="m488.24 287.14c-2 3.6-3.95 7.21-5.74 10.92-0.9 1.85-1.76 3.72-2.6 5.59s-1.48 3.85-2.34 5.7a0.09 0.09 0 1 0 0.16 0.07c0.76-1.9 1.79-3.71 2.66-5.57s1.74-3.72 2.63-5.58c1.77-3.7 3.54-7.41 5.4-11.07 0.05-0.1-0.11-0.2-0.17-0.06z"/>
   <path d="m483.76 283.19c0.16-0.4 0.3-0.8 0.47-1.19v-0.09h0.1c2 0.92 4 1.93 6 2.92s3.94 2.06 5.89 3.13 3.89 2.16 5.8 3.31 3.82 2.29 5.68 3.53c-2-0.89-4-1.87-6-2.87s-4-2-5.92-3.09-3.9-2.16-5.82-3.27-3.84-2.27-5.71-3.48l0.14-0.05c-0.19 0.42-0.39 0.78-0.63 1.15z"/>
   <path d="m504.7 273.31a59.13 59.13 0 0 1-1.26 8.92c-0.32 1.47-0.67 2.93-1.11 4.38a14.13 14.13 0 0 1-1.76 4.16 10.68 10.68 0 0 0 0.58-2.15l0.43-2.2c0.27-1.47 0.58-2.93 0.88-4.39 0.64-2.93 1.31-5.84 2.24-8.72z"/>
   <path d="m503.06 274.52c0.09 0.86 0.12 1.7 0.19 2.53 0 0.42 0.07 0.84 0.09 1.25s0.1 0.84 0.15 1.27a5.19 5.19 0 0 1-0.74-2.48 6.59 6.59 0 0 1 0.31-2.57z"/>
   <path d="m520 278.51a103.16 103.16 0 0 1 0.65 10.54 95.77 95.77 0 0 1-0.4 10.57 52.13 52.13 0 0 1-1.9 10.38 23.56 23.56 0 0 1-2.12 4.89 8.47 8.47 0 0 1-3.84 3.58 8.72 8.72 0 0 0 3.42-3.82 23 23 0 0 0 1.8-4.86 51.92 51.92 0 0 0 1-5.11c0.28-1.72 0.49-3.46 0.65-5.2 0.34-3.48 0.5-7 0.62-10.48 0.06-1.75 0.09-3.5 0.1-5.26s0.02-3.47 0.02-5.23z"/>
   <path d="m520.81 280.73a4.82 4.82 0 0 1 0.09 1.85 4.17 4.17 0 0 1-0.64 1.75 13.42 13.42 0 0 1 0.14-1.82 9 9 0 0 1 0.41-1.78z"/>
  </g>
  <path d="m307.69 402c0.88 2.1 41.54 48.46 44.21 49.25 1 0.3 8.1-5.23 16.49-12.15 1.81-1.49 3.67-3 5.55-4.64 12.23-10.3 25-21.52 25-21.52l-27.11-31.09-24.21 22.38-5.32 4.91s-23.5-10.79-26.52-11.34-8.96 2.1-8.09 4.2z" fill="#ad6359"/>
  <path d="m307.69 402c0.88 2.1 41.54 48.46 44.21 49.25 1.23 0.36 11.45-7.87 22-16.79l-26.36-30.23-5.32 4.91s-23.5-10.79-26.52-11.34-8.88 2.1-8.01 4.2z" fill="#fff"/>
  <path d="m307.69 402c0.88 2.1 41.54 48.46 44.21 49.25 1 0.3 8.1-5.23 16.49-12.15l-26.13-30s-23.5-10.79-26.52-11.34-8.92 2.14-8.05 4.24z" fill="#37474f"/>
  <g fill="#263238">
   <path d="m310.13 401c7 7.61 34.55 38.94 40.9 47 0.05 0.06 0 0.1 0 0-7.11-7.39-34.4-38.94-41-46.92-0.16-0.08-0.03-0.21 0.1-0.08z"/>
   <path d="m320 399.31a8.25 8.25 0 0 1 2.18 6.31 8 8 0 0 1-2.62 5.38c-0.05 0-0.13-0.05-0.08-0.1a9.61 9.61 0 0 0 0.43-11.51c-0.03-0.06 0.09-0.14 0.09-0.08z"/>
   <path d="m338.85 406.79c2.77 3.07 4.83 7.64 4 11.81 0 0.16-0.27 0.11-0.3 0a57.57 57.57 0 0 0-4.12-11.5 0.26101 0.26101 0 0 1 0.42-0.31z"/>
   <path d="m335.81 405.21c2.77 3.07 4.83 7.64 4 11.81 0 0.16-0.26 0.11-0.29 0a57.57 57.57 0 0 0-4.12-11.5 0.26 0.26 0 0 1 0.41-0.31z"/>
   <path d="m332.76 403.63c2.78 3.07 4.84 7.64 4 11.8 0 0.17-0.26 0.12-0.29 0a57 57 0 0 0-4.13-11.5 0.26 0.26 0 0 1 0.42-0.3z"/>
   <path d="m329.72 402.05c2.77 3.07 4.84 7.64 4 11.8 0 0.17-0.26 0.12-0.3 0a57 57 0 0 0-4.12-11.5 0.26 0.26 0 0 1 0.42-0.3z"/>
  </g>
  <path d="m356.67 439.56c3.05 3.5-2.38 8.25-5.44 4.74s2.38-8.24 5.44-4.74z" fill="#fff"/>
  <g fill="#263238">
   <path d="m339.86 400.4c-0.7 3.57 0.18 7.33 0.59 10.88a0.51 0.51 0 0 0 0.75 0.34 0.1 0.1 0 0 0 0.17 0 21.69 21.69 0 0 0 5.48-9.8c0.5-2.16 0-5.26-2.65-5.69-2.54-0.39-3.94 2.18-4.34 4.27zm2.45-2.41c3.65-2.66 3.73 2.68 3.3 4.25a23.59 23.59 0 0 1-1.1 3 62.86 62.86 0 0 1-3.08 5.79c-0.09-1.76-0.33-3.49-0.49-5.25-0.19-2.11-0.65-6.32 1.37-7.78z"/>
   <path d="m353 421c1.82-2 0.23-4.73-1.53-6.09a21.72 21.72 0 0 0-10.42-4.17 0.11 0.11 0 0 0-0.12 0.13 0.5 0.5 0 0 0-0.37 0.73c1.92 3 3.6 6.49 6.39 8.83 1.67 1.32 4.37 2.43 6.05 0.57zm-8.59-5.42c-1-1.46-1.88-3-2.92-4.39a65.54 65.54 0 0 1 6 2.57 24.21 24.21 0 0 1 2.73 1.62c1.33 0.95 4.63 5.14 0.11 5.38-2.41 0.08-4.71-3.48-5.88-5.23z"/>
   <path d="m348.72 399.31 28.32 35 87.72-66.56 8.46-6.42s2.54 1.55 6.34 3.45c5.28 2.63 13 5.92 19.73 6.62 11.29 1.19 28.2 0.29 37.12-12.76 7.51-11 4.41-24.77 4.41-24.77l-12.55-4.77s-30.18-23.05-49.1-23c-8 0-19.46 6.6-30 13.41s-100.45 79.8-100.45 79.8z"/>
  </g>
  <g fill="#37474f">
   <path d="m473.22 361.33s2.54 1.55 6.34 3.45c6.23-8.14 19.53-23 19.93-23.54z"/>
   <path d="m517.25 321.42c1.79 1.14 3.53 2.35 5.3 3.52s3.54 2.23 5.21 3.49 3.3 2.67 4.9 4.07c0.77 0.67 1.54 1.35 2.29 2.05a21.66 21.66 0 0 1 2.2 2.19c0.06 0.08 0 0.17-0.13 0.13a24.74 24.74 0 0 1-2.41-1.8c-0.85-0.65-1.68-1.32-2.53-2-1.62-1.27-3.27-2.49-4.89-3.76s-3.11-2.66-4.71-3.94-3.5-2.63-5.27-3.92c-0.03 0.01 0-0.05 0.04-0.03z"/>
   <path d="m355 397.74c1.82 1.8 3.52 3.75 5.22 5.67s3.42 3.84 5.11 5.78c3.38 3.88 6.79 7.73 10.12 11.66 1.83 2.15 3.63 4.32 5.35 6.57 0.07 0.1-0.09 0.23-0.17 0.14-3.62-3.65-6.95-7.57-10.33-11.45s-6.75-7.77-10.08-11.7c-1.81-2.15-3.69-4.29-5.37-6.55-0.12-0.09 0.03-0.2 0.15-0.12z"/>
   <path d="m423.74 398.77c4.34-3.74 14.27-11.09 18.79-14.61s9-7 13.57-10.43c1.31-1 2.64-1.94 4-2.9s2.7-1.86 4-2.85c0.08-0.06 0.15 0.07 0.08 0.12-1.18 0.93-2.3 2-3.46 2.93s-2.21 1.84-3.33 2.75c-2.19 1.77-4.4 3.5-6.61 5.25q-6.71 5.3-13.55 10.45c-2.59 1.94-10.58 7.7-13.23 9.56-0.21 0.11-0.41-0.14-0.26-0.27z"/>
   <path d="m393.79 362.64c4-3.63 13.2-10.65 17.42-14s8.51-6.84 12.8-10.23l12.76-10.07c4.12-3.26 8.22-6.56 12.6-9.48 2.4-1.59 4.86-3.08 7.4-4.43a48.56 48.56 0 0 1 7.69-3.53 0.071589 0.071589 0 0 1 0.06 0.13c-2.17 1.33-4.45 2.47-6.64 3.76s-4.29 2.61-6.38 4c-4.35 2.89-8.43 6.14-12.53 9.37-8.52 6.69-17 13.41-25.6 20-4.8 3.7-14.37 11.32-19.37 14.75-0.16 0.09-0.35-0.15-0.21-0.27z"/>
  </g>
  <path d="m49.14 215c0.68-2.06 37.24-50.37 39.74-51.3 0.28-0.12 16.63 11.51 16.63 11.51 0.67 0.9 31.74-5.67 31.74-5.67l0.31 37.48-56.56-1.21s-7.68 4.49-14.67 8.19a86.5 86.5 0 0 1-9.19 4.47c-2.86 0.68-8.7-1.42-8-3.47z" fill="#d3766a"/>
  <path d="m57.11 218.43a83.53 83.53 0 0 0 9.19-4.43c7-3.66 14.63-8.16 14.63-8.16l12.6 0.27 19.71-31.81c-4.32 0.76-7.55 1.22-7.77 0.94 0 0-16.33-11.64-16.62-11.51-2.5 0.93-39.06 49.24-39.74 51.3s5.16 4.13 8 3.4z" fill="#fff"/>
  <path d="m48.8 215.06c0.72-2.12 37.45-50.4 40-51.36 1-0.36 9 4.57 16.7 11.5l-23.71 31.1s-21.88 11.59-24.79 12.33-8.92-1.46-8.2-3.57z" fill="#a6a6a6"/>
  <g fill="#263238">
   <path d="m51.26 215.83c6.35-7.94 31.24-40.57 36.92-48.91 0-0.06 0-0.1-0.05 0-6.48 7.73-31.09 40.56-37 48.84-0.13 0.15-0.01 0.24 0.13 0.07z"/>
   <path d="m61.08 216.85a8.16 8.16 0 0 0 1.71-6.35 7.89 7.89 0 0 0-2.94-5.09c-0.05 0-0.12 0.05-0.08 0.1a9.42 9.42 0 0 1 1.23 11.26c-0.06 0.07 0 0.14 0.08 0.08z"/>
   <path d="m79.05 208.22c2.51-3.21 4.22-7.83 3.1-11.86 0-0.16-0.26-0.09-0.29 0a56.06 56.06 0 0 1-3.25 11.64 0.26 0.26 0 0 0 0.44 0.22z"/>
   <path d="m76.17 210c2.51-3.21 4.22-7.83 3.1-11.86 0-0.16-0.26-0.09-0.28 0a56.08 56.08 0 0 1-3.26 11.57 0.26349 0.26349 0 0 0 0.44 0.29z"/>
   <path d="m73.29 211.74c2.51-3.21 4.23-7.83 3.11-11.86-0.05-0.16-0.27-0.09-0.29 0a56.26 56.26 0 0 1-3.26 11.57 0.26349 0.26349 0 0 0 0.44 0.29z"/>
   <path d="m70.42 213.5c2.5-3.21 4.22-7.84 3.1-11.86 0-0.16-0.26-0.1-0.29 0a56.44 56.44 0 0 1-3.23 11.61 0.26 0.26 0 0 0 0.42 0.25z"/>
   <path d="m94.3 174.83c2.75-3.64-2.91-7.93-5.67-4.28s2.91 7.93 5.67 4.28z"/>
   <path d="m85 218.29c2.6-0.6 2.85-3.68 2.2-5.76a21.32 21.32 0 0 0-6-9.25 0.12 0.12 0 0 0-0.17 0 0.5 0.5 0 0 0-0.7 0.39c-0.16 3.52-0.77 7.26 0.16 10.72 0.51 2.06 2.07 4.48 4.51 3.9zm-3.86-9.21c0-1.73 0.15-3.45 0.13-5.18a64.09 64.09 0 0 1 3.41 5.47 22.75 22.75 0 0 1 1.32 2.85c0.54 1.51 0.83 6.75-2.94 4.4-2.06-1.31-1.94-5.47-1.89-7.54z"/>
   <path d="m86.11 194.32c-2.58 2.49-4 6-5.67 9.11a0.5 0.5 0 0 0 0.41 0.69 0.11 0.11 0 0 0 0.13 0.12 21.43 21.43 0 0 0 10-4.81c1.62-1.46 3-4.22 1.08-6.08s-4.44-0.48-5.95 0.97zm3.33-0.55c4.45-0.08 1.5 4.26 0.26 5.29a23.9 23.9 0 0 1-2.57 1.77c-1.84 1.14-3.81 2-5.74 2.94 0.91-1.48 1.7-3 2.56-4.52 1.05-1.79 3.05-5.44 5.49-5.48z"/>
  </g>
  <path d="m139 158h25.4s26.57-12.77 48-7.63c24.53 5.9 27.67 36.72 9.33 47.62-23.3 13.84-126.73 11.17-126.73 11.17l22.35-37.89s34.42-7.27 65.65-6.18l-44 6z" fill="#37474f"/>
  <g fill="#263238">
   <path d="m115.9 173.72a1.18 1.18 0 0 0 0-0.2 0.83 0.83 0 0 0 0-0.15c0-0.13 0.06-0.25 0.1-0.37a6.49 6.49 0 0 1 0.26-0.74c0.1-0.25 0.2-0.48 0.31-0.72a5 5 0 0 1 0.42-0.67h0.06 0.06c3.78-0.7 29.48-4.38 33.3-4.81s7.71-0.8 11.58-1.13c7.7-0.64 15.45-1 23.18-0.83 0.73 0 1.45 0 2.18 0.07 0.15-0.05 0.31-0.08 0.47-0.12 0.37-0.09 0.74-0.18 1.12-0.25 0.69-0.14 1.4-0.24 2.1-0.35 1.46-0.22 2.93-0.38 4.39-0.65 0.08 0 0.12 0.12 0 0.14-1.46 0.32-2.9 0.75-4.37 1.07l-1.27 0.26c2.84 0.15 5.67 0.37 8.5 0.63a0.07 0.07 0 0 1 0 0.14c-3.85-0.23-7.73-0.26-11.59-0.19s-7.65 0.15-11.48 0.37c-7.73 0.44-15.47 1.13-23.17 1.94-4.32 0.45-30.52 4.28-34.86 4.46h-0.06a1.88 1.88 0 0 1-0.12 0.3c-0.12 0.23-0.24 0.47-0.37 0.7s-0.24 0.44-0.38 0.65l-0.22 0.32-0.1 0.15a1 1 0 0 0-0.12 0.17c0.18-0.04 0.02-0.1 0.08-0.19z"/>
   <path d="m103.09 206.86c1.39-2.22 2.57-4.58 3.83-6.86s2.55-4.58 3.82-6.87c2.54-4.56 11.67-19.91 12.58-21 0.05-0.07 0.17 0 0.14 0.08-0.43 1.19-6.13 11.35-7.44 13.62-2.62 4.53-5.38 9-8.09 13.45-0.78 1.28-1.58 2.54-2.37 3.81s-1.62 2.52-2.35 3.82c-0.04 0.09-0.16 0.02-0.12-0.05z"/>
   <path d="m123.57 176c2.29-0.54 4.62-0.9 6.93-1.34l6.93-1.3q6.94-1.29 13.9-2.46c9.25-1.56 18.54-2.85 27.88-3.75 5.27-0.5 10.56-0.83 15.84-1.22 0.11 0 0.11 0.17 0 0.17-9.41 0.43-18.81 1.7-28.12 3s-18.43 2.78-27.62 4.33l-7.78 1.33c-2.63 0.46-5.27 1-7.92 1.36a0.08 0.08 0 0 1-0.04-0.12z"/>
  </g>
  <path d="m87.39 337.54c2.28-0.13 61.2-23.68 62.83-25.94 0.63-0.85-23-56.22-23-56.22l-37.48 14.89 15.92 37s-18 18.59-19.56 21.27-0.98 9.13 1.29 9z" fill="#d3766a"/>
  <path d="m87.39 337.54c2.27-0.13 61.2-23.68 62.83-25.94 0.2-0.26-1.95-5.8-5-13.32-10.1 5.84-46.93 26.39-50.59 25.75-2.54-0.45-1.42-3.06-0.19-5-4 4.29-7.69 8.36-8.34 9.5-1.51 2.67-0.97 9.14 1.29 9.01z" fill="#263238"/>
  <path d="m139.8 279.79-43.38 19.95s-35.58-82.91-36.88-112.09c-1.11-24.84 10.09-45.84 66-29.78l13.69 0.17v9.45c-6 0.79-22 3.31-22 3.31-11.66 4.4-15.42 6.22-15.23 6.6 29 58.74 37.8 102.39 37.8 102.39z" fill="#37474f"/>
  <g fill="#263238">
   <path d="m95.1 166.92c1.68 2.24 3.24 4.58 4.73 7a100.78 100.78 0 0 1 28.43-7.49q4.13-0.51 8.28-0.73c0.11 0 0.1 0.16 0 0.17a124.51 124.51 0 0 0-28.93 5.51c-2.6 0.8-5.15 1.73-7.71 2.64 1.8 2.87 3.48 5.8 5.1 8.76a170.48 170.48 0 0 1 8.16 17c1.34 3.22 2.65 6.47 3.8 9.76 0 0.09-0.12 0.16-0.16 0.06q-7.65-17-16.69-33.37c-1.71-3.07-3.48-6.1-5.15-9.19-0.06-0.1 0.04-0.21 0.14-0.12z"/>
   <path d="m95.51 289.65c2.43-0.95 4.79-2.13 7.17-3.2l7.17-3.22c4.77-2.14 21.26-9 22.63-9.29a0.080777 0.080777 0 0 1 0.06 0.15c-1 0.7-11.7 5.43-14.1 6.46-4.82 2.06-9.68 4-14.54 5.93-1.38 0.56-2.78 1.09-4.17 1.64s-2.81 1.05-4.17 1.66c-0.08 0.04-0.14-0.1-0.05-0.13z"/>
   <path d="m95.3 171.23c3.3 6.25 6.1 12.8 9 19.26s5.62 12.91 8.31 19.42q8 19.43 15 39.3c2.62 7.48 3.76 12.64 6.14 20.2 0 0.11-0.13 0.15-0.17 0-4.42-13.38-7.89-24.25-12.89-37.42s-10.29-26.16-15.89-39q-2.37-5.43-4.8-10.82c-1.63-3.6-3.32-7.18-4.84-10.82-0.16-0.15 0.07-0.27 0.14-0.12z"/>
   <path d="m179.34 111.63a0.45 0.45 0 0 1-0.4 0.43h-1.81c-1.26-4.34-2.71-7.83-2.37-6.49a21.68 21.68 0 0 1 0.59 6.45l-3.58-0.13c-0.76-7.53-2.09-13.17-2.12-11.47-0.14 6.88-0.73 9-1.41 11.34-8.63-0.33-19.93-0.9-28.1-1.49-0.59-4.17-1-8.67-1.2-8.38-1.31 2.22-1.9 5.55-2.15 8.14-2.6-0.21-4.67-0.42-5.93-0.61 0 0-0.31-3.5-0.3-4.64a23.63 23.63 0 0 1 1.66-8.54 42.25 42.25 0 0 1 4.46-7.68 0.09 0.09 0 0 1 0-0.06 24.34 24.34 0 0 0 2.63-5.15 24.22 24.22 0 0 0 1-4c0.81-5 4-9.15 8.9-10.08 9.71-7.69 18.39-3.36 20.55 3.35 0.21 0.66 0.4 1.4 0.58 2.22 0.67 3 1.17 6.86 1.68 9.86s0 0 0 0a28.42 28.42 0 0 0 0.77 3.48c1.92 5.4 6.84 8.82 6.55 23.45z"/>
   <path d="m147.11 70.33a9.62 9.62 0 0 0-6.17 7.23 25 25 0 0 1-1.79 6.17 22.29 22.29 0 0 1-4.07 5.27 16.4 16.4 0 0 0-4.86 8.72 27.91 27.91 0 0 0 0.08 11.55 29.61 29.61 0 0 1 0.62-12c1-4 3.51-6.27 6.09-9.12a16.78 16.78 0 0 0 4.11-7.88c0.39-1.8 0.53-3.71 1.41-5.36a10.85 10.85 0 0 1 4.74-4.14 0.23409 0.23409 0 0 0-0.16-0.44z"/>
   <path d="m177.63 94.21c-1.95-3.06-4-5.69-5-9.36-0.89-3.34-1.27-6.83-2.18-10.16 0-0.06-0.1 0-0.09 0 1.35 5.91 1.21 11.74 4.51 16.89 1.79 2.8 3.59 5.41 4.65 8.67a28.09 28.09 0 0 1 1.2 10.57 0.09 0.09 0 1 0 0.18 0 23.31 23.31 0 0 0-3.27-16.61z"/>
   <path d="m150.45 68.26c-0.22 1.2-6.34 3.42-10.09-0.18s-1.29-9.54 4.28-8.25c3.53 0.82 6.26 5.88 5.81 8.43z"/>
   <path d="m138.93 62.35a7.16 7.16 0 0 1 3.57-3.12 4.31 4.31 0 0 1 4.29 0.52 8.7 8.7 0 0 1 2.77 3.76 14.07 14.07 0 0 1 0.72 2.31 6.67 6.67 0 0 1 0.17 2.44 5.85 5.85 0 0 0 0.27-2.5 11.18 11.18 0 0 0-0.49-2.5 8.51 8.51 0 0 0-2.9-4.25 5 5 0 0 0-2.51-1 5.11 5.11 0 0 0-2.6 0.53 6.33 6.33 0 0 0-3.29 3.81z"/>
  </g>
  <g fill="#d3766a">
   <path d="m141.7 107.59c2.84 15.06 11.45 34.54 19.28 34.85 7.14 0.27 23.69-6.58 30.59-10.36s-6.7-21.18-10.83-19c-5.5 2.87-15.09 9.36-16.56 8.8-1.84-0.7-3.53-3.77-13.44-17.9-4.05-5.8-10.25-2.8-9.04 3.61z"/>
   <path d="m188.36 107.3c3.25-0.76 6.91-1.9 10.39-1.46s5.86 5.35 5.71 6.66-2.34 9.38-5.82 9-0.7-6.45-0.75-7.19-0.08-1.67-0.75-1.67-12.74 4.19-12.74 4.19z"/>
   <path d="m188.53 107.81c0.19 0 9.91-2.65 13.38-2.2s5.86 5.35 5.72 6.66-2.35 9.38-5.82 9-0.7-6.45-0.75-7.19-0.08-1.67-0.75-1.68-12.74 4.2-12.74 4.2z"/>
  </g>
  <path d="m200.67 120.7a4.12 4.12 0 0 1-0.35-2.12 7 7 0 0 1 0.37-2.21 14 14 0 0 0 0.63-1.86 4 4 0 0 0-0.29-1.9c-0.22-0.51-0.74-0.4-1.2-0.29a15.28 15.28 0 0 0-2 0.65c-0.7 0.25-1.4 0.53-2.1 0.8a17.26 17.26 0 0 0-2.14 0.89c-0.05 0 0 0.11 0 0.1 0.63-0.15 1.24-0.4 1.85-0.61s1.39-0.47 2.09-0.69 1.29-0.46 1.95-0.65a2.07 2.07 0 0 1 0.94-0.18c0.26 0.09 0.32 0.76 0.36 1a3.28 3.28 0 0 1-0.33 1.87 10.3 10.3 0 0 0-0.56 1.87 5.11 5.11 0 0 0 0 1.83 7 7 0 0 0 0.66 1.58c0.04 0.05 0.17-0.01 0.12-0.08z" fill="#263238"/>
  <path d="m176.5 115.74s10.59-7.74 12.79-9.27c4.41-3.06 22.11-8.14 24.5-8.14s2.72 5-9.33 8.73c-6.36 2-7.81 5.35-7.91 7.28s1.36 5.73 4.61 6 5.86-4.23 8.89-4.43 0.47 5-2 8a20 20 0 0 1-9.45 5.85c-2.91 0.75-12 3.54-12 3.54z" fill="#d3766a"/>
  <path d="m205.42 118.49c-1.32 0.82-2.84 1.89-4.45 1.78s-2.62-1.32-3.25-2.75a6.2 6.2 0 0 1-0.36-4.57 7.52 7.52 0 0 1 2.61-3.39 18.17 18.17 0 0 1 4.71-2.44c0.07 0 0-0.14-0.06-0.12-1.56 0.51-6.4 1.9-7.77 5.89a6.31 6.31 0 0 0 0.41 4.66 4.46 4.46 0 0 0 3 3c1.89 0.37 3.71-1 5.21-2 0.11-0.05 0.02-0.1-0.05-0.06z" fill="#263238"/>
  <path d="m140.74 110.64a66.5 66.5 0 0 0 4.58 17.54c0.49 1.12 0.8 1.7 0.8 1.7l14.58-10.26 2-1.42s-0.23-0.41-1-1.54c-1.13-1.59-3.42-4.62-7.79-9.9a28.79 28.79 0 0 0-6.71-6.33c-5.3-3.17-7.66 1.11-6.46 10.21z" fill="#ffc727"/>
  <path d="m143.75 129.3 3 5.29 16.25-11.7 3.65-2.62-4-4.34-1 0.73-2.05 1.45-14.31 10.07z" fill="#ffc727"/>
  <path d="m140.74 110.64a66.5 66.5 0 0 0 4.58 17.54l-1.57 1.12 3 5.29 16.25-11.7-2.34-3.27c-0.35-0.51-0.71-1-1.07-1.51-4.81-6.78-9.59-13.55-12.45-17.68-5.24-3.17-7.6 1.11-6.4 10.21z" fill="#263238"/>
  <path d="m164.46 159-0.89-18.43s7.33-9 4.66-15.49c-1.35-3.26-11-19.91-16.27-24.09-5-3.93-12.62-0.15-15 3.1-9.19 12.62-16.16 23.93-22.76 52.39 0 0 18.67 6.26 35.59 6.26 5.28 0.04 14.67-3.74 14.67-3.74z" fill="#d3766a"/>
  <path d="m166.59 154.42-3-13.81s7.33-9 4.66-15.49c-1.35-3.26-11-19.91-16.27-24.09-5-3.93-13-0.66-15.45 2.55-9.48 12.6-17 25.58-22.63 49.6z" fill="#ffc727"/>
  <path d="m147.42 139.69a43.84 43.84 0 0 1 6.58 0.25c1.08 0.13 2.15 0.32 3.22 0.53 0.53 0.1 1.07 0.19 1.61 0.27a6.87 6.87 0 0 0 1.69 0.11s0.06 0.07 0 0.08a12.23 12.23 0 0 1-1.6 0.17 11.67 11.67 0 0 1-1.56-0.1c-1.1-0.13-2.19-0.31-3.29-0.45-2.22-0.28-4.43-0.56-6.66-0.68-0.1 0-0.09-0.18 0.01-0.18z" fill="#263238"/>
  <path d="m142.3 142.29a46.43 46.43 0 0 1 5.35-0.94c0.9-0.1 1.8-0.15 2.71-0.18h1.3c0.44 0 1 0.06 1.42 0.05 0 0 0.06 0.08 0 0.08-0.45 0-0.89 0.12-1.34 0.16l-1.35 0.13c-0.9 0.1-1.79 0.2-2.69 0.28-1.81 0.16-3.6 0.35-5.39 0.57-0.09 0.01-0.1-0.13-0.01-0.15z" fill="#263238"/>
  <path d="m142.89 102.33c-0.07 1 4.86 8.86 9.11 10 1.39 0.35 1.28-7.7 1.28-7.7l0.29-0.52 4.11-7.2-7.29-8.61-1.08-1.18s-1 2-2.2 4.6c-0.06 0.12-0.12 0.24-0.17 0.37a4 4 0 0 0-0.21 0.41c-0.18 0.38-0.37 0.77-0.55 1.16s-0.27 0.58-0.41 0.9l-0.41 0.94a52.49 52.49 0 0 0-2.47 6.83z" fill="#d3766a"/>
  <path d="m147.11 91.67a16.6 16.6 0 0 0 6.46 12.39l4.11-7.2-7.29-8.61-1.08-1.18s-0.99 2.04-2.2 4.6z" fill="#263238"/>
  <path d="m172.55 85.51c-0.43 14.54-9.19 15.92-12.32 15.83-2.85-0.09-12.53-0.75-13.6-15.25s5.81-18.91 12.37-19.09 14 4 13.55 18.51z" fill="#d3766a"/>
  <g fill="#263238">
   <path d="m169.88 82.77a7.65 7.65 0 0 1-1-0.3 1.57 1.57 0 0 1-0.88-0.47 0.5 0.5 0 0 1 0.06-0.63 1.29 1.29 0 0 1 1.29-0.18 1.92 1.92 0 0 1 1.11 0.78 0.55 0.55 0 0 1-0.58 0.8z"/>
   <path d="m160.54 81.81c0.34 0 0.66-0.08 1-0.12a1.52 1.52 0 0 0 1-0.31 0.5 0.5 0 0 0 0.06-0.63 1.28 1.28 0 0 0-1.23-0.41 1.87 1.87 0 0 0-1.24 0.55 0.56 0.56 0 0 0 0.41 0.92z"/>
   <path d="m162.26 85.66s-0.08 0-0.08 0.09c0 1-0.26 2.11-1.17 2.38a0.025 0-90 0 0 0 0.05c1.1-0.07 1.37-1.57 1.25-2.52z"/>
   <path d="m161.45 84.57c-1.58-0.24-1.93 2.94-0.47 3.16s1.8-2.96 0.47-3.16z"/>
   <path d="m160.81 84.67c-0.3 0.15-0.61 0.43-0.94 0.43s-0.65-0.37-0.87-0.72h-0.06c-0.07 0.61 0.09 1.26 0.73 1.42s1.08-0.34 1.3-0.94c0.03-0.08-0.04-0.25-0.16-0.19z"/>
   <path d="m167.62 86.2s0.07 0.06 0.07 0.1c-0.15 1-0.16 2.12 0.69 2.56v0c-1.08-0.23-1.06-1.75-0.76-2.66z"/>
   <path d="m168.62 85.28c1.6 0.07 1.34 3.26-0.14 3.19s-1.2-3.25 0.14-3.19z"/>
   <path d="m169.27 85.54c0.24 0.19 0.46 0.52 0.76 0.56s0.63-0.27 0.88-0.58h0.05c0 0.61-0.28 1.23-0.88 1.3s-0.89-0.49-1-1.11c-0.01-0.08 0.09-0.24 0.19-0.17z"/>
   <path d="m161.41 93.61c0.2 0.27 0.38 0.62 0.73 0.71a2.68 2.68 0 0 0 1.09-0.08s0.06 0 0 0.05a1.33 1.33 0 0 1-1.33 0.34 1.06 1.06 0 0 1-0.63-1c0.03-0.05 0.11-0.06 0.14-0.02z"/>
   <path d="m165.89 90.46s0.05 1.49 0 2.19c0 0.06-0.18 0.08-0.42 0.07a3.3 3.3 0 0 1-3.08-1.55c0-0.07 0.05-0.13 0.11-0.08a5.06 5.06 0 0 0 2.93 1.16c0.07-0.19-0.18-2.55-0.07-2.55a6.6 6.6 0 0 1 1.54 0.51c0-3.11-0.55-6.19-0.54-9.29 0-0.11 0.17-0.13 0.19 0a50.37 50.37 0 0 1 1 10c-0.02 0.35-1.4-0.31-1.66-0.46z"/>
   <path d="m165 92.3a3.53 3.53 0 0 1-1.49 1 1.56 1.56 0 0 1-1 0c-0.69-0.23-0.67-0.88-0.51-1.42a3.9 3.9 0 0 1 0.36-0.83 4.68 4.68 0 0 0 2.64 1.25z"/>
  </g>
  <path d="m163.54 93.32a1.56 1.56 0 0 1-1 0c-0.69-0.23-0.67-0.88-0.51-1.42a1.66 1.66 0 0 1 1.51 1.42z" fill="#ff9cbd"/>
  <g fill="#263238">
   <path d="m164.45 70.25a6.7 6.7 0 0 1-0.61 3.86c-2 3.17-5.91 1.85-7.43 3s-1.26 3.72-2.57 4.83c-1.81 1.54-3.94 0.63-4.33 1.76s-1.57 4.72-3.1 5-5.6-24.93 13.59-22c0 0 2.7-0.68 6.64 1.73 4.55 2.78 5.54 10.34 5.54 10.34s-0.19 0-0.79-0.67c-0.84-0.92-1.11-1.72-1.74-2.33-1-1-1.6-0.7-2.62-1.63a12.81 12.81 0 0 1-2.58-3.89z"/>
   <path d="m164.27 69.15a13.3 13.3 0 0 1 0.24 3 5.42 5.42 0 0 1-0.73 2.82 4 4 0 0 1-2.4 1.48c-0.95 0.23-2 0.22-3 0.5a3.1 3.1 0 0 0-1.4 0.83 3.93 3.93 0 0 0-0.73 1.42 5.34 5.34 0 0 1-1.36 2.55 3.32 3.32 0 0 1-2.71 0.8 7.24 7.24 0 0 0-3-0.17 7.08 7.08 0 0 1 3 0.4 3.63 3.63 0 0 0 3-0.75 5.33 5.33 0 0 0 1.54-2.68 3.6 3.6 0 0 1 0.66-1.26 2.61 2.61 0 0 1 1.19-0.68c0.93-0.27 2-0.28 3-0.54a5.23 5.23 0 0 0 1.45-0.6 3.22 3.22 0 0 0 1.16-1.1 5.72 5.72 0 0 0 0.65-3 13.31 13.31 0 0 0-0.56-3.02z"/>
   <path d="m164.54 70.07a11.06 11.06 0 0 0 0.64 2.76 5 5 0 0 0 1.7 2.33 7.51 7.51 0 0 0 1.28 0.67 2.26 2.26 0 0 1 1 0.81 7.43 7.43 0 0 0 0.72 1.23 3.16 3.16 0 0 0 1.14 0.85 3.57 3.57 0 0 1-0.95-1 7.3 7.3 0 0 1-0.58-1.26 2.41 2.41 0 0 0-1.08-1 7.62 7.62 0 0 1-1.21-0.65 5.2 5.2 0 0 1-1.62-2.1 21 21 0 0 1-1.04-2.64z"/>
  </g>
  <path d="m149 86.28s-2.63-4.87-4.81-4-0.57 7.7 1.73 8.88a2.47 2.47 0 0 0 3.43-0.94z" fill="#d3766a"/>
  <path d="m144.68 84.23a0.035 0-90 0 0 0 0.07 6.22 6.22 0 0 1 2.74 4.23 1.35 1.35 0 0 0-2-0.6c-0.05 0 0 0.1 0 0.09a1.54 1.54 0 0 1 1.6 0.72 7.31 7.31 0 0 1 0.63 1.43c0.06 0.16 0.34 0.11 0.31-0.07 0.32-2.18-0.96-5.38-3.28-5.87z" fill="#263238"/>
  <path d="m136.26 112.52c4.06 14.84 24.73 43.12 33.24 45 9.86 2.14 36-9.51 42-14.91 2.41-2.16-12-17.7-15.11-16.2-13 6.3-23.78 8.55-25.63 7.54-2.85-1.55-15.12-14.86-23.15-23.85-10.08-11.33-13.16-4.24-11.35 2.42z" fill="#d3766a"/>
  <path d="m210.87 143c1.34-0.64 10.28-8.56 12.79-12.11a42.51 42.51 0 0 0 6.27-12.19c2.2-6.92 3.06-11.92 2.16-14-1-2.45-1.31-2.84-6.88 8.84-3.15 6.61-6.66 7.66-9.78 7.91a50.79 50.79 0 0 0-21.64 6.74s11.89 17.28 17.08 14.81z" fill="#d3766a"/>
  <path d="m236.36 101.61-18.86 19.31a2.1 2.1 0 0 1-2.16 0.5l-11.41-5.2c-0.64-0.29-0.7-1-0.15-1.55l18.87-19.31a2.07 2.07 0 0 1 2.16-0.5l11.4 5.19c0.64 0.29 0.71 0.95 0.15 1.56z" fill="#263238"/>
  <path d="m235.27 101.11-18.86 19.31a2.07 2.07 0 0 1-2.16 0.5l-11.41-5.19c-0.63-0.29-0.7-1-0.14-1.56l18.86-19.3a2.08 2.08 0 0 1 2.16-0.51l11.41 5.2c0.63 0.29 0.7 0.98 0.14 1.55z" fill="#37474f"/>
  <path d="m233.61 101.75-17.3 17.7a1.91 1.91 0 0 1-2 0.51l-10.2-4.65c-0.58-0.26-0.61-0.9-0.08-1.45l17.29-17.7c1.08-1.1 1.78-1.13 2.35-0.87l2 0.93c0.12 0 0.1 0.21 0 0.36l-0.07 0.06c-0.33 0.35-0.12 0.45 0.15 0.57l4.72 2.15a0.59 0.59 0 0 0 0.82-0.13l0.06-0.06a0.49 0.49 0 0 1 0.47-0.17l2 0.94c0.64 0.26 0.77 0.8-0.21 1.81z" fill="#fff"/>
  <path d="m229.19 98.15-1.29-0.59a0.06 0.06 0 0 1 0-0.1 0.15 0.15 0 0 1 0.15 0l1.29 0.59a0.06 0.06 0 0 1 0 0.1 0.14 0.14 0 0 1-0.15 0z" fill="#fff"/>
  <polygon points="220.36 99.82 229.03 103.77 221.62 111.36 212.95 107.41" fill="#ffc727"/>
  <g fill="#a6a6a6">
   <polygon points="212.16 108.21 217.22 110.52 216.79 110.96 211.73 108.66"/>
   <polygon points="211.23 109.17 217.22 111.89 217 112.12 211.01 109.39"/>
   <polygon points="210.83 109.58 216.82 112.3 216.6 112.53 210.61 109.8"/>
   <polygon points="210.43 109.98 216.42 112.71 216.21 112.94 210.22 110.21"/>
   <polygon points="222.8 97.33 223.88 97.82 223.7 98 222.62 97.51"/>
   <polygon points="222.47 97.66 223.55 98.15 223.37 98.34 222.29 97.85"/>
   <polygon points="222.14 98 223.22 98.49 223.04 98.67 221.96 98.18"/>
  </g>
  <path d="m220.42 112.43a1.7 1.7 0 0 1-0.5 0.1 0.59 0.59 0 0 1-0.07-0.35c0-0.25 0.28-0.49 0.49-0.39s0 0.3 0 0.3 0.23-0.19 0.4-0.11 0.01 0.35-0.32 0.45z" fill="#ffc727"/>
  <polygon points="209.16 112.53 216.15 115.71 214.44 117.47 207.44 114.28" fill="#ffc727"/>
  <path d="m217 121.24c-3.21 0.37 6.59-7.18 6.39-10.85s-3.65-2.17-6.25 0.17c-9.05 8.12-16.44 8.49-20.72 15.82s20.58-5.14 20.58-5.14z" fill="#d3766a"/>
  <path d="m165.4 129.24c0.89 0.73 1.75 1.5 2.61 2.26a18 18 0 0 0 2.51 2 5.27 5.27 0 0 0 3.5 0.37c1.06-0.16 2.1-0.38 3.14-0.64a94.34 94.34 0 0 0 12.44-4.11 63.91 63.91 0 0 0 6.7-2.86l-0.24 0.27a15.55 15.55 0 0 1 2-2.81 18.3 18.3 0 0 1 2.94-2.72 33.08 33.08 0 0 1 3.56-2.28c0.65-0.36 1.3-0.72 2-1.05l1-0.51a4.31 4.31 0 0 0 1.16-0.63c-0.08 0.11-0.22 0-0.12-0.11h0.11v0.07c-0.11 0.18-0.33 0.25-0.5 0.36l-0.92 0.61c-0.56 0.38-1.13 0.75-1.7 1.12-1.29 0.83-2.58 1.66-3.81 2.58a28.85 28.85 0 0 0-3 2.53c-0.48 0.46-0.91 1-1.37 1.44a11.35 11.35 0 0 0-1.14 1.54s-4 2-6 2.9-4.18 1.74-6.32 2.48-4.3 1.38-6.49 1.94a26.2 26.2 0 0 1-3.38 0.66 5.51 5.51 0 0 1-3.09-0.21 11.71 11.71 0 0 1-2.58-2.24c-1-1-2.07-1.94-3.07-3-0.06 0.08 0.01 0 0.06 0.04z" fill="#263238"/>
  <path d="m165.61 128.68-15.52 13s-11.74-16.18-14.41-28.33 3.59-13.44 14-2c10.15 11.32 15.93 17.33 15.93 17.33z" fill="#ffc727"/>
  <path d="m154.7 116.88c1.82 1.78 3.56 3.67 5.28 5.55 0.84 0.92 1.67 1.83 2.48 2.77l1.3 1.48a13.85 13.85 0 0 0 1.47 1.59c0.1 0.08 0 0.21-0.11 0.12a23.82 23.82 0 0 0-2.66-2.75c-0.93-0.94-1.84-1.88-2.73-2.85-1.75-1.89-3.5-3.83-5.1-5.85z" fill="#263238"/>
  <path d="m138.93 124.66a13.59 13.59 0 0 0 1.51 1.71c0.22 0.21 0.42 0.42 0.63 0.64-0.91-1.7-1.77-3.43-2.55-5.18h0.06c2 3.35 3.84 6.81 5.86 10.17s3.88 7 6.07 10.27a0.083217 0.083217 0 1 1-0.14 0.09c-2.11-3.35-4.42-6.56-6.37-10-0.77-1.38-1.55-2.77-2.31-4.17a6.61 6.61 0 0 1-0.7-0.7 10.52 10.52 0 0 1-0.76-0.87c-0.46-0.63-0.94-1.23-1.43-1.82-0.07-0.12 0.06-0.23 0.13-0.14z" fill="#263238"/>
  <path d="m169.75 130.4-4.32-4-17.76 15 3.43 5z" fill="#ffc727"/>
  <path d="m149.84 139.38c2.2-2 4.57-3.89 6.87-5.8s4.74-3.68 7-5.68c0.08-0.07 0.19 0.06 0.1 0.13-2.27 2-4.38 4.09-6.69 6a86.21 86.21 0 0 1-7.15 5.48 0.091924 0.091924 0 0 1-0.13-0.13z" fill="#263238"/>
  <path d="m154.17 143.75c-1.11 0.77-2.18 1.6-3.23 2.45h0.36c-1.11-1.7-2.26-3.36-3.51-5v0.19c0.42-0.4 0.83-0.81 1.24-1.24-0.49 0.33-1 0.67-1.43 1l-0.1 0.07 0.07 0.12c1 1.75 2.17 3.43 3.35 5.08l0.16 0.22 0.2-0.17c0.98-0.81 1.96-1.74 2.89-2.72z" fill="#263238"/>
  <polygon points="472.04 84.92 258.15 84.92 258.15 84.92 258.15 152.08 472.04 152.08" fill="#455a64"/>
  <polygon points="446.23 152.05 472.04 176.84 472.04 152.05" fill="#455a64"/>
  <g fill="#fff">
   <rect x="271.65" y="96.53" width="148.33" height="1.28"/>
   <rect x="271.65" y="103.42" width="117.55" height="1.28"/>
   <rect x="271.65" y="117.21" width="136.14" height="1.28"/>
   <rect x="271.65" y="124.1" width="148.33" height="1.28"/>
   <rect x="271.65" y="130.99" width="148.33" height="1.28"/>
   <rect x="271.65" y="137.88" width="107.25" height="1.28"/>
   <path d="m437.83 125.34a13.48 13.48 0 0 1 0.95-5.21 8.6 8.6 0 0 1 3.91-4c0.59-0.36 1.32-0.76 2.19-1.22a17.66 17.66 0 0 0 2.55-1.63 9.46 9.46 0 0 0 2.11-2.22 5.16 5.16 0 0 0 0.86-2.94 4.77 4.77 0 0 0-0.48-2.19 4.92 4.92 0 0 0-1.24-1.6 5.2 5.2 0 0 0-1.81-1 6.89 6.89 0 0 0-2.11-0.33 6 6 0 0 0-2.37 0.45 7.93 7.93 0 0 0-1.92 1.12 9 9 0 0 0-1.54 1.55 14.3 14.3 0 0 0-1.16 1.63l-5.16-3.56a11.4 11.4 0 0 1 2.05-3.26 12.37 12.37 0 0 1 2.9-2.4 13.46 13.46 0 0 1 3.53-1.53 15 15 0 0 1 3.91-0.51 15.71 15.71 0 0 1 4.45 0.65 11.39 11.39 0 0 1 3.94 2.08 10.83 10.83 0 0 1 2.85 3.64 12 12 0 0 1 1.09 5.31 11.33 11.33 0 0 1-0.44 3.35 9.24 9.24 0 0 1-1.28 2.64 10.93 10.93 0 0 1-1.95 2.13 20.93 20.93 0 0 1-2.55 1.84c-0.79 0.48-1.58 0.93-2.37 1.36a14.69 14.69 0 0 0-2.17 1.46 7 7 0 0 0-1.6 1.84 4.84 4.84 0 0 0-0.62 2.51zm0.12 13.82v-8.16h6.58v8.18z"/>
  </g>
 </g>
</svg>
